G04 EAGLE Gerber RS-274X export*
G75*
%MOMM*%
%FSLAX34Y34*%
%LPD*%
%INCopper Layer 15*%
%IPPOS*%
%AMOC8*
5,1,8,0,0,1.08239X$1,22.5*%
G01*
%ADD10C,1.244600*%
%ADD11C,0.854800*%
%ADD12C,1.400000*%
%ADD13C,4.191000*%
%ADD14C,0.609600*%

G36*
X859556Y3306D02*
X859556Y3306D01*
X859575Y3304D01*
X859677Y3326D01*
X859779Y3342D01*
X859796Y3352D01*
X859816Y3356D01*
X859905Y3409D01*
X859996Y3458D01*
X860010Y3472D01*
X860027Y3482D01*
X860094Y3561D01*
X860166Y3636D01*
X860174Y3654D01*
X860187Y3669D01*
X860226Y3765D01*
X860269Y3859D01*
X860271Y3879D01*
X860279Y3897D01*
X860297Y4064D01*
X860297Y757936D01*
X860294Y757956D01*
X860296Y757975D01*
X860274Y758077D01*
X860258Y758179D01*
X860248Y758196D01*
X860244Y758216D01*
X860191Y758305D01*
X860142Y758396D01*
X860128Y758410D01*
X860118Y758427D01*
X860039Y758494D01*
X859964Y758566D01*
X859946Y758574D01*
X859931Y758587D01*
X859835Y758626D01*
X859741Y758669D01*
X859721Y758671D01*
X859703Y758679D01*
X859536Y758697D01*
X4064Y758697D01*
X4044Y758694D01*
X4025Y758696D01*
X3923Y758674D01*
X3821Y758658D01*
X3804Y758648D01*
X3784Y758644D01*
X3695Y758591D01*
X3604Y758542D01*
X3590Y758528D01*
X3573Y758518D01*
X3506Y758439D01*
X3434Y758364D01*
X3426Y758346D01*
X3413Y758331D01*
X3374Y758235D01*
X3331Y758141D01*
X3329Y758121D01*
X3321Y758103D01*
X3303Y757936D01*
X3303Y4064D01*
X3306Y4044D01*
X3304Y4025D01*
X3326Y3923D01*
X3342Y3821D01*
X3352Y3804D01*
X3356Y3784D01*
X3409Y3695D01*
X3458Y3604D01*
X3472Y3590D01*
X3482Y3573D01*
X3561Y3506D01*
X3636Y3434D01*
X3654Y3426D01*
X3669Y3413D01*
X3765Y3374D01*
X3859Y3331D01*
X3879Y3329D01*
X3897Y3321D01*
X4064Y3303D01*
X859536Y3303D01*
X859556Y3306D01*
G37*
%LPC*%
G36*
X808126Y687704D02*
X808126Y687704D01*
X799491Y691281D01*
X792881Y697891D01*
X789304Y706526D01*
X789304Y715874D01*
X792881Y724509D01*
X799491Y731119D01*
X808126Y734696D01*
X817474Y734696D01*
X826109Y731119D01*
X832719Y724509D01*
X836296Y715874D01*
X836296Y706526D01*
X832719Y697891D01*
X826109Y691281D01*
X817474Y687704D01*
X808126Y687704D01*
G37*
%LPD*%
%LPC*%
G36*
X46126Y687704D02*
X46126Y687704D01*
X37491Y691281D01*
X30881Y697891D01*
X27304Y706526D01*
X27304Y715874D01*
X30881Y724509D01*
X37491Y731119D01*
X46126Y734696D01*
X55474Y734696D01*
X64109Y731119D01*
X70719Y724509D01*
X74296Y715874D01*
X74296Y706526D01*
X70719Y697891D01*
X64109Y691281D01*
X55474Y687704D01*
X46126Y687704D01*
G37*
%LPD*%
%LPC*%
G36*
X46126Y27304D02*
X46126Y27304D01*
X37491Y30881D01*
X30881Y37491D01*
X27304Y46126D01*
X27304Y55474D01*
X30881Y64109D01*
X37491Y70719D01*
X46126Y74296D01*
X55474Y74296D01*
X64109Y70719D01*
X70719Y64109D01*
X74296Y55474D01*
X74296Y46126D01*
X70719Y37491D01*
X64109Y30881D01*
X55474Y27304D01*
X46126Y27304D01*
G37*
%LPD*%
%LPC*%
G36*
X808126Y27304D02*
X808126Y27304D01*
X799491Y30881D01*
X792881Y37491D01*
X789304Y46126D01*
X789304Y55474D01*
X792881Y64109D01*
X799491Y70719D01*
X808126Y74296D01*
X817474Y74296D01*
X826109Y70719D01*
X832719Y64109D01*
X836296Y55474D01*
X836296Y46126D01*
X832719Y37491D01*
X826109Y30881D01*
X817474Y27304D01*
X808126Y27304D01*
G37*
%LPD*%
%LPC*%
G36*
X708902Y66659D02*
X708902Y66659D01*
X705396Y68112D01*
X702712Y70796D01*
X701259Y74302D01*
X701259Y78098D01*
X702712Y81604D01*
X705396Y84288D01*
X708902Y85741D01*
X712698Y85741D01*
X716204Y84288D01*
X718888Y81604D01*
X720341Y78098D01*
X720341Y74302D01*
X718888Y70796D01*
X716204Y68112D01*
X712698Y66659D01*
X708902Y66659D01*
G37*
%LPD*%
%LPC*%
G36*
X658902Y66659D02*
X658902Y66659D01*
X655396Y68112D01*
X652712Y70796D01*
X651259Y74302D01*
X651259Y78098D01*
X652712Y81604D01*
X655396Y84288D01*
X658902Y85741D01*
X662698Y85741D01*
X666204Y84288D01*
X668888Y81604D01*
X670341Y78098D01*
X670341Y74302D01*
X668888Y70796D01*
X666204Y68112D01*
X662698Y66659D01*
X658902Y66659D01*
G37*
%LPD*%
%LPC*%
G36*
X561457Y248036D02*
X561457Y248036D01*
X558236Y249370D01*
X555770Y251836D01*
X554436Y255057D01*
X554436Y258543D01*
X555770Y261764D01*
X558236Y264230D01*
X561457Y265564D01*
X564943Y265564D01*
X568164Y264230D01*
X570630Y261764D01*
X571964Y258543D01*
X571964Y255057D01*
X570630Y251836D01*
X568164Y249370D01*
X564943Y248036D01*
X561457Y248036D01*
G37*
%LPD*%
%LPC*%
G36*
X536057Y248036D02*
X536057Y248036D01*
X532836Y249370D01*
X530370Y251836D01*
X529036Y255057D01*
X529036Y258543D01*
X530370Y261764D01*
X532836Y264230D01*
X536057Y265564D01*
X539543Y265564D01*
X542764Y264230D01*
X545230Y261764D01*
X546564Y258543D01*
X546564Y255057D01*
X545230Y251836D01*
X542764Y249370D01*
X539543Y248036D01*
X536057Y248036D01*
G37*
%LPD*%
%LPC*%
G36*
X510657Y248036D02*
X510657Y248036D01*
X507436Y249370D01*
X504970Y251836D01*
X503636Y255057D01*
X503636Y258543D01*
X504970Y261764D01*
X507436Y264230D01*
X510657Y265564D01*
X514143Y265564D01*
X517364Y264230D01*
X519830Y261764D01*
X521164Y258543D01*
X521164Y255057D01*
X519830Y251836D01*
X517364Y249370D01*
X514143Y248036D01*
X510657Y248036D01*
G37*
%LPD*%
%LPC*%
G36*
X485257Y248036D02*
X485257Y248036D01*
X482036Y249370D01*
X479570Y251836D01*
X478236Y255057D01*
X478236Y258543D01*
X479570Y261764D01*
X482036Y264230D01*
X485257Y265564D01*
X488743Y265564D01*
X491964Y264230D01*
X494430Y261764D01*
X495764Y258543D01*
X495764Y255057D01*
X494430Y251836D01*
X491964Y249370D01*
X488743Y248036D01*
X485257Y248036D01*
G37*
%LPD*%
%LPC*%
G36*
X459857Y248036D02*
X459857Y248036D01*
X456636Y249370D01*
X454170Y251836D01*
X452836Y255057D01*
X452836Y258543D01*
X454170Y261764D01*
X456636Y264230D01*
X459857Y265564D01*
X463343Y265564D01*
X466564Y264230D01*
X469030Y261764D01*
X470364Y258543D01*
X470364Y255057D01*
X469030Y251836D01*
X466564Y249370D01*
X463343Y248036D01*
X459857Y248036D01*
G37*
%LPD*%
%LPC*%
G36*
X434457Y248036D02*
X434457Y248036D01*
X431236Y249370D01*
X428770Y251836D01*
X427436Y255057D01*
X427436Y258543D01*
X428770Y261764D01*
X431236Y264230D01*
X434457Y265564D01*
X437943Y265564D01*
X441164Y264230D01*
X443630Y261764D01*
X444964Y258543D01*
X444964Y255057D01*
X443630Y251836D01*
X441164Y249370D01*
X437943Y248036D01*
X434457Y248036D01*
G37*
%LPD*%
%LPC*%
G36*
X409057Y248036D02*
X409057Y248036D01*
X405836Y249370D01*
X403370Y251836D01*
X402036Y255057D01*
X402036Y258543D01*
X403370Y261764D01*
X405836Y264230D01*
X409057Y265564D01*
X412543Y265564D01*
X415764Y264230D01*
X418230Y261764D01*
X419564Y258543D01*
X419564Y255057D01*
X418230Y251836D01*
X415764Y249370D01*
X412543Y248036D01*
X409057Y248036D01*
G37*
%LPD*%
%LPC*%
G36*
X383657Y248036D02*
X383657Y248036D01*
X380436Y249370D01*
X377970Y251836D01*
X376636Y255057D01*
X376636Y258543D01*
X377970Y261764D01*
X380436Y264230D01*
X383657Y265564D01*
X387143Y265564D01*
X390364Y264230D01*
X392830Y261764D01*
X394164Y258543D01*
X394164Y255057D01*
X392830Y251836D01*
X390364Y249370D01*
X387143Y248036D01*
X383657Y248036D01*
G37*
%LPD*%
%LPC*%
G36*
X739257Y222636D02*
X739257Y222636D01*
X736036Y223970D01*
X733570Y226436D01*
X732236Y229657D01*
X732236Y233143D01*
X733570Y236364D01*
X736036Y238830D01*
X739257Y240164D01*
X742743Y240164D01*
X745964Y238830D01*
X748430Y236364D01*
X749764Y233143D01*
X749764Y229657D01*
X748430Y226436D01*
X745964Y223970D01*
X742743Y222636D01*
X739257Y222636D01*
G37*
%LPD*%
%LPC*%
G36*
X713857Y222636D02*
X713857Y222636D01*
X710636Y223970D01*
X708170Y226436D01*
X706836Y229657D01*
X706836Y233143D01*
X708170Y236364D01*
X710636Y238830D01*
X713857Y240164D01*
X717343Y240164D01*
X720564Y238830D01*
X723030Y236364D01*
X724364Y233143D01*
X724364Y229657D01*
X723030Y226436D01*
X720564Y223970D01*
X717343Y222636D01*
X713857Y222636D01*
G37*
%LPD*%
%LPC*%
G36*
X764657Y222636D02*
X764657Y222636D01*
X761436Y223970D01*
X758970Y226436D01*
X757636Y229657D01*
X757636Y233143D01*
X758970Y236364D01*
X761436Y238830D01*
X764657Y240164D01*
X768143Y240164D01*
X771364Y238830D01*
X773830Y236364D01*
X775164Y233143D01*
X775164Y229657D01*
X773830Y226436D01*
X771364Y223970D01*
X768143Y222636D01*
X764657Y222636D01*
G37*
%LPD*%
%LPC*%
G36*
X536057Y222636D02*
X536057Y222636D01*
X532836Y223970D01*
X530370Y226436D01*
X529036Y229657D01*
X529036Y233143D01*
X530370Y236364D01*
X532836Y238830D01*
X536057Y240164D01*
X539543Y240164D01*
X542764Y238830D01*
X545230Y236364D01*
X546564Y233143D01*
X546564Y229657D01*
X545230Y226436D01*
X542764Y223970D01*
X539543Y222636D01*
X536057Y222636D01*
G37*
%LPD*%
%LPC*%
G36*
X510657Y222636D02*
X510657Y222636D01*
X507436Y223970D01*
X504970Y226436D01*
X503636Y229657D01*
X503636Y233143D01*
X504970Y236364D01*
X507436Y238830D01*
X510657Y240164D01*
X514143Y240164D01*
X517364Y238830D01*
X519830Y236364D01*
X521164Y233143D01*
X521164Y229657D01*
X519830Y226436D01*
X517364Y223970D01*
X514143Y222636D01*
X510657Y222636D01*
G37*
%LPD*%
%LPC*%
G36*
X688457Y222636D02*
X688457Y222636D01*
X685236Y223970D01*
X682770Y226436D01*
X681436Y229657D01*
X681436Y233143D01*
X682770Y236364D01*
X685236Y238830D01*
X688457Y240164D01*
X691943Y240164D01*
X695164Y238830D01*
X697630Y236364D01*
X698964Y233143D01*
X698964Y229657D01*
X697630Y226436D01*
X695164Y223970D01*
X691943Y222636D01*
X688457Y222636D01*
G37*
%LPD*%
%LPC*%
G36*
X663057Y222636D02*
X663057Y222636D01*
X659836Y223970D01*
X657370Y226436D01*
X656036Y229657D01*
X656036Y233143D01*
X657370Y236364D01*
X659836Y238830D01*
X663057Y240164D01*
X666543Y240164D01*
X669764Y238830D01*
X672230Y236364D01*
X673564Y233143D01*
X673564Y229657D01*
X672230Y226436D01*
X669764Y223970D01*
X666543Y222636D01*
X663057Y222636D01*
G37*
%LPD*%
%LPC*%
G36*
X637657Y222636D02*
X637657Y222636D01*
X634436Y223970D01*
X631970Y226436D01*
X630636Y229657D01*
X630636Y233143D01*
X631970Y236364D01*
X634436Y238830D01*
X637657Y240164D01*
X641143Y240164D01*
X644364Y238830D01*
X646830Y236364D01*
X648164Y233143D01*
X648164Y229657D01*
X646830Y226436D01*
X644364Y223970D01*
X641143Y222636D01*
X637657Y222636D01*
G37*
%LPD*%
%LPC*%
G36*
X510657Y502036D02*
X510657Y502036D01*
X507436Y503370D01*
X504970Y505836D01*
X503636Y509057D01*
X503636Y512543D01*
X504970Y515764D01*
X507436Y518230D01*
X510657Y519564D01*
X514143Y519564D01*
X517364Y518230D01*
X519830Y515764D01*
X521164Y512543D01*
X521164Y509057D01*
X519830Y505836D01*
X517364Y503370D01*
X514143Y502036D01*
X510657Y502036D01*
G37*
%LPD*%
%LPC*%
G36*
X612257Y222636D02*
X612257Y222636D01*
X609036Y223970D01*
X606570Y226436D01*
X605236Y229657D01*
X605236Y233143D01*
X606570Y236364D01*
X609036Y238830D01*
X612257Y240164D01*
X615743Y240164D01*
X618964Y238830D01*
X621430Y236364D01*
X622764Y233143D01*
X622764Y229657D01*
X621430Y226436D01*
X618964Y223970D01*
X615743Y222636D01*
X612257Y222636D01*
G37*
%LPD*%
%LPC*%
G36*
X586857Y222636D02*
X586857Y222636D01*
X583636Y223970D01*
X581170Y226436D01*
X579836Y229657D01*
X579836Y233143D01*
X581170Y236364D01*
X583636Y238830D01*
X586857Y240164D01*
X590343Y240164D01*
X593564Y238830D01*
X596030Y236364D01*
X597364Y233143D01*
X597364Y229657D01*
X596030Y226436D01*
X593564Y223970D01*
X590343Y222636D01*
X586857Y222636D01*
G37*
%LPD*%
%LPC*%
G36*
X561457Y222636D02*
X561457Y222636D01*
X558236Y223970D01*
X555770Y226436D01*
X554436Y229657D01*
X554436Y233143D01*
X555770Y236364D01*
X558236Y238830D01*
X561457Y240164D01*
X564943Y240164D01*
X568164Y238830D01*
X570630Y236364D01*
X571964Y233143D01*
X571964Y229657D01*
X570630Y226436D01*
X568164Y223970D01*
X564943Y222636D01*
X561457Y222636D01*
G37*
%LPD*%
%LPC*%
G36*
X485257Y222636D02*
X485257Y222636D01*
X482036Y223970D01*
X479570Y226436D01*
X478236Y229657D01*
X478236Y233143D01*
X479570Y236364D01*
X482036Y238830D01*
X485257Y240164D01*
X488743Y240164D01*
X491964Y238830D01*
X494430Y236364D01*
X495764Y233143D01*
X495764Y229657D01*
X494430Y226436D01*
X491964Y223970D01*
X488743Y222636D01*
X485257Y222636D01*
G37*
%LPD*%
%LPC*%
G36*
X459857Y222636D02*
X459857Y222636D01*
X456636Y223970D01*
X454170Y226436D01*
X452836Y229657D01*
X452836Y233143D01*
X454170Y236364D01*
X456636Y238830D01*
X459857Y240164D01*
X463343Y240164D01*
X466564Y238830D01*
X469030Y236364D01*
X470364Y233143D01*
X470364Y229657D01*
X469030Y226436D01*
X466564Y223970D01*
X463343Y222636D01*
X459857Y222636D01*
G37*
%LPD*%
%LPC*%
G36*
X434457Y222636D02*
X434457Y222636D01*
X431236Y223970D01*
X428770Y226436D01*
X427436Y229657D01*
X427436Y233143D01*
X428770Y236364D01*
X431236Y238830D01*
X434457Y240164D01*
X437943Y240164D01*
X441164Y238830D01*
X443630Y236364D01*
X444964Y233143D01*
X444964Y229657D01*
X443630Y226436D01*
X441164Y223970D01*
X437943Y222636D01*
X434457Y222636D01*
G37*
%LPD*%
%LPC*%
G36*
X409057Y222636D02*
X409057Y222636D01*
X405836Y223970D01*
X403370Y226436D01*
X402036Y229657D01*
X402036Y233143D01*
X403370Y236364D01*
X405836Y238830D01*
X409057Y240164D01*
X412543Y240164D01*
X415764Y238830D01*
X418230Y236364D01*
X419564Y233143D01*
X419564Y229657D01*
X418230Y226436D01*
X415764Y223970D01*
X412543Y222636D01*
X409057Y222636D01*
G37*
%LPD*%
%LPC*%
G36*
X383657Y222636D02*
X383657Y222636D01*
X380436Y223970D01*
X377970Y226436D01*
X376636Y229657D01*
X376636Y233143D01*
X377970Y236364D01*
X380436Y238830D01*
X383657Y240164D01*
X387143Y240164D01*
X390364Y238830D01*
X392830Y236364D01*
X394164Y233143D01*
X394164Y229657D01*
X392830Y226436D01*
X390364Y223970D01*
X387143Y222636D01*
X383657Y222636D01*
G37*
%LPD*%
%LPC*%
G36*
X586857Y502036D02*
X586857Y502036D01*
X583636Y503370D01*
X581170Y505836D01*
X579836Y509057D01*
X579836Y512543D01*
X581170Y515764D01*
X583636Y518230D01*
X586857Y519564D01*
X590343Y519564D01*
X593564Y518230D01*
X596030Y515764D01*
X597364Y512543D01*
X597364Y509057D01*
X596030Y505836D01*
X593564Y503370D01*
X590343Y502036D01*
X586857Y502036D01*
G37*
%LPD*%
%LPC*%
G36*
X561457Y502036D02*
X561457Y502036D01*
X558236Y503370D01*
X555770Y505836D01*
X554436Y509057D01*
X554436Y512543D01*
X555770Y515764D01*
X558236Y518230D01*
X561457Y519564D01*
X564943Y519564D01*
X568164Y518230D01*
X570630Y515764D01*
X571964Y512543D01*
X571964Y509057D01*
X570630Y505836D01*
X568164Y503370D01*
X564943Y502036D01*
X561457Y502036D01*
G37*
%LPD*%
%LPC*%
G36*
X764657Y502036D02*
X764657Y502036D01*
X761436Y503370D01*
X758970Y505836D01*
X757636Y509057D01*
X757636Y512543D01*
X758970Y515764D01*
X761436Y518230D01*
X764657Y519564D01*
X768143Y519564D01*
X771364Y518230D01*
X773830Y515764D01*
X775164Y512543D01*
X775164Y509057D01*
X773830Y505836D01*
X771364Y503370D01*
X768143Y502036D01*
X764657Y502036D01*
G37*
%LPD*%
%LPC*%
G36*
X739257Y502036D02*
X739257Y502036D01*
X736036Y503370D01*
X733570Y505836D01*
X732236Y509057D01*
X732236Y512543D01*
X733570Y515764D01*
X736036Y518230D01*
X739257Y519564D01*
X742743Y519564D01*
X745964Y518230D01*
X748430Y515764D01*
X749764Y512543D01*
X749764Y509057D01*
X748430Y505836D01*
X745964Y503370D01*
X742743Y502036D01*
X739257Y502036D01*
G37*
%LPD*%
%LPC*%
G36*
X713857Y502036D02*
X713857Y502036D01*
X710636Y503370D01*
X708170Y505836D01*
X706836Y509057D01*
X706836Y512543D01*
X708170Y515764D01*
X710636Y518230D01*
X713857Y519564D01*
X717343Y519564D01*
X720564Y518230D01*
X723030Y515764D01*
X724364Y512543D01*
X724364Y509057D01*
X723030Y505836D01*
X720564Y503370D01*
X717343Y502036D01*
X713857Y502036D01*
G37*
%LPD*%
%LPC*%
G36*
X688457Y502036D02*
X688457Y502036D01*
X685236Y503370D01*
X682770Y505836D01*
X681436Y509057D01*
X681436Y512543D01*
X682770Y515764D01*
X685236Y518230D01*
X688457Y519564D01*
X691943Y519564D01*
X695164Y518230D01*
X697630Y515764D01*
X698964Y512543D01*
X698964Y509057D01*
X697630Y505836D01*
X695164Y503370D01*
X691943Y502036D01*
X688457Y502036D01*
G37*
%LPD*%
%LPC*%
G36*
X663057Y502036D02*
X663057Y502036D01*
X659836Y503370D01*
X657370Y505836D01*
X656036Y509057D01*
X656036Y512543D01*
X657370Y515764D01*
X659836Y518230D01*
X663057Y519564D01*
X666543Y519564D01*
X669764Y518230D01*
X672230Y515764D01*
X673564Y512543D01*
X673564Y509057D01*
X672230Y505836D01*
X669764Y503370D01*
X666543Y502036D01*
X663057Y502036D01*
G37*
%LPD*%
%LPC*%
G36*
X637657Y502036D02*
X637657Y502036D01*
X634436Y503370D01*
X631970Y505836D01*
X630636Y509057D01*
X630636Y512543D01*
X631970Y515764D01*
X634436Y518230D01*
X637657Y519564D01*
X641143Y519564D01*
X644364Y518230D01*
X646830Y515764D01*
X648164Y512543D01*
X648164Y509057D01*
X646830Y505836D01*
X644364Y503370D01*
X641143Y502036D01*
X637657Y502036D01*
G37*
%LPD*%
%LPC*%
G36*
X612257Y502036D02*
X612257Y502036D01*
X609036Y503370D01*
X606570Y505836D01*
X605236Y509057D01*
X605236Y512543D01*
X606570Y515764D01*
X609036Y518230D01*
X612257Y519564D01*
X615743Y519564D01*
X618964Y518230D01*
X621430Y515764D01*
X622764Y512543D01*
X622764Y509057D01*
X621430Y505836D01*
X618964Y503370D01*
X615743Y502036D01*
X612257Y502036D01*
G37*
%LPD*%
%LPC*%
G36*
X536057Y502036D02*
X536057Y502036D01*
X532836Y503370D01*
X530370Y505836D01*
X529036Y509057D01*
X529036Y512543D01*
X530370Y515764D01*
X532836Y518230D01*
X536057Y519564D01*
X539543Y519564D01*
X542764Y518230D01*
X545230Y515764D01*
X546564Y512543D01*
X546564Y509057D01*
X545230Y505836D01*
X542764Y503370D01*
X539543Y502036D01*
X536057Y502036D01*
G37*
%LPD*%
%LPC*%
G36*
X358257Y222636D02*
X358257Y222636D01*
X355036Y223970D01*
X352570Y226436D01*
X351236Y229657D01*
X351236Y233143D01*
X352570Y236364D01*
X355036Y238830D01*
X358257Y240164D01*
X361743Y240164D01*
X364964Y238830D01*
X367430Y236364D01*
X368764Y233143D01*
X368764Y229657D01*
X367430Y226436D01*
X364964Y223970D01*
X361743Y222636D01*
X358257Y222636D01*
G37*
%LPD*%
%LPC*%
G36*
X485257Y502036D02*
X485257Y502036D01*
X482036Y503370D01*
X479570Y505836D01*
X478236Y509057D01*
X478236Y512543D01*
X479570Y515764D01*
X482036Y518230D01*
X485257Y519564D01*
X488743Y519564D01*
X491964Y518230D01*
X494430Y515764D01*
X495764Y512543D01*
X495764Y509057D01*
X494430Y505836D01*
X491964Y503370D01*
X488743Y502036D01*
X485257Y502036D01*
G37*
%LPD*%
%LPC*%
G36*
X459857Y502036D02*
X459857Y502036D01*
X456636Y503370D01*
X454170Y505836D01*
X452836Y509057D01*
X452836Y512543D01*
X454170Y515764D01*
X456636Y518230D01*
X459857Y519564D01*
X463343Y519564D01*
X466564Y518230D01*
X469030Y515764D01*
X470364Y512543D01*
X470364Y509057D01*
X469030Y505836D01*
X466564Y503370D01*
X463343Y502036D01*
X459857Y502036D01*
G37*
%LPD*%
%LPC*%
G36*
X434457Y502036D02*
X434457Y502036D01*
X431236Y503370D01*
X428770Y505836D01*
X427436Y509057D01*
X427436Y512543D01*
X428770Y515764D01*
X431236Y518230D01*
X434457Y519564D01*
X437943Y519564D01*
X441164Y518230D01*
X443630Y515764D01*
X444964Y512543D01*
X444964Y509057D01*
X443630Y505836D01*
X441164Y503370D01*
X437943Y502036D01*
X434457Y502036D01*
G37*
%LPD*%
%LPC*%
G36*
X409057Y502036D02*
X409057Y502036D01*
X405836Y503370D01*
X403370Y505836D01*
X402036Y509057D01*
X402036Y512543D01*
X403370Y515764D01*
X405836Y518230D01*
X409057Y519564D01*
X412543Y519564D01*
X415764Y518230D01*
X418230Y515764D01*
X419564Y512543D01*
X419564Y509057D01*
X418230Y505836D01*
X415764Y503370D01*
X412543Y502036D01*
X409057Y502036D01*
G37*
%LPD*%
%LPC*%
G36*
X383657Y502036D02*
X383657Y502036D01*
X380436Y503370D01*
X377970Y505836D01*
X376636Y509057D01*
X376636Y512543D01*
X377970Y515764D01*
X380436Y518230D01*
X383657Y519564D01*
X387143Y519564D01*
X390364Y518230D01*
X392830Y515764D01*
X394164Y512543D01*
X394164Y509057D01*
X392830Y505836D01*
X390364Y503370D01*
X387143Y502036D01*
X383657Y502036D01*
G37*
%LPD*%
%LPC*%
G36*
X358257Y502036D02*
X358257Y502036D01*
X355036Y503370D01*
X352570Y505836D01*
X351236Y509057D01*
X351236Y512543D01*
X352570Y515764D01*
X355036Y518230D01*
X358257Y519564D01*
X361743Y519564D01*
X364964Y518230D01*
X367430Y515764D01*
X368764Y512543D01*
X368764Y509057D01*
X367430Y505836D01*
X364964Y503370D01*
X361743Y502036D01*
X358257Y502036D01*
G37*
%LPD*%
%LPC*%
G36*
X332857Y502036D02*
X332857Y502036D01*
X329636Y503370D01*
X327170Y505836D01*
X325836Y509057D01*
X325836Y512543D01*
X327170Y515764D01*
X329636Y518230D01*
X332857Y519564D01*
X336343Y519564D01*
X339564Y518230D01*
X342030Y515764D01*
X343364Y512543D01*
X343364Y509057D01*
X342030Y505836D01*
X339564Y503370D01*
X336343Y502036D01*
X332857Y502036D01*
G37*
%LPD*%
%LPC*%
G36*
X764657Y476636D02*
X764657Y476636D01*
X761436Y477970D01*
X758970Y480436D01*
X757636Y483657D01*
X757636Y487143D01*
X758970Y490364D01*
X761436Y492830D01*
X764657Y494164D01*
X768143Y494164D01*
X771364Y492830D01*
X773830Y490364D01*
X775164Y487143D01*
X775164Y483657D01*
X773830Y480436D01*
X771364Y477970D01*
X768143Y476636D01*
X764657Y476636D01*
G37*
%LPD*%
%LPC*%
G36*
X739257Y476636D02*
X739257Y476636D01*
X736036Y477970D01*
X733570Y480436D01*
X732236Y483657D01*
X732236Y487143D01*
X733570Y490364D01*
X736036Y492830D01*
X739257Y494164D01*
X742743Y494164D01*
X745964Y492830D01*
X748430Y490364D01*
X749764Y487143D01*
X749764Y483657D01*
X748430Y480436D01*
X745964Y477970D01*
X742743Y476636D01*
X739257Y476636D01*
G37*
%LPD*%
%LPC*%
G36*
X713857Y476636D02*
X713857Y476636D01*
X710636Y477970D01*
X708170Y480436D01*
X706836Y483657D01*
X706836Y487143D01*
X708170Y490364D01*
X710636Y492830D01*
X713857Y494164D01*
X717343Y494164D01*
X720564Y492830D01*
X723030Y490364D01*
X724364Y487143D01*
X724364Y483657D01*
X723030Y480436D01*
X720564Y477970D01*
X717343Y476636D01*
X713857Y476636D01*
G37*
%LPD*%
%LPC*%
G36*
X688457Y476636D02*
X688457Y476636D01*
X685236Y477970D01*
X682770Y480436D01*
X681436Y483657D01*
X681436Y487143D01*
X682770Y490364D01*
X685236Y492830D01*
X688457Y494164D01*
X691943Y494164D01*
X695164Y492830D01*
X697630Y490364D01*
X698964Y487143D01*
X698964Y483657D01*
X697630Y480436D01*
X695164Y477970D01*
X691943Y476636D01*
X688457Y476636D01*
G37*
%LPD*%
%LPC*%
G36*
X663057Y476636D02*
X663057Y476636D01*
X659836Y477970D01*
X657370Y480436D01*
X656036Y483657D01*
X656036Y487143D01*
X657370Y490364D01*
X659836Y492830D01*
X663057Y494164D01*
X666543Y494164D01*
X669764Y492830D01*
X672230Y490364D01*
X673564Y487143D01*
X673564Y483657D01*
X672230Y480436D01*
X669764Y477970D01*
X666543Y476636D01*
X663057Y476636D01*
G37*
%LPD*%
%LPC*%
G36*
X637657Y476636D02*
X637657Y476636D01*
X634436Y477970D01*
X631970Y480436D01*
X630636Y483657D01*
X630636Y487143D01*
X631970Y490364D01*
X634436Y492830D01*
X637657Y494164D01*
X641143Y494164D01*
X644364Y492830D01*
X646830Y490364D01*
X648164Y487143D01*
X648164Y483657D01*
X646830Y480436D01*
X644364Y477970D01*
X641143Y476636D01*
X637657Y476636D01*
G37*
%LPD*%
%LPC*%
G36*
X612257Y476636D02*
X612257Y476636D01*
X609036Y477970D01*
X606570Y480436D01*
X605236Y483657D01*
X605236Y487143D01*
X606570Y490364D01*
X609036Y492830D01*
X612257Y494164D01*
X615743Y494164D01*
X618964Y492830D01*
X621430Y490364D01*
X622764Y487143D01*
X622764Y483657D01*
X621430Y480436D01*
X618964Y477970D01*
X615743Y476636D01*
X612257Y476636D01*
G37*
%LPD*%
%LPC*%
G36*
X586857Y476636D02*
X586857Y476636D01*
X583636Y477970D01*
X581170Y480436D01*
X579836Y483657D01*
X579836Y487143D01*
X581170Y490364D01*
X583636Y492830D01*
X586857Y494164D01*
X590343Y494164D01*
X593564Y492830D01*
X596030Y490364D01*
X597364Y487143D01*
X597364Y483657D01*
X596030Y480436D01*
X593564Y477970D01*
X590343Y476636D01*
X586857Y476636D01*
G37*
%LPD*%
%LPC*%
G36*
X561457Y476636D02*
X561457Y476636D01*
X558236Y477970D01*
X555770Y480436D01*
X554436Y483657D01*
X554436Y487143D01*
X555770Y490364D01*
X558236Y492830D01*
X561457Y494164D01*
X564943Y494164D01*
X568164Y492830D01*
X570630Y490364D01*
X571964Y487143D01*
X571964Y483657D01*
X570630Y480436D01*
X568164Y477970D01*
X564943Y476636D01*
X561457Y476636D01*
G37*
%LPD*%
%LPC*%
G36*
X536057Y476636D02*
X536057Y476636D01*
X532836Y477970D01*
X530370Y480436D01*
X529036Y483657D01*
X529036Y487143D01*
X530370Y490364D01*
X532836Y492830D01*
X536057Y494164D01*
X539543Y494164D01*
X542764Y492830D01*
X545230Y490364D01*
X546564Y487143D01*
X546564Y483657D01*
X545230Y480436D01*
X542764Y477970D01*
X539543Y476636D01*
X536057Y476636D01*
G37*
%LPD*%
%LPC*%
G36*
X510657Y476636D02*
X510657Y476636D01*
X507436Y477970D01*
X504970Y480436D01*
X503636Y483657D01*
X503636Y487143D01*
X504970Y490364D01*
X507436Y492830D01*
X510657Y494164D01*
X514143Y494164D01*
X517364Y492830D01*
X519830Y490364D01*
X521164Y487143D01*
X521164Y483657D01*
X519830Y480436D01*
X517364Y477970D01*
X514143Y476636D01*
X510657Y476636D01*
G37*
%LPD*%
%LPC*%
G36*
X459857Y476636D02*
X459857Y476636D01*
X456636Y477970D01*
X454170Y480436D01*
X452836Y483657D01*
X452836Y487143D01*
X454170Y490364D01*
X456636Y492830D01*
X459857Y494164D01*
X463343Y494164D01*
X466564Y492830D01*
X469030Y490364D01*
X470364Y487143D01*
X470364Y483657D01*
X469030Y480436D01*
X466564Y477970D01*
X463343Y476636D01*
X459857Y476636D01*
G37*
%LPD*%
%LPC*%
G36*
X434457Y476636D02*
X434457Y476636D01*
X431236Y477970D01*
X428770Y480436D01*
X427436Y483657D01*
X427436Y487143D01*
X428770Y490364D01*
X431236Y492830D01*
X434457Y494164D01*
X437943Y494164D01*
X441164Y492830D01*
X443630Y490364D01*
X444964Y487143D01*
X444964Y483657D01*
X443630Y480436D01*
X441164Y477970D01*
X437943Y476636D01*
X434457Y476636D01*
G37*
%LPD*%
%LPC*%
G36*
X409057Y476636D02*
X409057Y476636D01*
X405836Y477970D01*
X403370Y480436D01*
X402036Y483657D01*
X402036Y487143D01*
X403370Y490364D01*
X405836Y492830D01*
X409057Y494164D01*
X412543Y494164D01*
X415764Y492830D01*
X418230Y490364D01*
X419564Y487143D01*
X419564Y483657D01*
X418230Y480436D01*
X415764Y477970D01*
X412543Y476636D01*
X409057Y476636D01*
G37*
%LPD*%
%LPC*%
G36*
X383657Y476636D02*
X383657Y476636D01*
X380436Y477970D01*
X377970Y480436D01*
X376636Y483657D01*
X376636Y487143D01*
X377970Y490364D01*
X380436Y492830D01*
X383657Y494164D01*
X387143Y494164D01*
X390364Y492830D01*
X392830Y490364D01*
X394164Y487143D01*
X394164Y483657D01*
X392830Y480436D01*
X390364Y477970D01*
X387143Y476636D01*
X383657Y476636D01*
G37*
%LPD*%
%LPC*%
G36*
X358257Y476636D02*
X358257Y476636D01*
X355036Y477970D01*
X352570Y480436D01*
X351236Y483657D01*
X351236Y487143D01*
X352570Y490364D01*
X355036Y492830D01*
X358257Y494164D01*
X361743Y494164D01*
X364964Y492830D01*
X367430Y490364D01*
X368764Y487143D01*
X368764Y483657D01*
X367430Y480436D01*
X364964Y477970D01*
X361743Y476636D01*
X358257Y476636D01*
G37*
%LPD*%
%LPC*%
G36*
X332857Y476636D02*
X332857Y476636D01*
X329636Y477970D01*
X327170Y480436D01*
X325836Y483657D01*
X325836Y487143D01*
X327170Y490364D01*
X329636Y492830D01*
X332857Y494164D01*
X336343Y494164D01*
X339564Y492830D01*
X342030Y490364D01*
X343364Y487143D01*
X343364Y483657D01*
X342030Y480436D01*
X339564Y477970D01*
X336343Y476636D01*
X332857Y476636D01*
G37*
%LPD*%
%LPC*%
G36*
X332857Y222636D02*
X332857Y222636D01*
X329636Y223970D01*
X327170Y226436D01*
X325836Y229657D01*
X325836Y233143D01*
X327170Y236364D01*
X329636Y238830D01*
X332857Y240164D01*
X336343Y240164D01*
X339564Y238830D01*
X342030Y236364D01*
X343364Y233143D01*
X343364Y229657D01*
X342030Y226436D01*
X339564Y223970D01*
X336343Y222636D01*
X332857Y222636D01*
G37*
%LPD*%
%LPC*%
G36*
X358257Y248036D02*
X358257Y248036D01*
X355036Y249370D01*
X352570Y251836D01*
X351236Y255057D01*
X351236Y258543D01*
X352570Y261764D01*
X355036Y264230D01*
X358257Y265564D01*
X361743Y265564D01*
X364964Y264230D01*
X367430Y261764D01*
X368764Y258543D01*
X368764Y255057D01*
X367430Y251836D01*
X364964Y249370D01*
X361743Y248036D01*
X358257Y248036D01*
G37*
%LPD*%
%LPC*%
G36*
X332857Y248036D02*
X332857Y248036D01*
X329636Y249370D01*
X327170Y251836D01*
X325836Y255057D01*
X325836Y258543D01*
X327170Y261764D01*
X329636Y264230D01*
X332857Y265564D01*
X336343Y265564D01*
X339564Y264230D01*
X342030Y261764D01*
X343364Y258543D01*
X343364Y255057D01*
X342030Y251836D01*
X339564Y249370D01*
X336343Y248036D01*
X332857Y248036D01*
G37*
%LPD*%
%LPC*%
G36*
X764657Y248036D02*
X764657Y248036D01*
X761436Y249370D01*
X758970Y251836D01*
X757636Y255057D01*
X757636Y258543D01*
X758970Y261764D01*
X761436Y264230D01*
X764657Y265564D01*
X768143Y265564D01*
X771364Y264230D01*
X773830Y261764D01*
X775164Y258543D01*
X775164Y255057D01*
X773830Y251836D01*
X771364Y249370D01*
X768143Y248036D01*
X764657Y248036D01*
G37*
%LPD*%
%LPC*%
G36*
X739257Y248036D02*
X739257Y248036D01*
X736036Y249370D01*
X733570Y251836D01*
X732236Y255057D01*
X732236Y258543D01*
X733570Y261764D01*
X736036Y264230D01*
X739257Y265564D01*
X742743Y265564D01*
X745964Y264230D01*
X748430Y261764D01*
X749764Y258543D01*
X749764Y255057D01*
X748430Y251836D01*
X745964Y249370D01*
X742743Y248036D01*
X739257Y248036D01*
G37*
%LPD*%
%LPC*%
G36*
X713857Y248036D02*
X713857Y248036D01*
X710636Y249370D01*
X708170Y251836D01*
X706836Y255057D01*
X706836Y258543D01*
X708170Y261764D01*
X710636Y264230D01*
X713857Y265564D01*
X717343Y265564D01*
X720564Y264230D01*
X723030Y261764D01*
X724364Y258543D01*
X724364Y255057D01*
X723030Y251836D01*
X720564Y249370D01*
X717343Y248036D01*
X713857Y248036D01*
G37*
%LPD*%
%LPC*%
G36*
X688457Y248036D02*
X688457Y248036D01*
X685236Y249370D01*
X682770Y251836D01*
X681436Y255057D01*
X681436Y258543D01*
X682770Y261764D01*
X685236Y264230D01*
X688457Y265564D01*
X691943Y265564D01*
X695164Y264230D01*
X697630Y261764D01*
X698964Y258543D01*
X698964Y255057D01*
X697630Y251836D01*
X695164Y249370D01*
X691943Y248036D01*
X688457Y248036D01*
G37*
%LPD*%
%LPC*%
G36*
X663057Y248036D02*
X663057Y248036D01*
X659836Y249370D01*
X657370Y251836D01*
X656036Y255057D01*
X656036Y258543D01*
X657370Y261764D01*
X659836Y264230D01*
X663057Y265564D01*
X666543Y265564D01*
X669764Y264230D01*
X672230Y261764D01*
X673564Y258543D01*
X673564Y255057D01*
X672230Y251836D01*
X669764Y249370D01*
X666543Y248036D01*
X663057Y248036D01*
G37*
%LPD*%
%LPC*%
G36*
X637657Y248036D02*
X637657Y248036D01*
X634436Y249370D01*
X631970Y251836D01*
X630636Y255057D01*
X630636Y258543D01*
X631970Y261764D01*
X634436Y264230D01*
X637657Y265564D01*
X641143Y265564D01*
X644364Y264230D01*
X646830Y261764D01*
X648164Y258543D01*
X648164Y255057D01*
X646830Y251836D01*
X644364Y249370D01*
X641143Y248036D01*
X637657Y248036D01*
G37*
%LPD*%
%LPC*%
G36*
X586857Y248036D02*
X586857Y248036D01*
X583636Y249370D01*
X581170Y251836D01*
X579836Y255057D01*
X579836Y258543D01*
X581170Y261764D01*
X583636Y264230D01*
X586857Y265564D01*
X590343Y265564D01*
X593564Y264230D01*
X596030Y261764D01*
X597364Y258543D01*
X597364Y255057D01*
X596030Y251836D01*
X593564Y249370D01*
X590343Y248036D01*
X586857Y248036D01*
G37*
%LPD*%
%LPC*%
G36*
X327244Y655185D02*
X327244Y655185D01*
X324740Y656223D01*
X322823Y658140D01*
X321785Y660644D01*
X321785Y663356D01*
X322823Y665860D01*
X324740Y667777D01*
X327244Y668815D01*
X329956Y668815D01*
X332460Y667777D01*
X334377Y665860D01*
X335415Y663356D01*
X335415Y660644D01*
X334377Y658140D01*
X332460Y656223D01*
X329956Y655185D01*
X327244Y655185D01*
G37*
%LPD*%
%LPC*%
G36*
X307244Y655185D02*
X307244Y655185D01*
X304740Y656223D01*
X302823Y658140D01*
X301785Y660644D01*
X301785Y663356D01*
X302823Y665860D01*
X304740Y667777D01*
X307244Y668815D01*
X309956Y668815D01*
X312460Y667777D01*
X314377Y665860D01*
X315415Y663356D01*
X315415Y660644D01*
X314377Y658140D01*
X312460Y656223D01*
X309956Y655185D01*
X307244Y655185D01*
G37*
%LPD*%
%LPC*%
G36*
X587244Y655185D02*
X587244Y655185D01*
X584740Y656223D01*
X582823Y658140D01*
X581785Y660644D01*
X581785Y663356D01*
X582823Y665860D01*
X584740Y667777D01*
X587244Y668815D01*
X589956Y668815D01*
X592460Y667777D01*
X594377Y665860D01*
X595415Y663356D01*
X595415Y660644D01*
X594377Y658140D01*
X592460Y656223D01*
X589956Y655185D01*
X587244Y655185D01*
G37*
%LPD*%
%LPC*%
G36*
X567244Y655185D02*
X567244Y655185D01*
X564740Y656223D01*
X562823Y658140D01*
X561785Y660644D01*
X561785Y663356D01*
X562823Y665860D01*
X564740Y667777D01*
X567244Y668815D01*
X569956Y668815D01*
X572460Y667777D01*
X574377Y665860D01*
X575415Y663356D01*
X575415Y660644D01*
X574377Y658140D01*
X572460Y656223D01*
X569956Y655185D01*
X567244Y655185D01*
G37*
%LPD*%
%LPC*%
G36*
X547244Y655185D02*
X547244Y655185D01*
X544740Y656223D01*
X542823Y658140D01*
X541785Y660644D01*
X541785Y663356D01*
X542823Y665860D01*
X544740Y667777D01*
X547244Y668815D01*
X549956Y668815D01*
X552460Y667777D01*
X554377Y665860D01*
X555415Y663356D01*
X555415Y660644D01*
X554377Y658140D01*
X552460Y656223D01*
X549956Y655185D01*
X547244Y655185D01*
G37*
%LPD*%
%LPC*%
G36*
X527244Y655185D02*
X527244Y655185D01*
X524740Y656223D01*
X522823Y658140D01*
X521785Y660644D01*
X521785Y663356D01*
X522823Y665860D01*
X524740Y667777D01*
X527244Y668815D01*
X529956Y668815D01*
X532460Y667777D01*
X534377Y665860D01*
X535415Y663356D01*
X535415Y660644D01*
X534377Y658140D01*
X532460Y656223D01*
X529956Y655185D01*
X527244Y655185D01*
G37*
%LPD*%
%LPC*%
G36*
X507244Y655185D02*
X507244Y655185D01*
X504740Y656223D01*
X502823Y658140D01*
X501785Y660644D01*
X501785Y663356D01*
X502823Y665860D01*
X504740Y667777D01*
X507244Y668815D01*
X509956Y668815D01*
X512460Y667777D01*
X514377Y665860D01*
X515415Y663356D01*
X515415Y660644D01*
X514377Y658140D01*
X512460Y656223D01*
X509956Y655185D01*
X507244Y655185D01*
G37*
%LPD*%
%LPC*%
G36*
X487244Y655185D02*
X487244Y655185D01*
X484740Y656223D01*
X482823Y658140D01*
X481785Y660644D01*
X481785Y663356D01*
X482823Y665860D01*
X484740Y667777D01*
X487244Y668815D01*
X489956Y668815D01*
X492460Y667777D01*
X494377Y665860D01*
X495415Y663356D01*
X495415Y660644D01*
X494377Y658140D01*
X492460Y656223D01*
X489956Y655185D01*
X487244Y655185D01*
G37*
%LPD*%
%LPC*%
G36*
X467244Y655185D02*
X467244Y655185D01*
X464740Y656223D01*
X462823Y658140D01*
X461785Y660644D01*
X461785Y663356D01*
X462823Y665860D01*
X464740Y667777D01*
X467244Y668815D01*
X469956Y668815D01*
X472460Y667777D01*
X474377Y665860D01*
X475415Y663356D01*
X475415Y660644D01*
X474377Y658140D01*
X472460Y656223D01*
X469956Y655185D01*
X467244Y655185D01*
G37*
%LPD*%
%LPC*%
G36*
X447244Y655185D02*
X447244Y655185D01*
X444740Y656223D01*
X442823Y658140D01*
X441785Y660644D01*
X441785Y663356D01*
X442823Y665860D01*
X444740Y667777D01*
X447244Y668815D01*
X449956Y668815D01*
X452460Y667777D01*
X454377Y665860D01*
X455415Y663356D01*
X455415Y660644D01*
X454377Y658140D01*
X452460Y656223D01*
X449956Y655185D01*
X447244Y655185D01*
G37*
%LPD*%
%LPC*%
G36*
X427244Y655185D02*
X427244Y655185D01*
X424740Y656223D01*
X422823Y658140D01*
X421785Y660644D01*
X421785Y663356D01*
X422823Y665860D01*
X424740Y667777D01*
X427244Y668815D01*
X429956Y668815D01*
X432460Y667777D01*
X434377Y665860D01*
X435415Y663356D01*
X435415Y660644D01*
X434377Y658140D01*
X432460Y656223D01*
X429956Y655185D01*
X427244Y655185D01*
G37*
%LPD*%
%LPC*%
G36*
X407244Y655185D02*
X407244Y655185D01*
X404740Y656223D01*
X402823Y658140D01*
X401785Y660644D01*
X401785Y663356D01*
X402823Y665860D01*
X404740Y667777D01*
X407244Y668815D01*
X409956Y668815D01*
X412460Y667777D01*
X414377Y665860D01*
X415415Y663356D01*
X415415Y660644D01*
X414377Y658140D01*
X412460Y656223D01*
X409956Y655185D01*
X407244Y655185D01*
G37*
%LPD*%
%LPC*%
G36*
X387244Y655185D02*
X387244Y655185D01*
X384740Y656223D01*
X382823Y658140D01*
X381785Y660644D01*
X381785Y663356D01*
X382823Y665860D01*
X384740Y667777D01*
X387244Y668815D01*
X389956Y668815D01*
X392460Y667777D01*
X394377Y665860D01*
X395415Y663356D01*
X395415Y660644D01*
X394377Y658140D01*
X392460Y656223D01*
X389956Y655185D01*
X387244Y655185D01*
G37*
%LPD*%
%LPC*%
G36*
X367244Y655185D02*
X367244Y655185D01*
X364740Y656223D01*
X362823Y658140D01*
X361785Y660644D01*
X361785Y663356D01*
X362823Y665860D01*
X364740Y667777D01*
X367244Y668815D01*
X369956Y668815D01*
X372460Y667777D01*
X374377Y665860D01*
X375415Y663356D01*
X375415Y660644D01*
X374377Y658140D01*
X372460Y656223D01*
X369956Y655185D01*
X367244Y655185D01*
G37*
%LPD*%
%LPC*%
G36*
X347244Y655185D02*
X347244Y655185D01*
X344740Y656223D01*
X342823Y658140D01*
X341785Y660644D01*
X341785Y663356D01*
X342823Y665860D01*
X344740Y667777D01*
X347244Y668815D01*
X349956Y668815D01*
X352460Y667777D01*
X354377Y665860D01*
X355415Y663356D01*
X355415Y660644D01*
X354377Y658140D01*
X352460Y656223D01*
X349956Y655185D01*
X347244Y655185D01*
G37*
%LPD*%
%LPC*%
G36*
X287244Y655185D02*
X287244Y655185D01*
X284740Y656223D01*
X282823Y658140D01*
X281785Y660644D01*
X281785Y663356D01*
X282823Y665860D01*
X284740Y667777D01*
X287244Y668815D01*
X289956Y668815D01*
X292460Y667777D01*
X294377Y665860D01*
X295415Y663356D01*
X295415Y660644D01*
X294377Y658140D01*
X292460Y656223D01*
X289956Y655185D01*
X287244Y655185D01*
G37*
%LPD*%
%LPC*%
G36*
X427244Y70985D02*
X427244Y70985D01*
X424740Y72023D01*
X422823Y73940D01*
X421785Y76444D01*
X421785Y79156D01*
X422823Y81660D01*
X424740Y83577D01*
X427244Y84615D01*
X429956Y84615D01*
X432460Y83577D01*
X434377Y81660D01*
X435415Y79156D01*
X435415Y76444D01*
X434377Y73940D01*
X432460Y72023D01*
X429956Y70985D01*
X427244Y70985D01*
G37*
%LPD*%
%LPC*%
G36*
X347244Y70985D02*
X347244Y70985D01*
X344740Y72023D01*
X342823Y73940D01*
X341785Y76444D01*
X341785Y79156D01*
X342823Y81660D01*
X344740Y83577D01*
X347244Y84615D01*
X349956Y84615D01*
X352460Y83577D01*
X354377Y81660D01*
X355415Y79156D01*
X355415Y76444D01*
X354377Y73940D01*
X352460Y72023D01*
X349956Y70985D01*
X347244Y70985D01*
G37*
%LPD*%
%LPC*%
G36*
X307244Y70985D02*
X307244Y70985D01*
X304740Y72023D01*
X302823Y73940D01*
X301785Y76444D01*
X301785Y79156D01*
X302823Y81660D01*
X304740Y83577D01*
X307244Y84615D01*
X309956Y84615D01*
X312460Y83577D01*
X314377Y81660D01*
X315415Y79156D01*
X315415Y76444D01*
X314377Y73940D01*
X312460Y72023D01*
X309956Y70985D01*
X307244Y70985D01*
G37*
%LPD*%
%LPC*%
G36*
X587244Y70985D02*
X587244Y70985D01*
X584740Y72023D01*
X582823Y73940D01*
X581785Y76444D01*
X581785Y79156D01*
X582823Y81660D01*
X584740Y83577D01*
X587244Y84615D01*
X589956Y84615D01*
X592460Y83577D01*
X594377Y81660D01*
X595415Y79156D01*
X595415Y76444D01*
X594377Y73940D01*
X592460Y72023D01*
X589956Y70985D01*
X587244Y70985D01*
G37*
%LPD*%
%LPC*%
G36*
X547244Y70985D02*
X547244Y70985D01*
X544740Y72023D01*
X542823Y73940D01*
X541785Y76444D01*
X541785Y79156D01*
X542823Y81660D01*
X544740Y83577D01*
X547244Y84615D01*
X549956Y84615D01*
X552460Y83577D01*
X554377Y81660D01*
X555415Y79156D01*
X555415Y76444D01*
X554377Y73940D01*
X552460Y72023D01*
X549956Y70985D01*
X547244Y70985D01*
G37*
%LPD*%
%LPC*%
G36*
X507244Y70985D02*
X507244Y70985D01*
X504740Y72023D01*
X502823Y73940D01*
X501785Y76444D01*
X501785Y79156D01*
X502823Y81660D01*
X504740Y83577D01*
X507244Y84615D01*
X509956Y84615D01*
X512460Y83577D01*
X514377Y81660D01*
X515415Y79156D01*
X515415Y76444D01*
X514377Y73940D01*
X512460Y72023D01*
X509956Y70985D01*
X507244Y70985D01*
G37*
%LPD*%
%LPC*%
G36*
X467244Y70985D02*
X467244Y70985D01*
X464740Y72023D01*
X462823Y73940D01*
X461785Y76444D01*
X461785Y79156D01*
X462823Y81660D01*
X464740Y83577D01*
X467244Y84615D01*
X469956Y84615D01*
X472460Y83577D01*
X474377Y81660D01*
X475415Y79156D01*
X475415Y76444D01*
X474377Y73940D01*
X472460Y72023D01*
X469956Y70985D01*
X467244Y70985D01*
G37*
%LPD*%
%LPC*%
G36*
X387244Y70985D02*
X387244Y70985D01*
X384740Y72023D01*
X382823Y73940D01*
X381785Y76444D01*
X381785Y79156D01*
X382823Y81660D01*
X384740Y83577D01*
X387244Y84615D01*
X389956Y84615D01*
X392460Y83577D01*
X394377Y81660D01*
X395415Y79156D01*
X395415Y76444D01*
X394377Y73940D01*
X392460Y72023D01*
X389956Y70985D01*
X387244Y70985D01*
G37*
%LPD*%
%LPC*%
G36*
X341788Y578611D02*
X341788Y578611D01*
X339734Y579462D01*
X338162Y581034D01*
X337311Y583088D01*
X337311Y585312D01*
X338162Y587366D01*
X339734Y588938D01*
X341788Y589789D01*
X344012Y589789D01*
X346066Y588938D01*
X347638Y587366D01*
X348489Y585312D01*
X348489Y583088D01*
X347638Y581034D01*
X346066Y579462D01*
X344012Y578611D01*
X341788Y578611D01*
G37*
%LPD*%
%LPC*%
G36*
X570388Y578611D02*
X570388Y578611D01*
X568334Y579462D01*
X566762Y581034D01*
X565911Y583088D01*
X565911Y585312D01*
X566762Y587366D01*
X568334Y588938D01*
X570388Y589789D01*
X572612Y589789D01*
X574666Y588938D01*
X576238Y587366D01*
X577089Y585312D01*
X577089Y583088D01*
X576238Y581034D01*
X574666Y579462D01*
X572612Y578611D01*
X570388Y578611D01*
G37*
%LPD*%
%LPC*%
G36*
X532288Y578611D02*
X532288Y578611D01*
X530234Y579462D01*
X528662Y581034D01*
X527811Y583088D01*
X527811Y585312D01*
X528662Y587366D01*
X530234Y588938D01*
X532288Y589789D01*
X534512Y589789D01*
X536566Y588938D01*
X538138Y587366D01*
X538989Y585312D01*
X538989Y583088D01*
X538138Y581034D01*
X536566Y579462D01*
X534512Y578611D01*
X532288Y578611D01*
G37*
%LPD*%
%LPC*%
G36*
X494188Y578611D02*
X494188Y578611D01*
X492134Y579462D01*
X490562Y581034D01*
X489711Y583088D01*
X489711Y585312D01*
X490562Y587366D01*
X492134Y588938D01*
X494188Y589789D01*
X496412Y589789D01*
X498466Y588938D01*
X500038Y587366D01*
X500889Y585312D01*
X500889Y583088D01*
X500038Y581034D01*
X498466Y579462D01*
X496412Y578611D01*
X494188Y578611D01*
G37*
%LPD*%
%LPC*%
G36*
X456088Y578611D02*
X456088Y578611D01*
X454034Y579462D01*
X452462Y581034D01*
X451611Y583088D01*
X451611Y585312D01*
X452462Y587366D01*
X454034Y588938D01*
X456088Y589789D01*
X458312Y589789D01*
X460366Y588938D01*
X461938Y587366D01*
X462789Y585312D01*
X462789Y583088D01*
X461938Y581034D01*
X460366Y579462D01*
X458312Y578611D01*
X456088Y578611D01*
G37*
%LPD*%
%LPC*%
G36*
X417988Y578611D02*
X417988Y578611D01*
X415934Y579462D01*
X414362Y581034D01*
X413511Y583088D01*
X413511Y585312D01*
X414362Y587366D01*
X415934Y588938D01*
X417988Y589789D01*
X420212Y589789D01*
X422266Y588938D01*
X423838Y587366D01*
X424689Y585312D01*
X424689Y583088D01*
X423838Y581034D01*
X422266Y579462D01*
X420212Y578611D01*
X417988Y578611D01*
G37*
%LPD*%
%LPC*%
G36*
X760888Y45211D02*
X760888Y45211D01*
X758834Y46062D01*
X757262Y47634D01*
X756411Y49688D01*
X756411Y51912D01*
X757262Y53966D01*
X758834Y55538D01*
X760888Y56389D01*
X763112Y56389D01*
X765166Y55538D01*
X766738Y53966D01*
X767589Y51912D01*
X767589Y49688D01*
X766738Y47634D01*
X765166Y46062D01*
X763112Y45211D01*
X760888Y45211D01*
G37*
%LPD*%
%LPC*%
G36*
X379888Y578611D02*
X379888Y578611D01*
X377834Y579462D01*
X376262Y581034D01*
X375411Y583088D01*
X375411Y585312D01*
X376262Y587366D01*
X377834Y588938D01*
X379888Y589789D01*
X382112Y589789D01*
X384166Y588938D01*
X385738Y587366D01*
X386589Y585312D01*
X386589Y583088D01*
X385738Y581034D01*
X384166Y579462D01*
X382112Y578611D01*
X379888Y578611D01*
G37*
%LPD*%
%LPC*%
G36*
X214788Y616711D02*
X214788Y616711D01*
X212734Y617562D01*
X211162Y619134D01*
X210311Y621188D01*
X210311Y623412D01*
X211162Y625466D01*
X212734Y627038D01*
X214788Y627889D01*
X217012Y627889D01*
X219066Y627038D01*
X220638Y625466D01*
X221489Y623412D01*
X221489Y621188D01*
X220638Y619134D01*
X219066Y617562D01*
X217012Y616711D01*
X214788Y616711D01*
G37*
%LPD*%
%LPC*%
G36*
X303688Y578611D02*
X303688Y578611D01*
X301634Y579462D01*
X300062Y581034D01*
X299211Y583088D01*
X299211Y585312D01*
X300062Y587366D01*
X301634Y588938D01*
X303688Y589789D01*
X305912Y589789D01*
X307966Y588938D01*
X309538Y587366D01*
X310389Y585312D01*
X310389Y583088D01*
X309538Y581034D01*
X307966Y579462D01*
X305912Y578611D01*
X303688Y578611D01*
G37*
%LPD*%
%LPC*%
G36*
X488523Y486923D02*
X488523Y486923D01*
X488523Y494032D01*
X489556Y493827D01*
X491151Y493166D01*
X492587Y492207D01*
X493807Y490987D01*
X494766Y489551D01*
X495427Y487956D01*
X495632Y486923D01*
X488523Y486923D01*
G37*
%LPD*%
%LPC*%
G36*
X615523Y258323D02*
X615523Y258323D01*
X615523Y265432D01*
X616556Y265227D01*
X618151Y264566D01*
X619587Y263607D01*
X620807Y262387D01*
X621766Y260951D01*
X622427Y259356D01*
X622632Y258323D01*
X615523Y258323D01*
G37*
%LPD*%
%LPC*%
G36*
X615523Y255277D02*
X615523Y255277D01*
X622632Y255277D01*
X622427Y254244D01*
X621766Y252649D01*
X620807Y251213D01*
X619587Y249993D01*
X618151Y249034D01*
X616556Y248373D01*
X615523Y248168D01*
X615523Y255277D01*
G37*
%LPD*%
%LPC*%
G36*
X605368Y258323D02*
X605368Y258323D01*
X605573Y259356D01*
X606234Y260951D01*
X607193Y262387D01*
X608413Y263607D01*
X609849Y264566D01*
X611444Y265227D01*
X612477Y265432D01*
X612477Y258323D01*
X605368Y258323D01*
G37*
%LPD*%
%LPC*%
G36*
X488523Y483877D02*
X488523Y483877D01*
X495632Y483877D01*
X495427Y482844D01*
X494766Y481249D01*
X493807Y479813D01*
X492587Y478593D01*
X491151Y477634D01*
X489556Y476973D01*
X488523Y476768D01*
X488523Y483877D01*
G37*
%LPD*%
%LPC*%
G36*
X478368Y486923D02*
X478368Y486923D01*
X478573Y487956D01*
X479234Y489551D01*
X480193Y490987D01*
X481413Y492207D01*
X482849Y493166D01*
X484444Y493827D01*
X485477Y494032D01*
X485477Y486923D01*
X478368Y486923D01*
G37*
%LPD*%
%LPC*%
G36*
X611444Y248373D02*
X611444Y248373D01*
X609849Y249034D01*
X608413Y249993D01*
X607193Y251213D01*
X606234Y252649D01*
X605573Y254244D01*
X605368Y255277D01*
X612477Y255277D01*
X612477Y248168D01*
X611444Y248373D01*
G37*
%LPD*%
%LPC*%
G36*
X484444Y476973D02*
X484444Y476973D01*
X482849Y477634D01*
X481413Y478593D01*
X480193Y479813D01*
X479234Y481249D01*
X478573Y482844D01*
X478368Y483877D01*
X485477Y483877D01*
X485477Y476768D01*
X484444Y476973D01*
G37*
%LPD*%
%LPC*%
G36*
X569974Y79174D02*
X569974Y79174D01*
X569974Y84475D01*
X570588Y84353D01*
X571828Y83839D01*
X572944Y83093D01*
X573893Y82144D01*
X574639Y81028D01*
X575153Y79788D01*
X575275Y79174D01*
X569974Y79174D01*
G37*
%LPD*%
%LPC*%
G36*
X289974Y79174D02*
X289974Y79174D01*
X289974Y84475D01*
X290588Y84353D01*
X291828Y83839D01*
X292944Y83093D01*
X293893Y82144D01*
X294639Y81028D01*
X295153Y79788D01*
X295275Y79174D01*
X289974Y79174D01*
G37*
%LPD*%
%LPC*%
G36*
X329974Y79174D02*
X329974Y79174D01*
X329974Y84475D01*
X330588Y84353D01*
X331828Y83839D01*
X332944Y83093D01*
X333893Y82144D01*
X334639Y81028D01*
X335153Y79788D01*
X335275Y79174D01*
X329974Y79174D01*
G37*
%LPD*%
%LPC*%
G36*
X369974Y79174D02*
X369974Y79174D01*
X369974Y84475D01*
X370588Y84353D01*
X371828Y83839D01*
X372944Y83093D01*
X373893Y82144D01*
X374639Y81028D01*
X375153Y79788D01*
X375275Y79174D01*
X369974Y79174D01*
G37*
%LPD*%
%LPC*%
G36*
X409974Y79174D02*
X409974Y79174D01*
X409974Y84475D01*
X410588Y84353D01*
X411828Y83839D01*
X412944Y83093D01*
X413893Y82144D01*
X414639Y81028D01*
X415153Y79788D01*
X415275Y79174D01*
X409974Y79174D01*
G37*
%LPD*%
%LPC*%
G36*
X449974Y79174D02*
X449974Y79174D01*
X449974Y84475D01*
X450588Y84353D01*
X451828Y83839D01*
X452944Y83093D01*
X453893Y82144D01*
X454639Y81028D01*
X455153Y79788D01*
X455275Y79174D01*
X449974Y79174D01*
G37*
%LPD*%
%LPC*%
G36*
X489974Y79174D02*
X489974Y79174D01*
X489974Y84475D01*
X490588Y84353D01*
X491828Y83839D01*
X492944Y83093D01*
X493893Y82144D01*
X494639Y81028D01*
X495153Y79788D01*
X495275Y79174D01*
X489974Y79174D01*
G37*
%LPD*%
%LPC*%
G36*
X529974Y79174D02*
X529974Y79174D01*
X529974Y84475D01*
X530588Y84353D01*
X531828Y83839D01*
X532944Y83093D01*
X533893Y82144D01*
X534639Y81028D01*
X535153Y79788D01*
X535275Y79174D01*
X529974Y79174D01*
G37*
%LPD*%
%LPC*%
G36*
X529974Y76426D02*
X529974Y76426D01*
X535275Y76426D01*
X535153Y75812D01*
X534639Y74572D01*
X534100Y73766D01*
X533893Y73456D01*
X532944Y72507D01*
X531828Y71761D01*
X530588Y71247D01*
X529974Y71125D01*
X529974Y76426D01*
G37*
%LPD*%
%LPC*%
G36*
X489974Y76426D02*
X489974Y76426D01*
X495275Y76426D01*
X495153Y75812D01*
X494639Y74572D01*
X494100Y73766D01*
X493893Y73456D01*
X492944Y72507D01*
X491828Y71761D01*
X490588Y71247D01*
X489974Y71125D01*
X489974Y76426D01*
G37*
%LPD*%
%LPC*%
G36*
X449974Y76426D02*
X449974Y76426D01*
X455275Y76426D01*
X455153Y75812D01*
X454639Y74572D01*
X454100Y73766D01*
X453893Y73456D01*
X452944Y72507D01*
X451828Y71761D01*
X450588Y71247D01*
X449974Y71125D01*
X449974Y76426D01*
G37*
%LPD*%
%LPC*%
G36*
X409974Y76426D02*
X409974Y76426D01*
X415275Y76426D01*
X415153Y75812D01*
X414639Y74572D01*
X414100Y73766D01*
X413893Y73456D01*
X412944Y72507D01*
X411828Y71761D01*
X410588Y71247D01*
X409974Y71125D01*
X409974Y76426D01*
G37*
%LPD*%
%LPC*%
G36*
X569974Y76426D02*
X569974Y76426D01*
X575275Y76426D01*
X575153Y75812D01*
X574639Y74572D01*
X574100Y73766D01*
X573893Y73456D01*
X572944Y72507D01*
X571828Y71761D01*
X570588Y71247D01*
X569974Y71125D01*
X569974Y76426D01*
G37*
%LPD*%
%LPC*%
G36*
X369974Y76426D02*
X369974Y76426D01*
X375275Y76426D01*
X375153Y75812D01*
X374639Y74572D01*
X374100Y73766D01*
X373893Y73456D01*
X372944Y72507D01*
X371828Y71761D01*
X370588Y71247D01*
X369974Y71125D01*
X369974Y76426D01*
G37*
%LPD*%
%LPC*%
G36*
X329974Y76426D02*
X329974Y76426D01*
X335275Y76426D01*
X335153Y75812D01*
X334639Y74572D01*
X334100Y73766D01*
X333893Y73456D01*
X332944Y72507D01*
X331828Y71761D01*
X330588Y71247D01*
X329974Y71125D01*
X329974Y76426D01*
G37*
%LPD*%
%LPC*%
G36*
X289974Y76426D02*
X289974Y76426D01*
X295275Y76426D01*
X295153Y75812D01*
X294639Y74572D01*
X294100Y73766D01*
X293893Y73456D01*
X292944Y72507D01*
X291828Y71761D01*
X290588Y71247D01*
X289974Y71125D01*
X289974Y76426D01*
G37*
%LPD*%
%LPC*%
G36*
X561925Y79174D02*
X561925Y79174D01*
X562047Y79788D01*
X562561Y81028D01*
X563240Y82045D01*
X563307Y82144D01*
X564256Y83093D01*
X565372Y83839D01*
X566612Y84353D01*
X567226Y84475D01*
X567226Y79174D01*
X561925Y79174D01*
G37*
%LPD*%
%LPC*%
G36*
X281925Y79174D02*
X281925Y79174D01*
X282047Y79788D01*
X282561Y81028D01*
X283240Y82045D01*
X283307Y82144D01*
X284256Y83093D01*
X285372Y83839D01*
X286612Y84353D01*
X287226Y84475D01*
X287226Y79174D01*
X281925Y79174D01*
G37*
%LPD*%
%LPC*%
G36*
X321925Y79174D02*
X321925Y79174D01*
X322047Y79788D01*
X322561Y81028D01*
X323240Y82045D01*
X323307Y82144D01*
X324256Y83093D01*
X325372Y83839D01*
X326612Y84353D01*
X327226Y84475D01*
X327226Y79174D01*
X321925Y79174D01*
G37*
%LPD*%
%LPC*%
G36*
X361925Y79174D02*
X361925Y79174D01*
X362047Y79788D01*
X362561Y81028D01*
X363240Y82045D01*
X363307Y82144D01*
X364256Y83093D01*
X365372Y83839D01*
X366612Y84353D01*
X367226Y84475D01*
X367226Y79174D01*
X361925Y79174D01*
G37*
%LPD*%
%LPC*%
G36*
X401925Y79174D02*
X401925Y79174D01*
X402047Y79788D01*
X402561Y81028D01*
X403240Y82045D01*
X403307Y82144D01*
X404256Y83093D01*
X405372Y83839D01*
X406612Y84353D01*
X407226Y84475D01*
X407226Y79174D01*
X401925Y79174D01*
G37*
%LPD*%
%LPC*%
G36*
X441925Y79174D02*
X441925Y79174D01*
X442047Y79788D01*
X442561Y81028D01*
X443240Y82045D01*
X443307Y82144D01*
X444256Y83093D01*
X445372Y83839D01*
X446612Y84353D01*
X447226Y84475D01*
X447226Y79174D01*
X441925Y79174D01*
G37*
%LPD*%
%LPC*%
G36*
X481925Y79174D02*
X481925Y79174D01*
X482047Y79788D01*
X482561Y81028D01*
X483240Y82045D01*
X483307Y82144D01*
X484256Y83093D01*
X485372Y83839D01*
X486612Y84353D01*
X487226Y84475D01*
X487226Y79174D01*
X481925Y79174D01*
G37*
%LPD*%
%LPC*%
G36*
X521925Y79174D02*
X521925Y79174D01*
X522047Y79788D01*
X522561Y81028D01*
X523240Y82045D01*
X523307Y82144D01*
X524256Y83093D01*
X525372Y83839D01*
X526612Y84353D01*
X527226Y84475D01*
X527226Y79174D01*
X521925Y79174D01*
G37*
%LPD*%
%LPC*%
G36*
X566612Y71247D02*
X566612Y71247D01*
X565372Y71761D01*
X564256Y72507D01*
X563307Y73456D01*
X562561Y74572D01*
X562047Y75812D01*
X561925Y76426D01*
X567226Y76426D01*
X567226Y71125D01*
X566612Y71247D01*
G37*
%LPD*%
%LPC*%
G36*
X486612Y71247D02*
X486612Y71247D01*
X485372Y71761D01*
X484256Y72507D01*
X483307Y73456D01*
X482561Y74572D01*
X482047Y75812D01*
X481925Y76426D01*
X487226Y76426D01*
X487226Y71125D01*
X486612Y71247D01*
G37*
%LPD*%
%LPC*%
G36*
X366612Y71247D02*
X366612Y71247D01*
X365372Y71761D01*
X364256Y72507D01*
X363307Y73456D01*
X362561Y74572D01*
X362047Y75812D01*
X361925Y76426D01*
X367226Y76426D01*
X367226Y71125D01*
X366612Y71247D01*
G37*
%LPD*%
%LPC*%
G36*
X406612Y71247D02*
X406612Y71247D01*
X405372Y71761D01*
X404256Y72507D01*
X403307Y73456D01*
X402561Y74572D01*
X402047Y75812D01*
X401925Y76426D01*
X407226Y76426D01*
X407226Y71125D01*
X406612Y71247D01*
G37*
%LPD*%
%LPC*%
G36*
X326612Y71247D02*
X326612Y71247D01*
X325372Y71761D01*
X324256Y72507D01*
X323307Y73456D01*
X322561Y74572D01*
X322047Y75812D01*
X321925Y76426D01*
X327226Y76426D01*
X327226Y71125D01*
X326612Y71247D01*
G37*
%LPD*%
%LPC*%
G36*
X446612Y71247D02*
X446612Y71247D01*
X445372Y71761D01*
X444256Y72507D01*
X443307Y73456D01*
X442561Y74572D01*
X442047Y75812D01*
X441925Y76426D01*
X447226Y76426D01*
X447226Y71125D01*
X446612Y71247D01*
G37*
%LPD*%
%LPC*%
G36*
X286612Y71247D02*
X286612Y71247D01*
X285372Y71761D01*
X284256Y72507D01*
X283307Y73456D01*
X282561Y74572D01*
X282047Y75812D01*
X281925Y76426D01*
X287226Y76426D01*
X287226Y71125D01*
X286612Y71247D01*
G37*
%LPD*%
%LPC*%
G36*
X526612Y71247D02*
X526612Y71247D01*
X525372Y71761D01*
X524256Y72507D01*
X523307Y73456D01*
X522561Y74572D01*
X522047Y75812D01*
X521925Y76426D01*
X527226Y76426D01*
X527226Y71125D01*
X526612Y71247D01*
G37*
%LPD*%
%LPC*%
G36*
X486999Y485399D02*
X486999Y485399D01*
X486999Y485401D01*
X487001Y485401D01*
X487001Y485399D01*
X486999Y485399D01*
G37*
%LPD*%
%LPC*%
G36*
X613999Y256799D02*
X613999Y256799D01*
X613999Y256801D01*
X614001Y256801D01*
X614001Y256799D01*
X613999Y256799D01*
G37*
%LPD*%
D10*
X766400Y510800D03*
X766400Y485400D03*
X741000Y510800D03*
X741000Y485400D03*
X715600Y510800D03*
X715600Y485400D03*
X690200Y510800D03*
X690200Y485400D03*
X664800Y510800D03*
X664800Y485400D03*
X639400Y510800D03*
X639400Y485400D03*
X614000Y510800D03*
X614000Y485400D03*
X588600Y510800D03*
X588600Y485400D03*
X563200Y510800D03*
X563200Y485400D03*
X537800Y510800D03*
X537800Y485400D03*
X512400Y510800D03*
X512400Y485400D03*
X487000Y510800D03*
X487000Y485400D03*
X461600Y510800D03*
X461600Y485400D03*
X436200Y510800D03*
X436200Y485400D03*
X410800Y510800D03*
X410800Y485400D03*
X385400Y510800D03*
X385400Y485400D03*
X360000Y510800D03*
X360000Y485400D03*
X334600Y510800D03*
X334600Y485400D03*
X766400Y256800D03*
X766400Y231400D03*
X741000Y256800D03*
X741000Y231400D03*
X715600Y256800D03*
X715600Y231400D03*
X690200Y256800D03*
X690200Y231400D03*
X664800Y256800D03*
X664800Y231400D03*
X639400Y256800D03*
X639400Y231400D03*
X614000Y256800D03*
X614000Y231400D03*
X588600Y256800D03*
X588600Y231400D03*
X563200Y256800D03*
X563200Y231400D03*
X537800Y256800D03*
X537800Y231400D03*
X512400Y256800D03*
X512400Y231400D03*
X487000Y256800D03*
X487000Y231400D03*
X461600Y256800D03*
X461600Y231400D03*
X436200Y256800D03*
X436200Y231400D03*
X410800Y256800D03*
X410800Y231400D03*
X385400Y256800D03*
X385400Y231400D03*
X360000Y256800D03*
X360000Y231400D03*
X334600Y256800D03*
X334600Y231400D03*
D11*
X288600Y77800D03*
X308600Y77800D03*
X328600Y77800D03*
X348600Y77800D03*
X368600Y77800D03*
X388600Y77800D03*
X408600Y77800D03*
X428600Y77800D03*
X448600Y77800D03*
X468600Y77800D03*
X488600Y77800D03*
X508600Y77800D03*
X528600Y77800D03*
X548600Y77800D03*
X568600Y77800D03*
X588600Y77800D03*
X288600Y662000D03*
X308600Y662000D03*
X328600Y662000D03*
X348600Y662000D03*
X368600Y662000D03*
X388600Y662000D03*
X408600Y662000D03*
X428600Y662000D03*
X448600Y662000D03*
X468600Y662000D03*
X488600Y662000D03*
X508600Y662000D03*
X528600Y662000D03*
X548600Y662000D03*
X568600Y662000D03*
X588600Y662000D03*
D12*
X660800Y76200D03*
X710800Y76200D03*
D13*
X812800Y50800D03*
X812800Y711200D03*
X50800Y50800D03*
X50800Y711200D03*
D14*
X215900Y622300D03*
X304800Y584200D03*
X342900Y584200D03*
X381000Y584200D03*
X419100Y584200D03*
X457200Y584200D03*
X495300Y584200D03*
X533400Y584200D03*
X571500Y584200D03*
X762000Y50800D03*
X215900Y711200D03*
M02*
