G04 EAGLE Gerber RS-274X export*
G75*
%MOMM*%
%FSLAX34Y34*%
%LPD*%
%INTop Copper*%
%IPPOS*%
%AMOC8*
5,1,8,0,0,1.08239X$1,22.5*%
G01*
%ADD10R,1.524000X1.524000*%
%ADD11P,1.649562X8X202.500000*%
%ADD12R,0.854800X0.854800*%
%ADD13R,1.031241X0.949959*%
%ADD14C,2.540000*%
%ADD15C,4.445000*%
%ADD16C,1.016000*%
%ADD17C,0.381000*%
%ADD18C,0.609600*%
%ADD19C,0.254000*%


D10*
X766400Y510800D03*
D11*
X766400Y485400D03*
X741000Y510800D03*
X741000Y485400D03*
X715600Y510800D03*
X715600Y485400D03*
X690200Y510800D03*
X690200Y485400D03*
X664800Y510800D03*
X664800Y485400D03*
X639400Y510800D03*
X639400Y485400D03*
X614000Y510800D03*
X614000Y485400D03*
X588600Y510800D03*
X588600Y485400D03*
X563200Y510800D03*
X563200Y485400D03*
X537800Y510800D03*
X537800Y485400D03*
X512400Y510800D03*
X512400Y485400D03*
X487000Y510800D03*
X487000Y485400D03*
X461600Y510800D03*
X461600Y485400D03*
X436200Y510800D03*
X436200Y485400D03*
X410800Y510800D03*
X410800Y485400D03*
X385400Y510800D03*
X385400Y485400D03*
X360000Y510800D03*
X360000Y485400D03*
X334600Y510800D03*
X334600Y485400D03*
D10*
X766400Y256800D03*
D11*
X766400Y231400D03*
X741000Y256800D03*
X741000Y231400D03*
X715600Y256800D03*
X715600Y231400D03*
X690200Y256800D03*
X690200Y231400D03*
X664800Y256800D03*
X664800Y231400D03*
X639400Y256800D03*
X639400Y231400D03*
X614000Y256800D03*
X614000Y231400D03*
X588600Y256800D03*
X588600Y231400D03*
X563200Y256800D03*
X563200Y231400D03*
X537800Y256800D03*
X537800Y231400D03*
X512400Y256800D03*
X512400Y231400D03*
X487000Y256800D03*
X487000Y231400D03*
X461600Y256800D03*
X461600Y231400D03*
X436200Y256800D03*
X436200Y231400D03*
X410800Y256800D03*
X410800Y231400D03*
X385400Y256800D03*
X385400Y231400D03*
X360000Y256800D03*
X360000Y231400D03*
X334600Y256800D03*
X334600Y231400D03*
D12*
X288600Y77800D03*
X308600Y77800D03*
X328600Y77800D03*
X348600Y77800D03*
X368600Y77800D03*
X388600Y77800D03*
X408600Y77800D03*
X428600Y77800D03*
X448600Y77800D03*
X468600Y77800D03*
X488600Y77800D03*
X508600Y77800D03*
X528600Y77800D03*
X548600Y77800D03*
X568600Y77800D03*
X588600Y77800D03*
X288600Y662000D03*
X308600Y662000D03*
X328600Y662000D03*
X348600Y662000D03*
X368600Y662000D03*
X388600Y662000D03*
X408600Y662000D03*
X428600Y662000D03*
X448600Y662000D03*
X468600Y662000D03*
X488600Y662000D03*
X508600Y662000D03*
X528600Y662000D03*
X548600Y662000D03*
X568600Y662000D03*
X588600Y662000D03*
D13*
X342900Y617601D03*
X342900Y601599D03*
X381000Y617601D03*
X381000Y601599D03*
X419100Y617601D03*
X419100Y601599D03*
X457200Y617601D03*
X457200Y601599D03*
X495300Y617601D03*
X495300Y601599D03*
X533400Y617601D03*
X533400Y601599D03*
X571500Y617601D03*
X571500Y601599D03*
X304800Y617601D03*
X304800Y601599D03*
D14*
X660800Y76200D03*
X710800Y76200D03*
D13*
X215900Y655701D03*
X215900Y639699D03*
X215900Y693801D03*
X215900Y677799D03*
D15*
X812800Y50800D03*
X812800Y711200D03*
X50800Y50800D03*
X50800Y711200D03*
D16*
X50800Y660400D03*
X50800Y101600D03*
X812800Y101600D03*
D17*
X215900Y622300D02*
X215900Y639699D01*
D18*
X215900Y622300D03*
D17*
X304800Y601599D02*
X304800Y584200D01*
D18*
X304800Y584200D03*
D17*
X342900Y584200D02*
X342900Y601599D01*
D18*
X342900Y584200D03*
D17*
X381000Y584200D02*
X381000Y601599D01*
D18*
X381000Y584200D03*
D17*
X419100Y584200D02*
X419100Y601599D01*
D18*
X419100Y584200D03*
D17*
X457200Y584200D02*
X457200Y601599D01*
D18*
X457200Y584200D03*
D17*
X495300Y584200D02*
X495300Y601599D01*
D18*
X495300Y584200D03*
D17*
X533400Y584200D02*
X533400Y601599D01*
D18*
X533400Y584200D03*
D17*
X571500Y584200D02*
X571500Y601599D01*
D18*
X571500Y584200D03*
D17*
X736600Y76200D02*
X762000Y50800D01*
X736600Y76200D02*
X710800Y76200D01*
D18*
X762000Y50800D03*
D17*
X215900Y693801D02*
X215900Y711200D01*
D18*
X215900Y711200D03*
D19*
X683460Y98860D02*
X660800Y76200D01*
X704170Y236135D02*
X710866Y242830D01*
X704170Y219970D02*
X683460Y199260D01*
X727030Y242830D02*
X741000Y256800D01*
X704170Y236135D02*
X704170Y219970D01*
X710866Y242830D02*
X727030Y242830D01*
X683460Y199260D02*
X683460Y98860D01*
X308600Y621401D02*
X308600Y662000D01*
X308600Y621401D02*
X304800Y617601D01*
X294640Y617601D01*
X270320Y593281D01*
X270320Y469900D01*
X307880Y432340D01*
X500380Y432340D01*
X531860Y463820D01*
X526370Y480666D02*
X526370Y490135D01*
X537800Y501565D02*
X537800Y510800D01*
X537800Y501565D02*
X526370Y490135D01*
X531860Y475175D02*
X531860Y463820D01*
X531860Y475175D02*
X526370Y480666D01*
X348600Y623301D02*
X348600Y662000D01*
X348600Y623301D02*
X342900Y617601D01*
X330200Y617601D01*
X322044Y609445D01*
X322044Y591426D01*
X302654Y572036D01*
X302415Y572036D01*
X289370Y558991D01*
X289370Y480060D01*
X321215Y448215D01*
X477520Y448215D01*
X500970Y471665D01*
X512400Y501565D02*
X512400Y510800D01*
X500970Y490135D02*
X500970Y471665D01*
X500970Y490135D02*
X512400Y501565D01*
X388600Y625201D02*
X388600Y662000D01*
X388600Y625201D02*
X381000Y617601D01*
X365760Y617601D01*
X357604Y609445D01*
X357604Y581266D01*
X317310Y540971D01*
X317310Y480060D01*
X337725Y459645D01*
X464820Y459645D01*
X475570Y470395D01*
X487000Y501565D02*
X487000Y510800D01*
X475570Y490135D02*
X475570Y470395D01*
X475570Y490135D02*
X487000Y501565D01*
X428600Y627101D02*
X428600Y662000D01*
X428600Y627101D02*
X419100Y617601D01*
X399370Y506066D02*
X402400Y503036D01*
X402400Y502920D01*
X402516Y502920D01*
X406066Y499370D01*
X450170Y499370D01*
X461600Y510800D01*
X419100Y617601D02*
X414401Y617601D01*
X399370Y602570D01*
X399370Y506066D01*
X468600Y629001D02*
X468600Y662000D01*
X468600Y629001D02*
X457200Y617601D01*
X439801Y617601D01*
X431610Y609410D01*
X431610Y515391D01*
X436200Y510800D01*
X508600Y630901D02*
X508600Y662000D01*
X508600Y630901D02*
X495300Y617601D01*
X509461Y603441D01*
X509461Y546100D01*
X533331Y522230D01*
X542535Y522230D01*
X549230Y515535D01*
X549230Y469900D01*
X354625Y275295D01*
X345475Y275295D02*
X334600Y264420D01*
X334600Y256800D01*
X345475Y275295D02*
X354625Y275295D01*
X548600Y632801D02*
X548600Y662000D01*
X548600Y632801D02*
X533400Y617601D01*
X545021Y605981D01*
X545021Y533400D02*
X549370Y529050D01*
X752430Y499370D02*
X766400Y485400D01*
X752430Y499370D02*
X752430Y515535D01*
X738914Y529050D01*
X545021Y533400D02*
X545021Y605981D01*
X549370Y529050D02*
X738914Y529050D01*
X588600Y634701D02*
X588600Y662000D01*
X588600Y634701D02*
X571500Y617601D01*
X584391Y604711D01*
X772160Y604711D01*
X788765Y588105D01*
X788765Y340360D01*
X716635Y268230D02*
X710866Y268230D01*
X676230Y226666D02*
X669535Y219970D01*
X701630Y258995D02*
X710866Y268230D01*
X701630Y258995D02*
X701630Y252066D01*
X692395Y242830D01*
X685466Y242830D01*
X676230Y233595D01*
X676230Y226666D01*
X342900Y219970D02*
X334600Y228270D01*
X334600Y231400D01*
X716635Y268230D02*
X788765Y340360D01*
X669535Y219970D02*
X342900Y219970D01*
X215900Y655701D02*
X215900Y677799D01*
X235839Y677799D01*
X259080Y701040D01*
X274320Y701040D01*
X273050Y701040D02*
X276860Y701040D01*
X279400Y701040D01*
X314960Y701040D01*
X317500Y701040D01*
X320040Y701040D01*
X353060Y701040D01*
X355600Y701040D01*
X358140Y701040D01*
X393700Y701040D01*
X392430Y701040D02*
X396240Y701040D01*
X398780Y701040D01*
X434340Y701040D01*
X431800Y701040D02*
X436880Y701040D01*
X439420Y701040D01*
X472440Y701040D01*
X474980Y701040D02*
X466090Y701040D01*
X474980Y701040D02*
X477520Y701040D01*
X513080Y701040D01*
X515620Y701040D01*
X518160Y701040D01*
X553720Y701040D01*
X568960Y685800D02*
X568960Y662360D01*
X568600Y662000D01*
X568960Y685800D02*
X553720Y701040D01*
X528320Y685800D02*
X528320Y662280D01*
X528600Y662000D01*
X528320Y685800D02*
X518160Y695960D01*
X515620Y698500D01*
X513080Y701040D01*
X487680Y685800D02*
X487680Y662920D01*
X488600Y662000D01*
X487680Y685800D02*
X477520Y695960D01*
X474980Y698500D01*
X472440Y701040D01*
X449580Y685800D02*
X449580Y662980D01*
X448600Y662000D01*
X449580Y685800D02*
X439420Y695960D01*
X436880Y698500D01*
X434340Y701040D01*
X408940Y685800D02*
X408940Y662340D01*
X408600Y662000D01*
X408940Y685800D02*
X398780Y695960D01*
X396240Y698500D01*
X393700Y701040D01*
X368300Y685800D02*
X368300Y662300D01*
X368600Y662000D01*
X368300Y685800D02*
X358140Y695960D01*
X355600Y698500D01*
X353060Y701040D01*
X330200Y685800D02*
X330200Y663600D01*
X328600Y662000D01*
X330200Y685800D02*
X320040Y695960D01*
X317500Y698500D01*
X314960Y701040D01*
X289560Y685800D02*
X289560Y662960D01*
X288600Y662000D01*
X289560Y685800D02*
X279400Y695960D01*
X276860Y698500D01*
X274320Y701040D01*
X279400Y701040D02*
X279400Y695960D01*
X276860Y698500D02*
X276860Y701040D01*
X317500Y701040D02*
X317500Y698500D01*
X320040Y701040D02*
X320040Y695960D01*
X355600Y698500D02*
X355600Y701040D01*
X358140Y701040D02*
X358140Y695960D01*
X396240Y698500D02*
X396240Y701040D01*
X398780Y701040D02*
X398780Y695960D01*
X436880Y698500D02*
X436880Y701040D01*
X439420Y701040D02*
X439420Y695960D01*
X474980Y698500D02*
X474980Y701040D01*
X477520Y701040D02*
X477520Y695960D01*
X515620Y698500D02*
X515620Y701040D01*
X518160Y701040D02*
X518160Y695960D01*
M02*
