G04 EAGLE Gerber RS-274X export*
G75*
%MOMM*%
%FSLAX34Y34*%
%LPD*%
%INSilkscreen Top*%
%IPPOS*%
%AMOC8*
5,1,8,0,0,1.08239X$1,22.5*%
G01*
%ADD10C,0.177800*%
%ADD11C,0.101600*%
%ADD12C,0.152400*%
%ADD13C,0.254000*%
%ADD14C,0.127000*%
%ADD15C,0.076200*%


D10*
X36449Y227711D02*
X36449Y211709D01*
X43561Y211709D01*
X52320Y217932D02*
X56320Y217932D01*
X52320Y217933D02*
X52209Y217931D01*
X52098Y217925D01*
X51987Y217915D01*
X51877Y217901D01*
X51767Y217884D01*
X51658Y217862D01*
X51550Y217836D01*
X51443Y217807D01*
X51337Y217774D01*
X51232Y217737D01*
X51129Y217696D01*
X51027Y217652D01*
X50927Y217604D01*
X50829Y217552D01*
X50732Y217497D01*
X50638Y217439D01*
X50545Y217377D01*
X50455Y217312D01*
X50367Y217244D01*
X50282Y217173D01*
X50199Y217099D01*
X50119Y217022D01*
X50042Y216942D01*
X49968Y216859D01*
X49897Y216774D01*
X49829Y216686D01*
X49764Y216596D01*
X49702Y216503D01*
X49644Y216409D01*
X49589Y216312D01*
X49537Y216214D01*
X49489Y216114D01*
X49445Y216012D01*
X49404Y215909D01*
X49367Y215804D01*
X49334Y215698D01*
X49305Y215591D01*
X49279Y215483D01*
X49257Y215374D01*
X49240Y215264D01*
X49226Y215154D01*
X49216Y215043D01*
X49210Y214932D01*
X49208Y214821D01*
X49210Y214710D01*
X49216Y214599D01*
X49226Y214488D01*
X49240Y214378D01*
X49257Y214268D01*
X49279Y214159D01*
X49305Y214051D01*
X49334Y213944D01*
X49367Y213838D01*
X49404Y213733D01*
X49445Y213630D01*
X49489Y213528D01*
X49537Y213428D01*
X49589Y213330D01*
X49644Y213233D01*
X49702Y213139D01*
X49764Y213046D01*
X49829Y212956D01*
X49897Y212868D01*
X49968Y212783D01*
X50042Y212700D01*
X50119Y212620D01*
X50199Y212543D01*
X50282Y212469D01*
X50367Y212398D01*
X50455Y212330D01*
X50545Y212265D01*
X50638Y212203D01*
X50732Y212145D01*
X50829Y212090D01*
X50927Y212038D01*
X51027Y211990D01*
X51129Y211946D01*
X51232Y211905D01*
X51337Y211868D01*
X51443Y211835D01*
X51550Y211806D01*
X51658Y211780D01*
X51767Y211758D01*
X51877Y211741D01*
X51987Y211727D01*
X52098Y211717D01*
X52209Y211711D01*
X52320Y211709D01*
X56320Y211709D01*
X56320Y219710D01*
X56318Y219812D01*
X56312Y219914D01*
X56302Y220016D01*
X56289Y220117D01*
X56271Y220218D01*
X56250Y220318D01*
X56225Y220417D01*
X56196Y220515D01*
X56163Y220611D01*
X56127Y220707D01*
X56087Y220801D01*
X56043Y220893D01*
X55996Y220984D01*
X55945Y221073D01*
X55892Y221160D01*
X55834Y221244D01*
X55774Y221327D01*
X55711Y221407D01*
X55644Y221484D01*
X55575Y221559D01*
X55502Y221632D01*
X55427Y221701D01*
X55350Y221768D01*
X55270Y221831D01*
X55187Y221891D01*
X55103Y221949D01*
X55016Y222002D01*
X54927Y222053D01*
X54836Y222100D01*
X54744Y222144D01*
X54650Y222184D01*
X54554Y222220D01*
X54458Y222253D01*
X54360Y222282D01*
X54261Y222307D01*
X54161Y222328D01*
X54060Y222346D01*
X53959Y222359D01*
X53857Y222369D01*
X53755Y222375D01*
X53653Y222377D01*
X50097Y222377D01*
X64691Y217932D02*
X69136Y216154D01*
X64691Y217932D02*
X64603Y217969D01*
X64517Y218010D01*
X64432Y218054D01*
X64350Y218102D01*
X64269Y218154D01*
X64191Y218208D01*
X64115Y218266D01*
X64041Y218327D01*
X63970Y218391D01*
X63902Y218457D01*
X63837Y218527D01*
X63774Y218599D01*
X63715Y218674D01*
X63658Y218751D01*
X63605Y218830D01*
X63555Y218912D01*
X63509Y218995D01*
X63466Y219080D01*
X63427Y219168D01*
X63391Y219256D01*
X63359Y219346D01*
X63331Y219437D01*
X63307Y219530D01*
X63286Y219623D01*
X63270Y219717D01*
X63257Y219811D01*
X63248Y219907D01*
X63243Y220002D01*
X63242Y220097D01*
X63245Y220193D01*
X63252Y220288D01*
X63263Y220383D01*
X63278Y220477D01*
X63297Y220571D01*
X63319Y220664D01*
X63346Y220755D01*
X63376Y220846D01*
X63410Y220935D01*
X63447Y221023D01*
X63488Y221109D01*
X63533Y221193D01*
X63581Y221276D01*
X63633Y221356D01*
X63688Y221434D01*
X63746Y221510D01*
X63807Y221584D01*
X63871Y221654D01*
X63938Y221722D01*
X64008Y221788D01*
X64080Y221850D01*
X64155Y221909D01*
X64232Y221965D01*
X64312Y222018D01*
X64393Y222067D01*
X64477Y222114D01*
X64562Y222156D01*
X64650Y222195D01*
X64738Y222230D01*
X64828Y222262D01*
X64920Y222290D01*
X65012Y222314D01*
X65105Y222334D01*
X65199Y222351D01*
X65294Y222363D01*
X65389Y222372D01*
X65484Y222376D01*
X65580Y222377D01*
X65579Y222377D02*
X65822Y222371D01*
X66064Y222358D01*
X66306Y222340D01*
X66548Y222316D01*
X66789Y222287D01*
X67029Y222251D01*
X67268Y222210D01*
X67506Y222163D01*
X67743Y222111D01*
X67979Y222052D01*
X68213Y221988D01*
X68446Y221919D01*
X68677Y221843D01*
X68906Y221763D01*
X69132Y221677D01*
X69357Y221585D01*
X69580Y221488D01*
X69136Y216154D02*
X69224Y216117D01*
X69310Y216076D01*
X69395Y216032D01*
X69477Y215984D01*
X69558Y215932D01*
X69636Y215878D01*
X69712Y215820D01*
X69786Y215759D01*
X69857Y215695D01*
X69925Y215629D01*
X69990Y215559D01*
X70053Y215487D01*
X70112Y215412D01*
X70169Y215335D01*
X70222Y215256D01*
X70272Y215174D01*
X70318Y215091D01*
X70361Y215006D01*
X70400Y214918D01*
X70436Y214830D01*
X70468Y214740D01*
X70496Y214649D01*
X70520Y214556D01*
X70541Y214463D01*
X70557Y214369D01*
X70570Y214275D01*
X70579Y214179D01*
X70584Y214084D01*
X70585Y213989D01*
X70582Y213893D01*
X70575Y213798D01*
X70564Y213703D01*
X70549Y213609D01*
X70530Y213515D01*
X70508Y213422D01*
X70481Y213331D01*
X70451Y213240D01*
X70417Y213151D01*
X70380Y213063D01*
X70339Y212977D01*
X70294Y212893D01*
X70246Y212810D01*
X70194Y212730D01*
X70139Y212652D01*
X70081Y212576D01*
X70020Y212502D01*
X69956Y212432D01*
X69889Y212364D01*
X69819Y212298D01*
X69747Y212236D01*
X69672Y212177D01*
X69595Y212121D01*
X69515Y212068D01*
X69434Y212019D01*
X69350Y211972D01*
X69265Y211930D01*
X69177Y211891D01*
X69089Y211856D01*
X68999Y211824D01*
X68907Y211796D01*
X68815Y211772D01*
X68722Y211752D01*
X68628Y211735D01*
X68533Y211723D01*
X68438Y211714D01*
X68343Y211710D01*
X68247Y211709D01*
X68247Y211710D02*
X67890Y211719D01*
X67534Y211737D01*
X67178Y211763D01*
X66823Y211797D01*
X66469Y211840D01*
X66117Y211892D01*
X65765Y211951D01*
X65415Y212019D01*
X65067Y212095D01*
X64720Y212180D01*
X64376Y212272D01*
X64034Y212373D01*
X63694Y212482D01*
X63357Y212599D01*
X79571Y211709D02*
X84016Y211709D01*
X79571Y211709D02*
X79469Y211711D01*
X79367Y211717D01*
X79265Y211727D01*
X79164Y211740D01*
X79063Y211758D01*
X78963Y211779D01*
X78864Y211804D01*
X78766Y211833D01*
X78670Y211866D01*
X78574Y211902D01*
X78480Y211942D01*
X78388Y211986D01*
X78297Y212033D01*
X78208Y212084D01*
X78121Y212137D01*
X78037Y212195D01*
X77954Y212255D01*
X77874Y212318D01*
X77797Y212385D01*
X77722Y212454D01*
X77649Y212527D01*
X77580Y212602D01*
X77513Y212679D01*
X77450Y212759D01*
X77390Y212842D01*
X77332Y212926D01*
X77279Y213013D01*
X77228Y213102D01*
X77181Y213193D01*
X77137Y213285D01*
X77097Y213379D01*
X77061Y213475D01*
X77028Y213571D01*
X76999Y213669D01*
X76974Y213768D01*
X76953Y213868D01*
X76935Y213969D01*
X76922Y214070D01*
X76912Y214172D01*
X76906Y214274D01*
X76904Y214376D01*
X76904Y218821D01*
X76906Y218939D01*
X76912Y219056D01*
X76921Y219173D01*
X76935Y219290D01*
X76952Y219406D01*
X76974Y219522D01*
X76999Y219637D01*
X77028Y219751D01*
X77060Y219864D01*
X77097Y219976D01*
X77137Y220086D01*
X77180Y220195D01*
X77228Y220303D01*
X77278Y220409D01*
X77333Y220513D01*
X77390Y220616D01*
X77451Y220716D01*
X77516Y220815D01*
X77583Y220911D01*
X77654Y221005D01*
X77728Y221097D01*
X77804Y221186D01*
X77884Y221272D01*
X77966Y221356D01*
X78052Y221437D01*
X78139Y221515D01*
X78230Y221591D01*
X78323Y221663D01*
X78418Y221732D01*
X78515Y221798D01*
X78615Y221861D01*
X78716Y221920D01*
X78819Y221976D01*
X78925Y222028D01*
X79032Y222077D01*
X79140Y222123D01*
X79250Y222165D01*
X79361Y222203D01*
X79474Y222237D01*
X79587Y222268D01*
X79702Y222295D01*
X79817Y222318D01*
X79933Y222338D01*
X80049Y222353D01*
X80166Y222365D01*
X80284Y222373D01*
X80401Y222377D01*
X80519Y222377D01*
X80636Y222373D01*
X80754Y222365D01*
X80871Y222353D01*
X80987Y222338D01*
X81103Y222318D01*
X81218Y222295D01*
X81333Y222268D01*
X81446Y222237D01*
X81559Y222203D01*
X81670Y222165D01*
X81780Y222123D01*
X81888Y222077D01*
X81995Y222028D01*
X82101Y221976D01*
X82204Y221920D01*
X82305Y221861D01*
X82405Y221798D01*
X82502Y221732D01*
X82597Y221663D01*
X82690Y221591D01*
X82781Y221515D01*
X82868Y221437D01*
X82954Y221356D01*
X83036Y221272D01*
X83116Y221186D01*
X83192Y221097D01*
X83266Y221005D01*
X83337Y220911D01*
X83404Y220815D01*
X83469Y220716D01*
X83530Y220616D01*
X83587Y220513D01*
X83642Y220409D01*
X83692Y220303D01*
X83740Y220195D01*
X83783Y220086D01*
X83823Y219976D01*
X83860Y219864D01*
X83892Y219751D01*
X83921Y219637D01*
X83946Y219522D01*
X83968Y219406D01*
X83985Y219290D01*
X83999Y219173D01*
X84008Y219056D01*
X84014Y218939D01*
X84016Y218821D01*
X84016Y217043D01*
X76904Y217043D01*
X91066Y211709D02*
X91066Y222377D01*
X96400Y222377D01*
X96400Y220599D01*
X102067Y227711D02*
X102067Y211709D01*
X102067Y220599D02*
X110957Y220599D01*
X110957Y227711D02*
X110957Y211709D01*
X121097Y217932D02*
X125098Y217932D01*
X121097Y217933D02*
X120986Y217931D01*
X120875Y217925D01*
X120764Y217915D01*
X120654Y217901D01*
X120544Y217884D01*
X120435Y217862D01*
X120327Y217836D01*
X120220Y217807D01*
X120114Y217774D01*
X120009Y217737D01*
X119906Y217696D01*
X119804Y217652D01*
X119704Y217604D01*
X119606Y217552D01*
X119509Y217497D01*
X119415Y217439D01*
X119322Y217377D01*
X119232Y217312D01*
X119144Y217244D01*
X119059Y217173D01*
X118976Y217099D01*
X118896Y217022D01*
X118819Y216942D01*
X118745Y216859D01*
X118674Y216774D01*
X118606Y216686D01*
X118541Y216596D01*
X118479Y216503D01*
X118421Y216409D01*
X118366Y216312D01*
X118314Y216214D01*
X118266Y216114D01*
X118222Y216012D01*
X118181Y215909D01*
X118144Y215804D01*
X118111Y215698D01*
X118082Y215591D01*
X118056Y215483D01*
X118034Y215374D01*
X118017Y215264D01*
X118003Y215154D01*
X117993Y215043D01*
X117987Y214932D01*
X117985Y214821D01*
X117987Y214710D01*
X117993Y214599D01*
X118003Y214488D01*
X118017Y214378D01*
X118034Y214268D01*
X118056Y214159D01*
X118082Y214051D01*
X118111Y213944D01*
X118144Y213838D01*
X118181Y213733D01*
X118222Y213630D01*
X118266Y213528D01*
X118314Y213428D01*
X118366Y213330D01*
X118421Y213233D01*
X118479Y213139D01*
X118541Y213046D01*
X118606Y212956D01*
X118674Y212868D01*
X118745Y212783D01*
X118819Y212700D01*
X118896Y212620D01*
X118976Y212543D01*
X119059Y212469D01*
X119144Y212398D01*
X119232Y212330D01*
X119322Y212265D01*
X119415Y212203D01*
X119509Y212145D01*
X119606Y212090D01*
X119704Y212038D01*
X119804Y211990D01*
X119906Y211946D01*
X120009Y211905D01*
X120114Y211868D01*
X120220Y211835D01*
X120327Y211806D01*
X120435Y211780D01*
X120544Y211758D01*
X120654Y211741D01*
X120764Y211727D01*
X120875Y211717D01*
X120986Y211711D01*
X121097Y211709D01*
X125098Y211709D01*
X125098Y219710D01*
X125096Y219812D01*
X125090Y219914D01*
X125080Y220016D01*
X125067Y220117D01*
X125049Y220218D01*
X125028Y220318D01*
X125003Y220417D01*
X124974Y220515D01*
X124941Y220611D01*
X124905Y220707D01*
X124865Y220801D01*
X124821Y220893D01*
X124774Y220984D01*
X124723Y221073D01*
X124670Y221160D01*
X124612Y221244D01*
X124552Y221327D01*
X124489Y221407D01*
X124422Y221484D01*
X124353Y221559D01*
X124280Y221632D01*
X124205Y221701D01*
X124128Y221768D01*
X124048Y221831D01*
X123965Y221891D01*
X123881Y221949D01*
X123794Y222002D01*
X123705Y222053D01*
X123614Y222100D01*
X123522Y222144D01*
X123428Y222184D01*
X123332Y222220D01*
X123236Y222253D01*
X123138Y222282D01*
X123039Y222307D01*
X122939Y222328D01*
X122838Y222346D01*
X122737Y222359D01*
X122635Y222369D01*
X122533Y222375D01*
X122431Y222377D01*
X118875Y222377D01*
X132749Y222377D02*
X132749Y211709D01*
X132749Y222377D02*
X138083Y222377D01*
X138083Y220599D01*
X143678Y222377D02*
X143678Y206375D01*
X143678Y222377D02*
X148123Y222377D01*
X148225Y222375D01*
X148327Y222369D01*
X148429Y222359D01*
X148530Y222346D01*
X148631Y222328D01*
X148731Y222307D01*
X148830Y222282D01*
X148928Y222253D01*
X149024Y222220D01*
X149120Y222184D01*
X149214Y222144D01*
X149306Y222100D01*
X149397Y222053D01*
X149486Y222002D01*
X149573Y221949D01*
X149657Y221891D01*
X149740Y221831D01*
X149820Y221768D01*
X149897Y221701D01*
X149972Y221632D01*
X150045Y221559D01*
X150114Y221484D01*
X150181Y221407D01*
X150244Y221327D01*
X150304Y221244D01*
X150362Y221160D01*
X150415Y221073D01*
X150466Y220984D01*
X150513Y220893D01*
X150557Y220801D01*
X150597Y220707D01*
X150633Y220611D01*
X150666Y220515D01*
X150695Y220417D01*
X150720Y220318D01*
X150741Y220218D01*
X150759Y220117D01*
X150772Y220016D01*
X150782Y219914D01*
X150788Y219812D01*
X150790Y219710D01*
X150790Y214376D01*
X150788Y214274D01*
X150782Y214172D01*
X150772Y214070D01*
X150759Y213969D01*
X150741Y213868D01*
X150720Y213768D01*
X150695Y213669D01*
X150666Y213571D01*
X150633Y213475D01*
X150597Y213379D01*
X150557Y213285D01*
X150513Y213193D01*
X150466Y213102D01*
X150415Y213013D01*
X150362Y212926D01*
X150304Y212842D01*
X150244Y212759D01*
X150181Y212679D01*
X150114Y212602D01*
X150045Y212527D01*
X149972Y212454D01*
X149897Y212385D01*
X149820Y212318D01*
X149740Y212255D01*
X149657Y212195D01*
X149573Y212137D01*
X149486Y212084D01*
X149397Y212033D01*
X149306Y211986D01*
X149214Y211942D01*
X149120Y211902D01*
X149024Y211866D01*
X148928Y211833D01*
X148830Y211804D01*
X148731Y211779D01*
X148631Y211758D01*
X148530Y211740D01*
X148429Y211727D01*
X148327Y211717D01*
X148225Y211711D01*
X148123Y211709D01*
X143678Y211709D01*
X166096Y211709D02*
X166096Y222377D01*
X171430Y222377D01*
X171430Y220599D01*
X179090Y211709D02*
X183535Y211709D01*
X179090Y211709D02*
X178988Y211711D01*
X178886Y211717D01*
X178784Y211727D01*
X178683Y211740D01*
X178582Y211758D01*
X178482Y211779D01*
X178383Y211804D01*
X178285Y211833D01*
X178189Y211866D01*
X178093Y211902D01*
X177999Y211942D01*
X177907Y211986D01*
X177816Y212033D01*
X177727Y212084D01*
X177640Y212137D01*
X177556Y212195D01*
X177473Y212255D01*
X177393Y212318D01*
X177316Y212385D01*
X177241Y212454D01*
X177168Y212527D01*
X177099Y212602D01*
X177032Y212679D01*
X176969Y212759D01*
X176909Y212842D01*
X176851Y212926D01*
X176798Y213013D01*
X176747Y213102D01*
X176700Y213193D01*
X176656Y213285D01*
X176616Y213379D01*
X176580Y213475D01*
X176547Y213571D01*
X176518Y213669D01*
X176493Y213768D01*
X176472Y213868D01*
X176454Y213969D01*
X176441Y214070D01*
X176431Y214172D01*
X176425Y214274D01*
X176423Y214376D01*
X176423Y218821D01*
X176425Y218939D01*
X176431Y219056D01*
X176440Y219173D01*
X176454Y219290D01*
X176471Y219406D01*
X176493Y219522D01*
X176518Y219637D01*
X176547Y219751D01*
X176579Y219864D01*
X176616Y219976D01*
X176656Y220086D01*
X176699Y220195D01*
X176747Y220303D01*
X176797Y220409D01*
X176852Y220513D01*
X176909Y220616D01*
X176970Y220716D01*
X177035Y220815D01*
X177102Y220911D01*
X177173Y221005D01*
X177247Y221097D01*
X177323Y221186D01*
X177403Y221272D01*
X177485Y221356D01*
X177571Y221437D01*
X177658Y221515D01*
X177749Y221591D01*
X177842Y221663D01*
X177937Y221732D01*
X178034Y221798D01*
X178134Y221861D01*
X178235Y221920D01*
X178338Y221976D01*
X178444Y222028D01*
X178551Y222077D01*
X178659Y222123D01*
X178769Y222165D01*
X178880Y222203D01*
X178993Y222237D01*
X179106Y222268D01*
X179221Y222295D01*
X179336Y222318D01*
X179452Y222338D01*
X179568Y222353D01*
X179685Y222365D01*
X179803Y222373D01*
X179920Y222377D01*
X180038Y222377D01*
X180155Y222373D01*
X180273Y222365D01*
X180390Y222353D01*
X180506Y222338D01*
X180622Y222318D01*
X180737Y222295D01*
X180852Y222268D01*
X180965Y222237D01*
X181078Y222203D01*
X181189Y222165D01*
X181299Y222123D01*
X181407Y222077D01*
X181514Y222028D01*
X181620Y221976D01*
X181723Y221920D01*
X181824Y221861D01*
X181924Y221798D01*
X182021Y221732D01*
X182116Y221663D01*
X182209Y221591D01*
X182300Y221515D01*
X182387Y221437D01*
X182473Y221356D01*
X182555Y221272D01*
X182635Y221186D01*
X182711Y221097D01*
X182785Y221005D01*
X182856Y220911D01*
X182923Y220815D01*
X182988Y220716D01*
X183049Y220616D01*
X183106Y220513D01*
X183161Y220409D01*
X183211Y220303D01*
X183259Y220195D01*
X183302Y220086D01*
X183342Y219976D01*
X183379Y219864D01*
X183411Y219751D01*
X183440Y219637D01*
X183465Y219522D01*
X183487Y219406D01*
X183504Y219290D01*
X183518Y219173D01*
X183527Y219056D01*
X183533Y218939D01*
X183535Y218821D01*
X183535Y217043D01*
X176423Y217043D01*
X189449Y222377D02*
X193005Y211709D01*
X196561Y222377D01*
X202628Y224155D02*
X207073Y227711D01*
X207073Y211709D01*
X202628Y211709D02*
X211518Y211709D01*
D11*
X100923Y192532D02*
X100923Y183444D01*
X100922Y183444D02*
X100920Y183345D01*
X100914Y183245D01*
X100905Y183146D01*
X100892Y183048D01*
X100875Y182950D01*
X100854Y182852D01*
X100829Y182756D01*
X100801Y182661D01*
X100769Y182567D01*
X100734Y182474D01*
X100695Y182382D01*
X100652Y182292D01*
X100607Y182204D01*
X100557Y182117D01*
X100505Y182033D01*
X100449Y181950D01*
X100391Y181870D01*
X100329Y181792D01*
X100264Y181717D01*
X100196Y181644D01*
X100126Y181574D01*
X100053Y181506D01*
X99978Y181441D01*
X99900Y181379D01*
X99820Y181321D01*
X99737Y181265D01*
X99653Y181213D01*
X99566Y181163D01*
X99478Y181118D01*
X99388Y181075D01*
X99296Y181036D01*
X99203Y181001D01*
X99109Y180969D01*
X99014Y180941D01*
X98918Y180916D01*
X98820Y180895D01*
X98722Y180878D01*
X98624Y180865D01*
X98525Y180856D01*
X98425Y180850D01*
X98326Y180848D01*
X97028Y180848D01*
X106577Y180848D02*
X106577Y192532D01*
X109823Y192532D01*
X109936Y192530D01*
X110049Y192524D01*
X110162Y192514D01*
X110275Y192500D01*
X110387Y192483D01*
X110498Y192461D01*
X110608Y192436D01*
X110718Y192406D01*
X110826Y192373D01*
X110933Y192336D01*
X111039Y192296D01*
X111143Y192251D01*
X111246Y192203D01*
X111347Y192152D01*
X111446Y192097D01*
X111543Y192039D01*
X111638Y191977D01*
X111731Y191912D01*
X111821Y191844D01*
X111909Y191773D01*
X111995Y191698D01*
X112078Y191621D01*
X112158Y191541D01*
X112235Y191458D01*
X112310Y191372D01*
X112381Y191284D01*
X112449Y191194D01*
X112514Y191101D01*
X112576Y191006D01*
X112634Y190909D01*
X112689Y190810D01*
X112740Y190709D01*
X112788Y190606D01*
X112833Y190502D01*
X112873Y190396D01*
X112910Y190289D01*
X112943Y190181D01*
X112973Y190071D01*
X112998Y189961D01*
X113020Y189850D01*
X113037Y189738D01*
X113051Y189625D01*
X113061Y189512D01*
X113067Y189399D01*
X113069Y189286D01*
X113068Y189286D02*
X113068Y184094D01*
X113069Y184094D02*
X113067Y183981D01*
X113061Y183868D01*
X113051Y183755D01*
X113037Y183642D01*
X113020Y183530D01*
X112998Y183419D01*
X112973Y183309D01*
X112943Y183199D01*
X112910Y183091D01*
X112873Y182984D01*
X112833Y182878D01*
X112788Y182774D01*
X112740Y182671D01*
X112689Y182570D01*
X112634Y182471D01*
X112576Y182374D01*
X112514Y182279D01*
X112449Y182186D01*
X112381Y182096D01*
X112310Y182008D01*
X112235Y181922D01*
X112158Y181839D01*
X112078Y181759D01*
X111995Y181682D01*
X111909Y181607D01*
X111821Y181536D01*
X111731Y181468D01*
X111638Y181403D01*
X111543Y181341D01*
X111446Y181283D01*
X111347Y181228D01*
X111246Y181177D01*
X111143Y181129D01*
X111039Y181084D01*
X110933Y181044D01*
X110826Y181007D01*
X110718Y180974D01*
X110608Y180944D01*
X110498Y180919D01*
X110387Y180897D01*
X110275Y180880D01*
X110162Y180866D01*
X110049Y180856D01*
X109936Y180850D01*
X109823Y180848D01*
X106577Y180848D01*
D12*
X280162Y42418D02*
X280162Y26162D01*
X287387Y26162D01*
X296107Y32484D02*
X300171Y32484D01*
X296107Y32484D02*
X295995Y32482D01*
X295884Y32476D01*
X295773Y32466D01*
X295662Y32453D01*
X295552Y32435D01*
X295443Y32413D01*
X295334Y32388D01*
X295226Y32359D01*
X295120Y32326D01*
X295014Y32289D01*
X294910Y32249D01*
X294808Y32205D01*
X294707Y32157D01*
X294608Y32106D01*
X294510Y32051D01*
X294415Y31993D01*
X294322Y31932D01*
X294231Y31867D01*
X294142Y31799D01*
X294056Y31728D01*
X293973Y31655D01*
X293892Y31578D01*
X293813Y31498D01*
X293738Y31416D01*
X293666Y31331D01*
X293596Y31244D01*
X293530Y31154D01*
X293467Y31062D01*
X293407Y30967D01*
X293351Y30871D01*
X293298Y30773D01*
X293249Y30673D01*
X293203Y30571D01*
X293161Y30468D01*
X293122Y30363D01*
X293087Y30257D01*
X293056Y30150D01*
X293029Y30042D01*
X293005Y29933D01*
X292986Y29823D01*
X292970Y29713D01*
X292958Y29602D01*
X292950Y29490D01*
X292946Y29379D01*
X292946Y29267D01*
X292950Y29156D01*
X292958Y29044D01*
X292970Y28933D01*
X292986Y28823D01*
X293005Y28713D01*
X293029Y28604D01*
X293056Y28496D01*
X293087Y28389D01*
X293122Y28283D01*
X293161Y28178D01*
X293203Y28075D01*
X293249Y27973D01*
X293298Y27873D01*
X293351Y27775D01*
X293407Y27679D01*
X293467Y27584D01*
X293530Y27492D01*
X293596Y27402D01*
X293666Y27315D01*
X293738Y27230D01*
X293813Y27148D01*
X293892Y27068D01*
X293973Y26991D01*
X294056Y26918D01*
X294142Y26847D01*
X294231Y26779D01*
X294322Y26714D01*
X294415Y26653D01*
X294510Y26595D01*
X294608Y26540D01*
X294707Y26489D01*
X294808Y26441D01*
X294910Y26397D01*
X295014Y26357D01*
X295120Y26320D01*
X295226Y26287D01*
X295334Y26258D01*
X295443Y26233D01*
X295552Y26211D01*
X295662Y26193D01*
X295773Y26180D01*
X295884Y26170D01*
X295995Y26164D01*
X296107Y26162D01*
X300171Y26162D01*
X300171Y34290D01*
X300169Y34391D01*
X300163Y34492D01*
X300154Y34593D01*
X300141Y34694D01*
X300124Y34794D01*
X300103Y34893D01*
X300079Y34991D01*
X300051Y35088D01*
X300019Y35185D01*
X299984Y35280D01*
X299945Y35373D01*
X299903Y35465D01*
X299857Y35556D01*
X299808Y35645D01*
X299756Y35731D01*
X299700Y35816D01*
X299642Y35899D01*
X299580Y35979D01*
X299515Y36057D01*
X299448Y36133D01*
X299378Y36206D01*
X299305Y36276D01*
X299229Y36343D01*
X299151Y36408D01*
X299071Y36470D01*
X298988Y36528D01*
X298903Y36584D01*
X298817Y36636D01*
X298728Y36685D01*
X298637Y36731D01*
X298545Y36773D01*
X298452Y36812D01*
X298357Y36847D01*
X298260Y36879D01*
X298163Y36907D01*
X298065Y36931D01*
X297966Y36952D01*
X297866Y36969D01*
X297765Y36982D01*
X297664Y36991D01*
X297563Y36997D01*
X297462Y36999D01*
X293849Y36999D01*
X308442Y32484D02*
X312958Y30678D01*
X308442Y32484D02*
X308354Y32521D01*
X308268Y32562D01*
X308183Y32606D01*
X308100Y32654D01*
X308020Y32705D01*
X307941Y32759D01*
X307865Y32817D01*
X307791Y32877D01*
X307719Y32941D01*
X307651Y33007D01*
X307585Y33077D01*
X307522Y33148D01*
X307461Y33223D01*
X307404Y33299D01*
X307351Y33378D01*
X307300Y33459D01*
X307253Y33542D01*
X307209Y33627D01*
X307169Y33714D01*
X307132Y33802D01*
X307099Y33892D01*
X307069Y33983D01*
X307044Y34075D01*
X307022Y34168D01*
X307004Y34262D01*
X306989Y34356D01*
X306979Y34451D01*
X306973Y34547D01*
X306970Y34642D01*
X306971Y34738D01*
X306977Y34833D01*
X306986Y34929D01*
X306999Y35023D01*
X307015Y35117D01*
X307036Y35211D01*
X307061Y35303D01*
X307089Y35394D01*
X307121Y35484D01*
X307156Y35573D01*
X307195Y35660D01*
X307238Y35746D01*
X307284Y35830D01*
X307334Y35911D01*
X307386Y35991D01*
X307442Y36069D01*
X307502Y36144D01*
X307564Y36216D01*
X307629Y36286D01*
X307697Y36354D01*
X307767Y36418D01*
X307840Y36480D01*
X307916Y36538D01*
X307994Y36594D01*
X308074Y36646D01*
X308156Y36695D01*
X308240Y36740D01*
X308326Y36782D01*
X308413Y36821D01*
X308502Y36856D01*
X308593Y36887D01*
X308684Y36914D01*
X308777Y36938D01*
X308870Y36958D01*
X308964Y36974D01*
X309059Y36986D01*
X309154Y36995D01*
X309250Y36999D01*
X309345Y37000D01*
X309592Y36993D01*
X309838Y36981D01*
X310084Y36963D01*
X310330Y36938D01*
X310574Y36908D01*
X310818Y36872D01*
X311061Y36831D01*
X311303Y36783D01*
X311544Y36729D01*
X311783Y36670D01*
X312021Y36605D01*
X312257Y36534D01*
X312492Y36458D01*
X312725Y36376D01*
X312955Y36288D01*
X313183Y36195D01*
X313410Y36097D01*
X312958Y30677D02*
X313046Y30640D01*
X313132Y30599D01*
X313217Y30555D01*
X313300Y30507D01*
X313380Y30456D01*
X313459Y30402D01*
X313535Y30344D01*
X313609Y30284D01*
X313681Y30220D01*
X313749Y30154D01*
X313815Y30084D01*
X313878Y30013D01*
X313939Y29938D01*
X313996Y29862D01*
X314049Y29783D01*
X314100Y29702D01*
X314147Y29619D01*
X314191Y29534D01*
X314231Y29447D01*
X314268Y29359D01*
X314301Y29269D01*
X314331Y29178D01*
X314356Y29086D01*
X314378Y28993D01*
X314396Y28899D01*
X314411Y28805D01*
X314421Y28710D01*
X314427Y28614D01*
X314430Y28519D01*
X314429Y28423D01*
X314423Y28328D01*
X314414Y28232D01*
X314401Y28138D01*
X314385Y28044D01*
X314364Y27950D01*
X314339Y27858D01*
X314311Y27767D01*
X314279Y27677D01*
X314244Y27588D01*
X314205Y27501D01*
X314162Y27415D01*
X314116Y27331D01*
X314066Y27250D01*
X314014Y27170D01*
X313958Y27092D01*
X313898Y27017D01*
X313836Y26945D01*
X313771Y26875D01*
X313703Y26807D01*
X313633Y26743D01*
X313560Y26681D01*
X313484Y26623D01*
X313406Y26567D01*
X313326Y26515D01*
X313244Y26466D01*
X313160Y26421D01*
X313074Y26379D01*
X312987Y26340D01*
X312898Y26305D01*
X312807Y26274D01*
X312716Y26247D01*
X312623Y26223D01*
X312530Y26203D01*
X312436Y26187D01*
X312341Y26175D01*
X312246Y26166D01*
X312150Y26162D01*
X312055Y26161D01*
X312054Y26162D02*
X311692Y26171D01*
X311330Y26189D01*
X310969Y26216D01*
X310609Y26251D01*
X310249Y26294D01*
X309890Y26346D01*
X309533Y26407D01*
X309178Y26476D01*
X308824Y26553D01*
X308472Y26639D01*
X308122Y26733D01*
X307774Y26836D01*
X307429Y26946D01*
X307087Y27065D01*
X323344Y26162D02*
X327859Y26162D01*
X323344Y26162D02*
X323243Y26164D01*
X323142Y26170D01*
X323041Y26179D01*
X322940Y26192D01*
X322840Y26209D01*
X322741Y26230D01*
X322643Y26254D01*
X322546Y26282D01*
X322449Y26314D01*
X322354Y26349D01*
X322261Y26388D01*
X322169Y26430D01*
X322078Y26476D01*
X321990Y26525D01*
X321903Y26577D01*
X321818Y26633D01*
X321735Y26691D01*
X321655Y26753D01*
X321577Y26818D01*
X321501Y26885D01*
X321428Y26955D01*
X321358Y27028D01*
X321291Y27104D01*
X321226Y27182D01*
X321164Y27262D01*
X321106Y27345D01*
X321050Y27430D01*
X320998Y27516D01*
X320949Y27605D01*
X320903Y27696D01*
X320861Y27788D01*
X320822Y27881D01*
X320787Y27976D01*
X320755Y28073D01*
X320727Y28170D01*
X320703Y28268D01*
X320682Y28367D01*
X320665Y28467D01*
X320652Y28568D01*
X320643Y28669D01*
X320637Y28770D01*
X320635Y28871D01*
X320634Y28871D02*
X320634Y33387D01*
X320635Y33387D02*
X320637Y33506D01*
X320643Y33626D01*
X320653Y33745D01*
X320667Y33863D01*
X320684Y33982D01*
X320706Y34099D01*
X320731Y34216D01*
X320761Y34331D01*
X320794Y34446D01*
X320831Y34560D01*
X320871Y34672D01*
X320916Y34783D01*
X320964Y34892D01*
X321015Y35000D01*
X321070Y35106D01*
X321129Y35210D01*
X321191Y35312D01*
X321256Y35412D01*
X321325Y35510D01*
X321397Y35606D01*
X321472Y35699D01*
X321549Y35789D01*
X321630Y35877D01*
X321714Y35962D01*
X321801Y36044D01*
X321890Y36124D01*
X321982Y36200D01*
X322076Y36274D01*
X322173Y36344D01*
X322271Y36411D01*
X322372Y36475D01*
X322476Y36535D01*
X322581Y36592D01*
X322688Y36645D01*
X322796Y36695D01*
X322906Y36741D01*
X323018Y36783D01*
X323131Y36822D01*
X323245Y36857D01*
X323360Y36888D01*
X323477Y36916D01*
X323594Y36939D01*
X323711Y36959D01*
X323830Y36975D01*
X323949Y36987D01*
X324068Y36995D01*
X324187Y36999D01*
X324307Y36999D01*
X324426Y36995D01*
X324545Y36987D01*
X324664Y36975D01*
X324783Y36959D01*
X324900Y36939D01*
X325017Y36916D01*
X325134Y36888D01*
X325249Y36857D01*
X325363Y36822D01*
X325476Y36783D01*
X325588Y36741D01*
X325698Y36695D01*
X325806Y36645D01*
X325913Y36592D01*
X326018Y36535D01*
X326122Y36475D01*
X326223Y36411D01*
X326321Y36344D01*
X326418Y36274D01*
X326512Y36200D01*
X326604Y36124D01*
X326693Y36044D01*
X326780Y35962D01*
X326864Y35877D01*
X326945Y35789D01*
X327022Y35699D01*
X327097Y35606D01*
X327169Y35510D01*
X327238Y35412D01*
X327303Y35312D01*
X327365Y35210D01*
X327424Y35106D01*
X327479Y35000D01*
X327530Y34892D01*
X327578Y34783D01*
X327623Y34672D01*
X327663Y34560D01*
X327700Y34446D01*
X327733Y34331D01*
X327763Y34216D01*
X327788Y34099D01*
X327810Y33982D01*
X327827Y33863D01*
X327841Y33745D01*
X327851Y33626D01*
X327857Y33506D01*
X327859Y33387D01*
X327859Y31581D01*
X320634Y31581D01*
X334787Y26162D02*
X334787Y36999D01*
X340206Y36999D01*
X340206Y35193D01*
X354120Y42418D02*
X354120Y26162D01*
X354120Y42418D02*
X358636Y42418D01*
X358767Y42416D01*
X358899Y42410D01*
X359030Y42401D01*
X359160Y42387D01*
X359291Y42370D01*
X359420Y42349D01*
X359549Y42325D01*
X359677Y42296D01*
X359805Y42264D01*
X359931Y42228D01*
X360056Y42189D01*
X360181Y42146D01*
X360303Y42099D01*
X360425Y42049D01*
X360545Y41995D01*
X360663Y41938D01*
X360779Y41877D01*
X360894Y41813D01*
X361007Y41746D01*
X361118Y41675D01*
X361226Y41601D01*
X361333Y41524D01*
X361437Y41444D01*
X361539Y41361D01*
X361638Y41276D01*
X361735Y41187D01*
X361829Y41095D01*
X361921Y41001D01*
X362010Y40904D01*
X362095Y40805D01*
X362178Y40703D01*
X362258Y40599D01*
X362335Y40492D01*
X362409Y40384D01*
X362480Y40273D01*
X362547Y40160D01*
X362611Y40045D01*
X362672Y39929D01*
X362729Y39811D01*
X362783Y39691D01*
X362833Y39569D01*
X362880Y39447D01*
X362923Y39322D01*
X362962Y39197D01*
X362998Y39071D01*
X363030Y38943D01*
X363059Y38815D01*
X363083Y38686D01*
X363104Y38557D01*
X363121Y38426D01*
X363135Y38296D01*
X363144Y38165D01*
X363150Y38033D01*
X363152Y37902D01*
X363151Y37902D02*
X363151Y30678D01*
X363152Y30678D02*
X363150Y30547D01*
X363144Y30415D01*
X363135Y30284D01*
X363121Y30154D01*
X363104Y30023D01*
X363083Y29894D01*
X363059Y29765D01*
X363030Y29637D01*
X362998Y29509D01*
X362962Y29383D01*
X362923Y29258D01*
X362880Y29133D01*
X362833Y29011D01*
X362783Y28889D01*
X362729Y28769D01*
X362672Y28651D01*
X362611Y28535D01*
X362547Y28420D01*
X362480Y28307D01*
X362409Y28196D01*
X362335Y28088D01*
X362258Y27981D01*
X362178Y27877D01*
X362095Y27775D01*
X362010Y27676D01*
X361921Y27579D01*
X361829Y27485D01*
X361735Y27393D01*
X361638Y27304D01*
X361539Y27219D01*
X361437Y27136D01*
X361333Y27056D01*
X361226Y26979D01*
X361118Y26905D01*
X361007Y26834D01*
X360894Y26767D01*
X360779Y26703D01*
X360663Y26642D01*
X360545Y26585D01*
X360425Y26531D01*
X360303Y26481D01*
X360181Y26434D01*
X360056Y26391D01*
X359931Y26352D01*
X359805Y26316D01*
X359677Y26284D01*
X359549Y26255D01*
X359420Y26231D01*
X359290Y26210D01*
X359160Y26193D01*
X359030Y26179D01*
X358899Y26170D01*
X358767Y26164D01*
X358636Y26162D01*
X354120Y26162D01*
X370098Y26162D02*
X370098Y36999D01*
X369647Y41515D02*
X369647Y42418D01*
X370550Y42418D01*
X370550Y41515D01*
X369647Y41515D01*
X376386Y33387D02*
X376386Y29774D01*
X376386Y33387D02*
X376388Y33506D01*
X376394Y33626D01*
X376404Y33745D01*
X376418Y33863D01*
X376435Y33982D01*
X376457Y34099D01*
X376482Y34216D01*
X376512Y34331D01*
X376545Y34446D01*
X376582Y34560D01*
X376622Y34672D01*
X376667Y34783D01*
X376715Y34892D01*
X376766Y35000D01*
X376821Y35106D01*
X376880Y35210D01*
X376942Y35312D01*
X377007Y35412D01*
X377076Y35510D01*
X377148Y35606D01*
X377223Y35699D01*
X377300Y35789D01*
X377381Y35877D01*
X377465Y35962D01*
X377552Y36044D01*
X377641Y36124D01*
X377733Y36200D01*
X377827Y36274D01*
X377924Y36344D01*
X378022Y36411D01*
X378123Y36475D01*
X378227Y36535D01*
X378332Y36592D01*
X378439Y36645D01*
X378547Y36695D01*
X378657Y36741D01*
X378769Y36783D01*
X378882Y36822D01*
X378996Y36857D01*
X379111Y36888D01*
X379228Y36916D01*
X379345Y36939D01*
X379462Y36959D01*
X379581Y36975D01*
X379700Y36987D01*
X379819Y36995D01*
X379938Y36999D01*
X380058Y36999D01*
X380177Y36995D01*
X380296Y36987D01*
X380415Y36975D01*
X380534Y36959D01*
X380651Y36939D01*
X380768Y36916D01*
X380885Y36888D01*
X381000Y36857D01*
X381114Y36822D01*
X381227Y36783D01*
X381339Y36741D01*
X381449Y36695D01*
X381557Y36645D01*
X381664Y36592D01*
X381769Y36535D01*
X381873Y36475D01*
X381974Y36411D01*
X382072Y36344D01*
X382169Y36274D01*
X382263Y36200D01*
X382355Y36124D01*
X382444Y36044D01*
X382531Y35962D01*
X382615Y35877D01*
X382696Y35789D01*
X382773Y35699D01*
X382848Y35606D01*
X382920Y35510D01*
X382989Y35412D01*
X383054Y35312D01*
X383116Y35210D01*
X383175Y35106D01*
X383230Y35000D01*
X383281Y34892D01*
X383329Y34783D01*
X383374Y34672D01*
X383414Y34560D01*
X383451Y34446D01*
X383484Y34331D01*
X383514Y34216D01*
X383539Y34099D01*
X383561Y33982D01*
X383578Y33863D01*
X383592Y33745D01*
X383602Y33626D01*
X383608Y33506D01*
X383610Y33387D01*
X383611Y33387D02*
X383611Y29774D01*
X383610Y29774D02*
X383608Y29655D01*
X383602Y29535D01*
X383592Y29416D01*
X383578Y29298D01*
X383561Y29179D01*
X383539Y29062D01*
X383514Y28945D01*
X383484Y28830D01*
X383451Y28715D01*
X383414Y28601D01*
X383374Y28489D01*
X383329Y28378D01*
X383281Y28269D01*
X383230Y28161D01*
X383175Y28055D01*
X383116Y27951D01*
X383054Y27849D01*
X382989Y27749D01*
X382920Y27651D01*
X382848Y27555D01*
X382773Y27462D01*
X382696Y27372D01*
X382615Y27284D01*
X382531Y27199D01*
X382444Y27117D01*
X382355Y27037D01*
X382263Y26961D01*
X382169Y26887D01*
X382072Y26817D01*
X381974Y26750D01*
X381873Y26686D01*
X381769Y26626D01*
X381664Y26569D01*
X381557Y26516D01*
X381449Y26466D01*
X381339Y26420D01*
X381227Y26378D01*
X381114Y26339D01*
X381000Y26304D01*
X380885Y26273D01*
X380768Y26245D01*
X380651Y26222D01*
X380534Y26202D01*
X380415Y26186D01*
X380296Y26174D01*
X380177Y26166D01*
X380058Y26162D01*
X379938Y26162D01*
X379819Y26166D01*
X379700Y26174D01*
X379581Y26186D01*
X379462Y26202D01*
X379345Y26222D01*
X379228Y26245D01*
X379111Y26273D01*
X378996Y26304D01*
X378882Y26339D01*
X378769Y26378D01*
X378657Y26420D01*
X378547Y26466D01*
X378439Y26516D01*
X378332Y26569D01*
X378227Y26626D01*
X378123Y26686D01*
X378022Y26750D01*
X377924Y26817D01*
X377827Y26887D01*
X377733Y26961D01*
X377641Y27037D01*
X377552Y27117D01*
X377465Y27199D01*
X377381Y27284D01*
X377300Y27372D01*
X377223Y27462D01*
X377148Y27555D01*
X377076Y27651D01*
X377007Y27749D01*
X376942Y27849D01*
X376880Y27951D01*
X376821Y28055D01*
X376766Y28161D01*
X376715Y28269D01*
X376667Y28378D01*
X376622Y28489D01*
X376582Y28601D01*
X376545Y28715D01*
X376512Y28830D01*
X376482Y28945D01*
X376457Y29062D01*
X376435Y29179D01*
X376418Y29298D01*
X376404Y29416D01*
X376394Y29535D01*
X376388Y29655D01*
X376386Y29774D01*
X397084Y26162D02*
X397084Y42418D01*
X397084Y26162D02*
X392569Y26162D01*
X392468Y26164D01*
X392367Y26170D01*
X392266Y26179D01*
X392165Y26192D01*
X392065Y26209D01*
X391966Y26230D01*
X391868Y26254D01*
X391771Y26282D01*
X391674Y26314D01*
X391579Y26349D01*
X391486Y26388D01*
X391394Y26430D01*
X391303Y26476D01*
X391215Y26525D01*
X391128Y26577D01*
X391043Y26633D01*
X390960Y26691D01*
X390880Y26753D01*
X390802Y26818D01*
X390726Y26885D01*
X390653Y26955D01*
X390583Y27028D01*
X390516Y27104D01*
X390451Y27182D01*
X390389Y27262D01*
X390331Y27345D01*
X390275Y27430D01*
X390223Y27516D01*
X390174Y27605D01*
X390128Y27696D01*
X390086Y27788D01*
X390047Y27881D01*
X390012Y27976D01*
X389980Y28073D01*
X389952Y28170D01*
X389928Y28268D01*
X389907Y28367D01*
X389890Y28467D01*
X389877Y28568D01*
X389868Y28669D01*
X389862Y28770D01*
X389860Y28871D01*
X389860Y34290D01*
X389862Y34391D01*
X389868Y34492D01*
X389877Y34593D01*
X389890Y34694D01*
X389907Y34794D01*
X389928Y34893D01*
X389952Y34991D01*
X389980Y35088D01*
X390012Y35185D01*
X390047Y35280D01*
X390086Y35373D01*
X390128Y35465D01*
X390174Y35556D01*
X390223Y35645D01*
X390275Y35731D01*
X390331Y35816D01*
X390389Y35899D01*
X390451Y35979D01*
X390516Y36057D01*
X390583Y36133D01*
X390653Y36206D01*
X390726Y36276D01*
X390802Y36343D01*
X390880Y36408D01*
X390960Y36470D01*
X391043Y36528D01*
X391128Y36584D01*
X391215Y36636D01*
X391303Y36685D01*
X391394Y36731D01*
X391486Y36773D01*
X391579Y36812D01*
X391674Y36847D01*
X391771Y36879D01*
X391868Y36907D01*
X391966Y36931D01*
X392065Y36952D01*
X392165Y36969D01*
X392266Y36982D01*
X392367Y36991D01*
X392468Y36997D01*
X392569Y36999D01*
X397084Y36999D01*
X406710Y26162D02*
X411226Y26162D01*
X406710Y26162D02*
X406609Y26164D01*
X406508Y26170D01*
X406407Y26179D01*
X406306Y26192D01*
X406206Y26209D01*
X406107Y26230D01*
X406009Y26254D01*
X405912Y26282D01*
X405815Y26314D01*
X405720Y26349D01*
X405627Y26388D01*
X405535Y26430D01*
X405444Y26476D01*
X405356Y26525D01*
X405269Y26577D01*
X405184Y26633D01*
X405101Y26691D01*
X405021Y26753D01*
X404943Y26818D01*
X404867Y26885D01*
X404794Y26955D01*
X404724Y27028D01*
X404657Y27104D01*
X404592Y27182D01*
X404530Y27262D01*
X404472Y27345D01*
X404416Y27430D01*
X404364Y27516D01*
X404315Y27605D01*
X404269Y27696D01*
X404227Y27788D01*
X404188Y27881D01*
X404153Y27976D01*
X404121Y28073D01*
X404093Y28170D01*
X404069Y28268D01*
X404048Y28367D01*
X404031Y28467D01*
X404018Y28568D01*
X404009Y28669D01*
X404003Y28770D01*
X404001Y28871D01*
X404001Y33387D01*
X404003Y33506D01*
X404009Y33626D01*
X404019Y33745D01*
X404033Y33863D01*
X404050Y33982D01*
X404072Y34099D01*
X404097Y34216D01*
X404127Y34331D01*
X404160Y34446D01*
X404197Y34560D01*
X404237Y34672D01*
X404282Y34783D01*
X404330Y34892D01*
X404381Y35000D01*
X404436Y35106D01*
X404495Y35210D01*
X404557Y35312D01*
X404622Y35412D01*
X404691Y35510D01*
X404763Y35606D01*
X404838Y35699D01*
X404915Y35789D01*
X404996Y35877D01*
X405080Y35962D01*
X405167Y36044D01*
X405256Y36124D01*
X405348Y36200D01*
X405442Y36274D01*
X405539Y36344D01*
X405637Y36411D01*
X405738Y36475D01*
X405842Y36535D01*
X405947Y36592D01*
X406054Y36645D01*
X406162Y36695D01*
X406272Y36741D01*
X406384Y36783D01*
X406497Y36822D01*
X406611Y36857D01*
X406726Y36888D01*
X406843Y36916D01*
X406960Y36939D01*
X407077Y36959D01*
X407196Y36975D01*
X407315Y36987D01*
X407434Y36995D01*
X407553Y36999D01*
X407673Y36999D01*
X407792Y36995D01*
X407911Y36987D01*
X408030Y36975D01*
X408149Y36959D01*
X408266Y36939D01*
X408383Y36916D01*
X408500Y36888D01*
X408615Y36857D01*
X408729Y36822D01*
X408842Y36783D01*
X408954Y36741D01*
X409064Y36695D01*
X409172Y36645D01*
X409279Y36592D01*
X409384Y36535D01*
X409488Y36475D01*
X409589Y36411D01*
X409687Y36344D01*
X409784Y36274D01*
X409878Y36200D01*
X409970Y36124D01*
X410059Y36044D01*
X410146Y35962D01*
X410230Y35877D01*
X410311Y35789D01*
X410388Y35699D01*
X410463Y35606D01*
X410535Y35510D01*
X410604Y35412D01*
X410669Y35312D01*
X410731Y35210D01*
X410790Y35106D01*
X410845Y35000D01*
X410896Y34892D01*
X410944Y34783D01*
X410989Y34672D01*
X411029Y34560D01*
X411066Y34446D01*
X411099Y34331D01*
X411129Y34216D01*
X411154Y34099D01*
X411176Y33982D01*
X411193Y33863D01*
X411207Y33745D01*
X411217Y33626D01*
X411223Y33506D01*
X411225Y33387D01*
X411226Y33387D02*
X411226Y31581D01*
X404001Y31581D01*
X418903Y32484D02*
X423418Y30678D01*
X418902Y32484D02*
X418814Y32521D01*
X418728Y32562D01*
X418643Y32606D01*
X418560Y32654D01*
X418480Y32705D01*
X418401Y32759D01*
X418325Y32817D01*
X418251Y32877D01*
X418179Y32941D01*
X418111Y33007D01*
X418045Y33077D01*
X417982Y33148D01*
X417921Y33223D01*
X417864Y33299D01*
X417811Y33378D01*
X417760Y33459D01*
X417713Y33542D01*
X417669Y33627D01*
X417629Y33714D01*
X417592Y33802D01*
X417559Y33892D01*
X417529Y33983D01*
X417504Y34075D01*
X417482Y34168D01*
X417464Y34262D01*
X417449Y34356D01*
X417439Y34451D01*
X417433Y34547D01*
X417430Y34642D01*
X417431Y34738D01*
X417437Y34833D01*
X417446Y34929D01*
X417459Y35023D01*
X417475Y35117D01*
X417496Y35211D01*
X417521Y35303D01*
X417549Y35394D01*
X417581Y35484D01*
X417616Y35573D01*
X417655Y35660D01*
X417698Y35746D01*
X417744Y35830D01*
X417794Y35911D01*
X417846Y35991D01*
X417902Y36069D01*
X417962Y36144D01*
X418024Y36216D01*
X418089Y36286D01*
X418157Y36354D01*
X418227Y36418D01*
X418300Y36480D01*
X418376Y36538D01*
X418454Y36594D01*
X418534Y36646D01*
X418616Y36695D01*
X418700Y36740D01*
X418786Y36782D01*
X418873Y36821D01*
X418962Y36856D01*
X419053Y36887D01*
X419144Y36914D01*
X419237Y36938D01*
X419330Y36958D01*
X419424Y36974D01*
X419519Y36986D01*
X419614Y36995D01*
X419710Y36999D01*
X419805Y37000D01*
X420052Y36993D01*
X420298Y36981D01*
X420544Y36963D01*
X420790Y36938D01*
X421034Y36908D01*
X421278Y36872D01*
X421521Y36831D01*
X421763Y36783D01*
X422004Y36729D01*
X422243Y36670D01*
X422481Y36605D01*
X422717Y36534D01*
X422952Y36458D01*
X423185Y36376D01*
X423415Y36288D01*
X423643Y36195D01*
X423870Y36097D01*
X423419Y30677D02*
X423507Y30640D01*
X423593Y30599D01*
X423678Y30555D01*
X423761Y30507D01*
X423841Y30456D01*
X423920Y30402D01*
X423996Y30344D01*
X424070Y30284D01*
X424142Y30220D01*
X424210Y30154D01*
X424276Y30084D01*
X424339Y30013D01*
X424400Y29938D01*
X424457Y29862D01*
X424510Y29783D01*
X424561Y29702D01*
X424608Y29619D01*
X424652Y29534D01*
X424692Y29447D01*
X424729Y29359D01*
X424762Y29269D01*
X424792Y29178D01*
X424817Y29086D01*
X424839Y28993D01*
X424857Y28899D01*
X424872Y28805D01*
X424882Y28710D01*
X424888Y28614D01*
X424891Y28519D01*
X424890Y28423D01*
X424884Y28328D01*
X424875Y28232D01*
X424862Y28138D01*
X424846Y28044D01*
X424825Y27950D01*
X424800Y27858D01*
X424772Y27767D01*
X424740Y27677D01*
X424705Y27588D01*
X424666Y27501D01*
X424623Y27415D01*
X424577Y27331D01*
X424527Y27250D01*
X424475Y27170D01*
X424419Y27092D01*
X424359Y27017D01*
X424297Y26945D01*
X424232Y26875D01*
X424164Y26807D01*
X424094Y26743D01*
X424021Y26681D01*
X423945Y26623D01*
X423867Y26567D01*
X423787Y26515D01*
X423705Y26466D01*
X423621Y26421D01*
X423535Y26379D01*
X423448Y26340D01*
X423359Y26305D01*
X423268Y26274D01*
X423177Y26247D01*
X423084Y26223D01*
X422991Y26203D01*
X422897Y26187D01*
X422802Y26175D01*
X422707Y26166D01*
X422611Y26162D01*
X422516Y26161D01*
X422515Y26162D02*
X422153Y26171D01*
X421791Y26189D01*
X421430Y26216D01*
X421070Y26251D01*
X420710Y26294D01*
X420351Y26346D01*
X419994Y26407D01*
X419639Y26476D01*
X419285Y26553D01*
X418933Y26639D01*
X418583Y26733D01*
X418235Y26836D01*
X417890Y26946D01*
X417548Y27065D01*
X443144Y26162D02*
X446756Y26162D01*
X443144Y26162D02*
X443026Y26164D01*
X442908Y26170D01*
X442790Y26179D01*
X442673Y26193D01*
X442556Y26210D01*
X442439Y26231D01*
X442324Y26256D01*
X442209Y26285D01*
X442095Y26318D01*
X441983Y26354D01*
X441872Y26394D01*
X441762Y26437D01*
X441653Y26484D01*
X441546Y26534D01*
X441441Y26589D01*
X441338Y26646D01*
X441237Y26707D01*
X441137Y26771D01*
X441040Y26838D01*
X440945Y26908D01*
X440853Y26982D01*
X440762Y27058D01*
X440675Y27138D01*
X440590Y27220D01*
X440508Y27305D01*
X440428Y27392D01*
X440352Y27483D01*
X440278Y27575D01*
X440208Y27670D01*
X440141Y27767D01*
X440077Y27867D01*
X440016Y27968D01*
X439959Y28071D01*
X439904Y28176D01*
X439854Y28283D01*
X439807Y28392D01*
X439764Y28502D01*
X439724Y28613D01*
X439688Y28725D01*
X439655Y28839D01*
X439626Y28954D01*
X439601Y29069D01*
X439580Y29186D01*
X439563Y29303D01*
X439549Y29420D01*
X439540Y29538D01*
X439534Y29656D01*
X439532Y29774D01*
X439531Y29774D02*
X439531Y38806D01*
X439532Y38806D02*
X439534Y38924D01*
X439540Y39042D01*
X439549Y39160D01*
X439563Y39277D01*
X439580Y39394D01*
X439601Y39511D01*
X439626Y39626D01*
X439655Y39741D01*
X439688Y39855D01*
X439724Y39967D01*
X439764Y40078D01*
X439807Y40188D01*
X439854Y40297D01*
X439904Y40404D01*
X439958Y40509D01*
X440016Y40612D01*
X440077Y40713D01*
X440141Y40813D01*
X440208Y40910D01*
X440278Y41005D01*
X440352Y41097D01*
X440428Y41188D01*
X440508Y41275D01*
X440590Y41360D01*
X440675Y41442D01*
X440762Y41522D01*
X440853Y41598D01*
X440945Y41672D01*
X441040Y41742D01*
X441137Y41809D01*
X441237Y41873D01*
X441338Y41934D01*
X441441Y41991D01*
X441546Y42045D01*
X441653Y42096D01*
X441762Y42143D01*
X441872Y42186D01*
X441983Y42226D01*
X442095Y42262D01*
X442209Y42295D01*
X442324Y42324D01*
X442439Y42349D01*
X442556Y42370D01*
X442673Y42387D01*
X442790Y42401D01*
X442908Y42410D01*
X443026Y42416D01*
X443144Y42418D01*
X446756Y42418D01*
X452458Y33387D02*
X452458Y29774D01*
X452458Y33387D02*
X452460Y33506D01*
X452466Y33626D01*
X452476Y33745D01*
X452490Y33863D01*
X452507Y33982D01*
X452529Y34099D01*
X452554Y34216D01*
X452584Y34331D01*
X452617Y34446D01*
X452654Y34560D01*
X452694Y34672D01*
X452739Y34783D01*
X452787Y34892D01*
X452838Y35000D01*
X452893Y35106D01*
X452952Y35210D01*
X453014Y35312D01*
X453079Y35412D01*
X453148Y35510D01*
X453220Y35606D01*
X453295Y35699D01*
X453372Y35789D01*
X453453Y35877D01*
X453537Y35962D01*
X453624Y36044D01*
X453713Y36124D01*
X453805Y36200D01*
X453899Y36274D01*
X453996Y36344D01*
X454094Y36411D01*
X454195Y36475D01*
X454299Y36535D01*
X454404Y36592D01*
X454511Y36645D01*
X454619Y36695D01*
X454729Y36741D01*
X454841Y36783D01*
X454954Y36822D01*
X455068Y36857D01*
X455183Y36888D01*
X455300Y36916D01*
X455417Y36939D01*
X455534Y36959D01*
X455653Y36975D01*
X455772Y36987D01*
X455891Y36995D01*
X456010Y36999D01*
X456130Y36999D01*
X456249Y36995D01*
X456368Y36987D01*
X456487Y36975D01*
X456606Y36959D01*
X456723Y36939D01*
X456840Y36916D01*
X456957Y36888D01*
X457072Y36857D01*
X457186Y36822D01*
X457299Y36783D01*
X457411Y36741D01*
X457521Y36695D01*
X457629Y36645D01*
X457736Y36592D01*
X457841Y36535D01*
X457945Y36475D01*
X458046Y36411D01*
X458144Y36344D01*
X458241Y36274D01*
X458335Y36200D01*
X458427Y36124D01*
X458516Y36044D01*
X458603Y35962D01*
X458687Y35877D01*
X458768Y35789D01*
X458845Y35699D01*
X458920Y35606D01*
X458992Y35510D01*
X459061Y35412D01*
X459126Y35312D01*
X459188Y35210D01*
X459247Y35106D01*
X459302Y35000D01*
X459353Y34892D01*
X459401Y34783D01*
X459446Y34672D01*
X459486Y34560D01*
X459523Y34446D01*
X459556Y34331D01*
X459586Y34216D01*
X459611Y34099D01*
X459633Y33982D01*
X459650Y33863D01*
X459664Y33745D01*
X459674Y33626D01*
X459680Y33506D01*
X459682Y33387D01*
X459683Y33387D02*
X459683Y29774D01*
X459682Y29774D02*
X459680Y29655D01*
X459674Y29535D01*
X459664Y29416D01*
X459650Y29298D01*
X459633Y29179D01*
X459611Y29062D01*
X459586Y28945D01*
X459556Y28830D01*
X459523Y28715D01*
X459486Y28601D01*
X459446Y28489D01*
X459401Y28378D01*
X459353Y28269D01*
X459302Y28161D01*
X459247Y28055D01*
X459188Y27951D01*
X459126Y27849D01*
X459061Y27749D01*
X458992Y27651D01*
X458920Y27555D01*
X458845Y27462D01*
X458768Y27372D01*
X458687Y27284D01*
X458603Y27199D01*
X458516Y27117D01*
X458427Y27037D01*
X458335Y26961D01*
X458241Y26887D01*
X458144Y26817D01*
X458046Y26750D01*
X457945Y26686D01*
X457841Y26626D01*
X457736Y26569D01*
X457629Y26516D01*
X457521Y26466D01*
X457411Y26420D01*
X457299Y26378D01*
X457186Y26339D01*
X457072Y26304D01*
X456957Y26273D01*
X456840Y26245D01*
X456723Y26222D01*
X456606Y26202D01*
X456487Y26186D01*
X456368Y26174D01*
X456249Y26166D01*
X456130Y26162D01*
X456010Y26162D01*
X455891Y26166D01*
X455772Y26174D01*
X455653Y26186D01*
X455534Y26202D01*
X455417Y26222D01*
X455300Y26245D01*
X455183Y26273D01*
X455068Y26304D01*
X454954Y26339D01*
X454841Y26378D01*
X454729Y26420D01*
X454619Y26466D01*
X454511Y26516D01*
X454404Y26569D01*
X454299Y26626D01*
X454195Y26686D01*
X454094Y26750D01*
X453996Y26817D01*
X453899Y26887D01*
X453805Y26961D01*
X453713Y27037D01*
X453624Y27117D01*
X453537Y27199D01*
X453453Y27284D01*
X453372Y27372D01*
X453295Y27462D01*
X453220Y27555D01*
X453148Y27651D01*
X453079Y27749D01*
X453014Y27849D01*
X452952Y27951D01*
X452893Y28055D01*
X452838Y28161D01*
X452787Y28269D01*
X452739Y28378D01*
X452694Y28489D01*
X452654Y28601D01*
X452617Y28715D01*
X452584Y28830D01*
X452554Y28945D01*
X452529Y29062D01*
X452507Y29179D01*
X452490Y29298D01*
X452476Y29416D01*
X452466Y29535D01*
X452460Y29655D01*
X452458Y29774D01*
X466526Y26162D02*
X466526Y36999D01*
X471041Y36999D01*
X471145Y36997D01*
X471248Y36991D01*
X471352Y36981D01*
X471455Y36967D01*
X471557Y36949D01*
X471658Y36928D01*
X471759Y36902D01*
X471858Y36873D01*
X471957Y36840D01*
X472054Y36803D01*
X472149Y36762D01*
X472243Y36718D01*
X472335Y36670D01*
X472425Y36619D01*
X472514Y36564D01*
X472600Y36506D01*
X472683Y36444D01*
X472765Y36380D01*
X472843Y36312D01*
X472919Y36242D01*
X472993Y36169D01*
X473063Y36092D01*
X473131Y36014D01*
X473195Y35932D01*
X473257Y35849D01*
X473315Y35763D01*
X473370Y35674D01*
X473421Y35584D01*
X473469Y35492D01*
X473513Y35398D01*
X473554Y35303D01*
X473591Y35206D01*
X473624Y35107D01*
X473653Y35008D01*
X473679Y34907D01*
X473700Y34806D01*
X473718Y34704D01*
X473732Y34601D01*
X473742Y34497D01*
X473748Y34394D01*
X473750Y34290D01*
X473751Y34290D02*
X473751Y26162D01*
X481115Y26162D02*
X481115Y36999D01*
X485630Y36999D01*
X485734Y36997D01*
X485837Y36991D01*
X485941Y36981D01*
X486044Y36967D01*
X486146Y36949D01*
X486247Y36928D01*
X486348Y36902D01*
X486447Y36873D01*
X486546Y36840D01*
X486643Y36803D01*
X486738Y36762D01*
X486832Y36718D01*
X486924Y36670D01*
X487014Y36619D01*
X487103Y36564D01*
X487189Y36506D01*
X487272Y36444D01*
X487354Y36380D01*
X487432Y36312D01*
X487508Y36242D01*
X487582Y36169D01*
X487652Y36092D01*
X487720Y36014D01*
X487784Y35932D01*
X487846Y35849D01*
X487904Y35763D01*
X487959Y35674D01*
X488010Y35584D01*
X488058Y35492D01*
X488102Y35398D01*
X488143Y35303D01*
X488180Y35206D01*
X488213Y35107D01*
X488242Y35008D01*
X488268Y34907D01*
X488289Y34806D01*
X488307Y34704D01*
X488321Y34601D01*
X488331Y34497D01*
X488337Y34394D01*
X488339Y34290D01*
X488340Y34290D02*
X488340Y26162D01*
X497892Y26162D02*
X502408Y26162D01*
X497892Y26162D02*
X497791Y26164D01*
X497690Y26170D01*
X497589Y26179D01*
X497488Y26192D01*
X497388Y26209D01*
X497289Y26230D01*
X497191Y26254D01*
X497094Y26282D01*
X496997Y26314D01*
X496902Y26349D01*
X496809Y26388D01*
X496717Y26430D01*
X496626Y26476D01*
X496538Y26525D01*
X496451Y26577D01*
X496366Y26633D01*
X496283Y26691D01*
X496203Y26753D01*
X496125Y26818D01*
X496049Y26885D01*
X495976Y26955D01*
X495906Y27028D01*
X495839Y27104D01*
X495774Y27182D01*
X495712Y27262D01*
X495654Y27345D01*
X495598Y27430D01*
X495546Y27516D01*
X495497Y27605D01*
X495451Y27696D01*
X495409Y27788D01*
X495370Y27881D01*
X495335Y27976D01*
X495303Y28073D01*
X495275Y28170D01*
X495251Y28268D01*
X495230Y28367D01*
X495213Y28467D01*
X495200Y28568D01*
X495191Y28669D01*
X495185Y28770D01*
X495183Y28871D01*
X495183Y33387D01*
X495185Y33506D01*
X495191Y33626D01*
X495201Y33745D01*
X495215Y33863D01*
X495232Y33982D01*
X495254Y34099D01*
X495279Y34216D01*
X495309Y34331D01*
X495342Y34446D01*
X495379Y34560D01*
X495419Y34672D01*
X495464Y34783D01*
X495512Y34892D01*
X495563Y35000D01*
X495618Y35106D01*
X495677Y35210D01*
X495739Y35312D01*
X495804Y35412D01*
X495873Y35510D01*
X495945Y35606D01*
X496020Y35699D01*
X496097Y35789D01*
X496178Y35877D01*
X496262Y35962D01*
X496349Y36044D01*
X496438Y36124D01*
X496530Y36200D01*
X496624Y36274D01*
X496721Y36344D01*
X496819Y36411D01*
X496920Y36475D01*
X497024Y36535D01*
X497129Y36592D01*
X497236Y36645D01*
X497344Y36695D01*
X497454Y36741D01*
X497566Y36783D01*
X497679Y36822D01*
X497793Y36857D01*
X497908Y36888D01*
X498025Y36916D01*
X498142Y36939D01*
X498259Y36959D01*
X498378Y36975D01*
X498497Y36987D01*
X498616Y36995D01*
X498735Y36999D01*
X498855Y36999D01*
X498974Y36995D01*
X499093Y36987D01*
X499212Y36975D01*
X499331Y36959D01*
X499448Y36939D01*
X499565Y36916D01*
X499682Y36888D01*
X499797Y36857D01*
X499911Y36822D01*
X500024Y36783D01*
X500136Y36741D01*
X500246Y36695D01*
X500354Y36645D01*
X500461Y36592D01*
X500566Y36535D01*
X500670Y36475D01*
X500771Y36411D01*
X500869Y36344D01*
X500966Y36274D01*
X501060Y36200D01*
X501152Y36124D01*
X501241Y36044D01*
X501328Y35962D01*
X501412Y35877D01*
X501493Y35789D01*
X501570Y35699D01*
X501645Y35606D01*
X501717Y35510D01*
X501786Y35412D01*
X501851Y35312D01*
X501913Y35210D01*
X501972Y35106D01*
X502027Y35000D01*
X502078Y34892D01*
X502126Y34783D01*
X502171Y34672D01*
X502211Y34560D01*
X502248Y34446D01*
X502281Y34331D01*
X502311Y34216D01*
X502336Y34099D01*
X502358Y33982D01*
X502375Y33863D01*
X502389Y33745D01*
X502399Y33626D01*
X502405Y33506D01*
X502407Y33387D01*
X502408Y33387D02*
X502408Y31581D01*
X495183Y31581D01*
X511457Y26162D02*
X515069Y26162D01*
X511457Y26162D02*
X511356Y26164D01*
X511255Y26170D01*
X511154Y26179D01*
X511053Y26192D01*
X510953Y26209D01*
X510854Y26230D01*
X510756Y26254D01*
X510659Y26282D01*
X510562Y26314D01*
X510467Y26349D01*
X510374Y26388D01*
X510282Y26430D01*
X510191Y26476D01*
X510103Y26525D01*
X510016Y26577D01*
X509931Y26633D01*
X509848Y26691D01*
X509768Y26753D01*
X509690Y26818D01*
X509614Y26885D01*
X509541Y26955D01*
X509471Y27028D01*
X509404Y27104D01*
X509339Y27182D01*
X509277Y27262D01*
X509219Y27345D01*
X509163Y27430D01*
X509111Y27516D01*
X509062Y27605D01*
X509016Y27696D01*
X508974Y27788D01*
X508935Y27881D01*
X508900Y27976D01*
X508868Y28073D01*
X508840Y28170D01*
X508816Y28268D01*
X508795Y28367D01*
X508778Y28467D01*
X508765Y28568D01*
X508756Y28669D01*
X508750Y28770D01*
X508748Y28871D01*
X508748Y34290D01*
X508750Y34391D01*
X508756Y34492D01*
X508765Y34593D01*
X508778Y34694D01*
X508795Y34794D01*
X508816Y34893D01*
X508840Y34991D01*
X508868Y35088D01*
X508900Y35185D01*
X508935Y35280D01*
X508974Y35373D01*
X509016Y35465D01*
X509062Y35556D01*
X509111Y35645D01*
X509163Y35731D01*
X509219Y35816D01*
X509277Y35899D01*
X509339Y35979D01*
X509404Y36057D01*
X509471Y36133D01*
X509541Y36206D01*
X509614Y36276D01*
X509690Y36343D01*
X509768Y36408D01*
X509848Y36470D01*
X509931Y36528D01*
X510016Y36584D01*
X510103Y36636D01*
X510191Y36685D01*
X510282Y36731D01*
X510374Y36773D01*
X510467Y36812D01*
X510562Y36847D01*
X510659Y36879D01*
X510756Y36907D01*
X510854Y36931D01*
X510953Y36952D01*
X511053Y36969D01*
X511154Y36982D01*
X511255Y36991D01*
X511356Y36997D01*
X511457Y36999D01*
X515069Y36999D01*
X519417Y36999D02*
X524835Y36999D01*
X521223Y42418D02*
X521223Y28871D01*
X521225Y28770D01*
X521231Y28669D01*
X521240Y28568D01*
X521253Y28467D01*
X521270Y28367D01*
X521291Y28268D01*
X521315Y28170D01*
X521343Y28073D01*
X521375Y27976D01*
X521410Y27881D01*
X521449Y27788D01*
X521491Y27696D01*
X521537Y27605D01*
X521586Y27516D01*
X521638Y27430D01*
X521694Y27345D01*
X521752Y27262D01*
X521814Y27182D01*
X521879Y27104D01*
X521946Y27028D01*
X522016Y26955D01*
X522089Y26885D01*
X522165Y26818D01*
X522243Y26753D01*
X522323Y26691D01*
X522406Y26633D01*
X522491Y26577D01*
X522578Y26525D01*
X522666Y26476D01*
X522757Y26430D01*
X522849Y26388D01*
X522942Y26349D01*
X523037Y26314D01*
X523134Y26282D01*
X523231Y26254D01*
X523329Y26230D01*
X523428Y26209D01*
X523528Y26192D01*
X523629Y26179D01*
X523730Y26170D01*
X523831Y26164D01*
X523932Y26162D01*
X524835Y26162D01*
X530579Y26162D02*
X530579Y36999D01*
X530127Y41515D02*
X530127Y42418D01*
X531030Y42418D01*
X531030Y41515D01*
X530127Y41515D01*
X536866Y33387D02*
X536866Y29774D01*
X536867Y33387D02*
X536869Y33506D01*
X536875Y33626D01*
X536885Y33745D01*
X536899Y33863D01*
X536916Y33982D01*
X536938Y34099D01*
X536963Y34216D01*
X536993Y34331D01*
X537026Y34446D01*
X537063Y34560D01*
X537103Y34672D01*
X537148Y34783D01*
X537196Y34892D01*
X537247Y35000D01*
X537302Y35106D01*
X537361Y35210D01*
X537423Y35312D01*
X537488Y35412D01*
X537557Y35510D01*
X537629Y35606D01*
X537704Y35699D01*
X537781Y35789D01*
X537862Y35877D01*
X537946Y35962D01*
X538033Y36044D01*
X538122Y36124D01*
X538214Y36200D01*
X538308Y36274D01*
X538405Y36344D01*
X538503Y36411D01*
X538604Y36475D01*
X538708Y36535D01*
X538813Y36592D01*
X538920Y36645D01*
X539028Y36695D01*
X539138Y36741D01*
X539250Y36783D01*
X539363Y36822D01*
X539477Y36857D01*
X539592Y36888D01*
X539709Y36916D01*
X539826Y36939D01*
X539943Y36959D01*
X540062Y36975D01*
X540181Y36987D01*
X540300Y36995D01*
X540419Y36999D01*
X540539Y36999D01*
X540658Y36995D01*
X540777Y36987D01*
X540896Y36975D01*
X541015Y36959D01*
X541132Y36939D01*
X541249Y36916D01*
X541366Y36888D01*
X541481Y36857D01*
X541595Y36822D01*
X541708Y36783D01*
X541820Y36741D01*
X541930Y36695D01*
X542038Y36645D01*
X542145Y36592D01*
X542250Y36535D01*
X542354Y36475D01*
X542455Y36411D01*
X542553Y36344D01*
X542650Y36274D01*
X542744Y36200D01*
X542836Y36124D01*
X542925Y36044D01*
X543012Y35962D01*
X543096Y35877D01*
X543177Y35789D01*
X543254Y35699D01*
X543329Y35606D01*
X543401Y35510D01*
X543470Y35412D01*
X543535Y35312D01*
X543597Y35210D01*
X543656Y35106D01*
X543711Y35000D01*
X543762Y34892D01*
X543810Y34783D01*
X543855Y34672D01*
X543895Y34560D01*
X543932Y34446D01*
X543965Y34331D01*
X543995Y34216D01*
X544020Y34099D01*
X544042Y33982D01*
X544059Y33863D01*
X544073Y33745D01*
X544083Y33626D01*
X544089Y33506D01*
X544091Y33387D01*
X544091Y29774D01*
X544089Y29655D01*
X544083Y29535D01*
X544073Y29416D01*
X544059Y29298D01*
X544042Y29179D01*
X544020Y29062D01*
X543995Y28945D01*
X543965Y28830D01*
X543932Y28715D01*
X543895Y28601D01*
X543855Y28489D01*
X543810Y28378D01*
X543762Y28269D01*
X543711Y28161D01*
X543656Y28055D01*
X543597Y27951D01*
X543535Y27849D01*
X543470Y27749D01*
X543401Y27651D01*
X543329Y27555D01*
X543254Y27462D01*
X543177Y27372D01*
X543096Y27284D01*
X543012Y27199D01*
X542925Y27117D01*
X542836Y27037D01*
X542744Y26961D01*
X542650Y26887D01*
X542553Y26817D01*
X542455Y26750D01*
X542354Y26686D01*
X542250Y26626D01*
X542145Y26569D01*
X542038Y26516D01*
X541930Y26466D01*
X541820Y26420D01*
X541708Y26378D01*
X541595Y26339D01*
X541481Y26304D01*
X541366Y26273D01*
X541249Y26245D01*
X541132Y26222D01*
X541015Y26202D01*
X540896Y26186D01*
X540777Y26174D01*
X540658Y26166D01*
X540539Y26162D01*
X540419Y26162D01*
X540300Y26166D01*
X540181Y26174D01*
X540062Y26186D01*
X539943Y26202D01*
X539826Y26222D01*
X539709Y26245D01*
X539592Y26273D01*
X539477Y26304D01*
X539363Y26339D01*
X539250Y26378D01*
X539138Y26420D01*
X539028Y26466D01*
X538920Y26516D01*
X538813Y26569D01*
X538708Y26626D01*
X538604Y26686D01*
X538503Y26750D01*
X538405Y26817D01*
X538308Y26887D01*
X538214Y26961D01*
X538122Y27037D01*
X538033Y27117D01*
X537946Y27199D01*
X537862Y27284D01*
X537781Y27372D01*
X537704Y27462D01*
X537629Y27555D01*
X537557Y27651D01*
X537488Y27749D01*
X537423Y27849D01*
X537361Y27951D01*
X537302Y28055D01*
X537247Y28161D01*
X537196Y28269D01*
X537148Y28378D01*
X537103Y28489D01*
X537063Y28601D01*
X537026Y28715D01*
X536993Y28830D01*
X536963Y28945D01*
X536938Y29062D01*
X536916Y29179D01*
X536899Y29298D01*
X536885Y29416D01*
X536875Y29535D01*
X536869Y29655D01*
X536867Y29774D01*
X550934Y26162D02*
X550934Y36999D01*
X555450Y36999D01*
X555554Y36997D01*
X555657Y36991D01*
X555761Y36981D01*
X555864Y36967D01*
X555966Y36949D01*
X556067Y36928D01*
X556168Y36902D01*
X556267Y36873D01*
X556366Y36840D01*
X556463Y36803D01*
X556558Y36762D01*
X556652Y36718D01*
X556744Y36670D01*
X556834Y36619D01*
X556923Y36564D01*
X557009Y36506D01*
X557092Y36444D01*
X557174Y36380D01*
X557252Y36312D01*
X557328Y36242D01*
X557402Y36169D01*
X557472Y36092D01*
X557540Y36014D01*
X557604Y35932D01*
X557666Y35849D01*
X557724Y35763D01*
X557779Y35674D01*
X557830Y35584D01*
X557878Y35492D01*
X557922Y35398D01*
X557963Y35303D01*
X558000Y35206D01*
X558033Y35107D01*
X558062Y35008D01*
X558088Y34907D01*
X558109Y34806D01*
X558127Y34704D01*
X558141Y34601D01*
X558151Y34497D01*
X558157Y34394D01*
X558159Y34290D01*
X558159Y26162D01*
X566357Y32484D02*
X570873Y30678D01*
X566357Y32484D02*
X566269Y32521D01*
X566183Y32562D01*
X566098Y32606D01*
X566015Y32654D01*
X565935Y32705D01*
X565856Y32759D01*
X565780Y32817D01*
X565706Y32877D01*
X565634Y32941D01*
X565566Y33007D01*
X565500Y33077D01*
X565437Y33148D01*
X565376Y33223D01*
X565319Y33299D01*
X565266Y33378D01*
X565215Y33459D01*
X565168Y33542D01*
X565124Y33627D01*
X565084Y33714D01*
X565047Y33802D01*
X565014Y33892D01*
X564984Y33983D01*
X564959Y34075D01*
X564937Y34168D01*
X564919Y34262D01*
X564904Y34356D01*
X564894Y34451D01*
X564888Y34547D01*
X564885Y34642D01*
X564886Y34738D01*
X564892Y34833D01*
X564901Y34929D01*
X564914Y35023D01*
X564930Y35117D01*
X564951Y35211D01*
X564976Y35303D01*
X565004Y35394D01*
X565036Y35484D01*
X565071Y35573D01*
X565110Y35660D01*
X565153Y35746D01*
X565199Y35830D01*
X565249Y35911D01*
X565301Y35991D01*
X565357Y36069D01*
X565417Y36144D01*
X565479Y36216D01*
X565544Y36286D01*
X565612Y36354D01*
X565682Y36418D01*
X565755Y36480D01*
X565831Y36538D01*
X565909Y36594D01*
X565989Y36646D01*
X566071Y36695D01*
X566155Y36740D01*
X566241Y36782D01*
X566328Y36821D01*
X566417Y36856D01*
X566508Y36887D01*
X566599Y36914D01*
X566692Y36938D01*
X566785Y36958D01*
X566879Y36974D01*
X566974Y36986D01*
X567069Y36995D01*
X567165Y36999D01*
X567260Y37000D01*
X567507Y36993D01*
X567753Y36981D01*
X567999Y36963D01*
X568245Y36938D01*
X568489Y36908D01*
X568733Y36872D01*
X568976Y36831D01*
X569218Y36783D01*
X569459Y36729D01*
X569698Y36670D01*
X569936Y36605D01*
X570172Y36534D01*
X570407Y36458D01*
X570640Y36376D01*
X570870Y36288D01*
X571098Y36195D01*
X571325Y36097D01*
X570873Y30677D02*
X570961Y30640D01*
X571047Y30599D01*
X571132Y30555D01*
X571215Y30507D01*
X571295Y30456D01*
X571374Y30402D01*
X571450Y30344D01*
X571524Y30284D01*
X571596Y30220D01*
X571664Y30154D01*
X571730Y30084D01*
X571793Y30013D01*
X571854Y29938D01*
X571911Y29862D01*
X571964Y29783D01*
X572015Y29702D01*
X572062Y29619D01*
X572106Y29534D01*
X572146Y29447D01*
X572183Y29359D01*
X572216Y29269D01*
X572246Y29178D01*
X572271Y29086D01*
X572293Y28993D01*
X572311Y28899D01*
X572326Y28805D01*
X572336Y28710D01*
X572342Y28614D01*
X572345Y28519D01*
X572344Y28423D01*
X572338Y28328D01*
X572329Y28232D01*
X572316Y28138D01*
X572300Y28044D01*
X572279Y27950D01*
X572254Y27858D01*
X572226Y27767D01*
X572194Y27677D01*
X572159Y27588D01*
X572120Y27501D01*
X572077Y27415D01*
X572031Y27331D01*
X571981Y27250D01*
X571929Y27170D01*
X571873Y27092D01*
X571813Y27017D01*
X571751Y26945D01*
X571686Y26875D01*
X571618Y26807D01*
X571548Y26743D01*
X571475Y26681D01*
X571399Y26623D01*
X571321Y26567D01*
X571241Y26515D01*
X571159Y26466D01*
X571075Y26421D01*
X570989Y26379D01*
X570902Y26340D01*
X570813Y26305D01*
X570722Y26274D01*
X570631Y26247D01*
X570538Y26223D01*
X570445Y26203D01*
X570351Y26187D01*
X570256Y26175D01*
X570161Y26166D01*
X570065Y26162D01*
X569970Y26161D01*
X569969Y26162D02*
X569607Y26171D01*
X569245Y26189D01*
X568884Y26216D01*
X568524Y26251D01*
X568164Y26294D01*
X567805Y26346D01*
X567448Y26407D01*
X567093Y26476D01*
X566739Y26553D01*
X566387Y26639D01*
X566037Y26733D01*
X565689Y26836D01*
X565344Y26946D01*
X565002Y27065D01*
X381762Y724662D02*
X381762Y740918D01*
X381762Y724662D02*
X388987Y724662D01*
X395279Y724662D02*
X395279Y740918D01*
X399795Y740918D01*
X399926Y740916D01*
X400058Y740910D01*
X400189Y740901D01*
X400319Y740887D01*
X400450Y740870D01*
X400579Y740849D01*
X400708Y740825D01*
X400836Y740796D01*
X400964Y740764D01*
X401090Y740728D01*
X401215Y740689D01*
X401340Y740646D01*
X401462Y740599D01*
X401584Y740549D01*
X401704Y740495D01*
X401822Y740438D01*
X401938Y740377D01*
X402053Y740313D01*
X402166Y740246D01*
X402277Y740175D01*
X402385Y740101D01*
X402492Y740024D01*
X402596Y739944D01*
X402698Y739861D01*
X402797Y739776D01*
X402894Y739687D01*
X402988Y739595D01*
X403080Y739501D01*
X403169Y739404D01*
X403254Y739305D01*
X403337Y739203D01*
X403417Y739099D01*
X403494Y738992D01*
X403568Y738884D01*
X403639Y738773D01*
X403706Y738660D01*
X403770Y738545D01*
X403831Y738429D01*
X403888Y738311D01*
X403942Y738191D01*
X403992Y738069D01*
X404039Y737947D01*
X404082Y737822D01*
X404121Y737697D01*
X404157Y737571D01*
X404189Y737443D01*
X404218Y737315D01*
X404242Y737186D01*
X404263Y737057D01*
X404280Y736926D01*
X404294Y736796D01*
X404303Y736665D01*
X404309Y736533D01*
X404311Y736402D01*
X404310Y736402D02*
X404310Y729178D01*
X404311Y729178D02*
X404309Y729047D01*
X404303Y728915D01*
X404294Y728784D01*
X404280Y728654D01*
X404263Y728523D01*
X404242Y728394D01*
X404218Y728265D01*
X404189Y728137D01*
X404157Y728009D01*
X404121Y727883D01*
X404082Y727758D01*
X404039Y727633D01*
X403992Y727511D01*
X403942Y727389D01*
X403888Y727269D01*
X403831Y727151D01*
X403770Y727035D01*
X403706Y726920D01*
X403639Y726807D01*
X403568Y726696D01*
X403494Y726588D01*
X403417Y726481D01*
X403337Y726377D01*
X403254Y726275D01*
X403169Y726176D01*
X403080Y726079D01*
X402988Y725985D01*
X402894Y725893D01*
X402797Y725804D01*
X402698Y725719D01*
X402596Y725636D01*
X402492Y725556D01*
X402385Y725479D01*
X402277Y725405D01*
X402166Y725334D01*
X402053Y725267D01*
X401938Y725203D01*
X401822Y725142D01*
X401704Y725085D01*
X401584Y725031D01*
X401462Y724981D01*
X401340Y724934D01*
X401215Y724891D01*
X401090Y724852D01*
X400964Y724816D01*
X400836Y724784D01*
X400708Y724755D01*
X400579Y724731D01*
X400449Y724710D01*
X400319Y724693D01*
X400189Y724679D01*
X400058Y724670D01*
X399926Y724664D01*
X399795Y724662D01*
X395279Y724662D01*
X412044Y724662D02*
X412044Y740918D01*
X416560Y740918D01*
X416693Y740916D01*
X416825Y740910D01*
X416957Y740900D01*
X417089Y740887D01*
X417221Y740869D01*
X417351Y740848D01*
X417482Y740823D01*
X417611Y740794D01*
X417739Y740761D01*
X417867Y740725D01*
X417993Y740685D01*
X418118Y740641D01*
X418242Y740593D01*
X418364Y740542D01*
X418485Y740487D01*
X418604Y740429D01*
X418722Y740367D01*
X418837Y740302D01*
X418951Y740233D01*
X419062Y740162D01*
X419171Y740086D01*
X419278Y740008D01*
X419383Y739927D01*
X419485Y739842D01*
X419585Y739755D01*
X419682Y739665D01*
X419777Y739572D01*
X419868Y739476D01*
X419957Y739378D01*
X420043Y739277D01*
X420126Y739173D01*
X420206Y739067D01*
X420282Y738959D01*
X420356Y738849D01*
X420426Y738736D01*
X420493Y738622D01*
X420556Y738505D01*
X420616Y738387D01*
X420673Y738267D01*
X420726Y738145D01*
X420775Y738022D01*
X420821Y737898D01*
X420863Y737772D01*
X420901Y737645D01*
X420936Y737517D01*
X420967Y737388D01*
X420994Y737259D01*
X421017Y737128D01*
X421037Y736997D01*
X421052Y736865D01*
X421064Y736733D01*
X421072Y736601D01*
X421076Y736468D01*
X421076Y736336D01*
X421072Y736203D01*
X421064Y736071D01*
X421052Y735939D01*
X421037Y735807D01*
X421017Y735676D01*
X420994Y735545D01*
X420967Y735416D01*
X420936Y735287D01*
X420901Y735159D01*
X420863Y735032D01*
X420821Y734906D01*
X420775Y734782D01*
X420726Y734659D01*
X420673Y734537D01*
X420616Y734417D01*
X420556Y734299D01*
X420493Y734182D01*
X420426Y734068D01*
X420356Y733955D01*
X420282Y733845D01*
X420206Y733737D01*
X420126Y733631D01*
X420043Y733527D01*
X419957Y733426D01*
X419868Y733328D01*
X419777Y733232D01*
X419682Y733139D01*
X419585Y733049D01*
X419485Y732962D01*
X419383Y732877D01*
X419278Y732796D01*
X419171Y732718D01*
X419062Y732642D01*
X418951Y732571D01*
X418837Y732502D01*
X418722Y732437D01*
X418604Y732375D01*
X418485Y732317D01*
X418364Y732262D01*
X418242Y732211D01*
X418118Y732163D01*
X417993Y732119D01*
X417867Y732079D01*
X417739Y732043D01*
X417611Y732010D01*
X417482Y731981D01*
X417351Y731956D01*
X417221Y731935D01*
X417089Y731917D01*
X416957Y731904D01*
X416825Y731894D01*
X416693Y731888D01*
X416560Y731886D01*
X416560Y731887D02*
X412044Y731887D01*
X417463Y731887D02*
X421075Y724662D01*
X439493Y724662D02*
X443106Y724662D01*
X439493Y724662D02*
X439375Y724664D01*
X439257Y724670D01*
X439139Y724679D01*
X439022Y724693D01*
X438905Y724710D01*
X438788Y724731D01*
X438673Y724756D01*
X438558Y724785D01*
X438444Y724818D01*
X438332Y724854D01*
X438221Y724894D01*
X438111Y724937D01*
X438002Y724984D01*
X437895Y725034D01*
X437790Y725089D01*
X437687Y725146D01*
X437586Y725207D01*
X437486Y725271D01*
X437389Y725338D01*
X437294Y725408D01*
X437202Y725482D01*
X437111Y725558D01*
X437024Y725638D01*
X436939Y725720D01*
X436857Y725805D01*
X436777Y725892D01*
X436701Y725983D01*
X436627Y726075D01*
X436557Y726170D01*
X436490Y726267D01*
X436426Y726367D01*
X436365Y726468D01*
X436308Y726571D01*
X436253Y726676D01*
X436203Y726783D01*
X436156Y726892D01*
X436113Y727002D01*
X436073Y727113D01*
X436037Y727225D01*
X436004Y727339D01*
X435975Y727454D01*
X435950Y727569D01*
X435929Y727686D01*
X435912Y727803D01*
X435898Y727920D01*
X435889Y728038D01*
X435883Y728156D01*
X435881Y728274D01*
X435881Y737306D01*
X435883Y737424D01*
X435889Y737542D01*
X435898Y737660D01*
X435912Y737777D01*
X435929Y737894D01*
X435950Y738011D01*
X435975Y738126D01*
X436004Y738241D01*
X436037Y738355D01*
X436073Y738467D01*
X436113Y738578D01*
X436156Y738688D01*
X436203Y738797D01*
X436253Y738904D01*
X436307Y739009D01*
X436365Y739112D01*
X436426Y739213D01*
X436490Y739313D01*
X436557Y739410D01*
X436627Y739505D01*
X436701Y739597D01*
X436777Y739688D01*
X436857Y739775D01*
X436939Y739860D01*
X437024Y739942D01*
X437111Y740022D01*
X437202Y740098D01*
X437294Y740172D01*
X437389Y740242D01*
X437486Y740309D01*
X437586Y740373D01*
X437687Y740434D01*
X437790Y740491D01*
X437895Y740545D01*
X438002Y740596D01*
X438111Y740643D01*
X438221Y740686D01*
X438332Y740726D01*
X438444Y740762D01*
X438558Y740795D01*
X438673Y740824D01*
X438788Y740849D01*
X438905Y740870D01*
X439022Y740887D01*
X439139Y740901D01*
X439257Y740910D01*
X439375Y740916D01*
X439493Y740918D01*
X443106Y740918D01*
X448808Y731887D02*
X448808Y728274D01*
X448808Y731887D02*
X448810Y732006D01*
X448816Y732126D01*
X448826Y732245D01*
X448840Y732363D01*
X448857Y732482D01*
X448879Y732599D01*
X448904Y732716D01*
X448934Y732831D01*
X448967Y732946D01*
X449004Y733060D01*
X449044Y733172D01*
X449089Y733283D01*
X449137Y733392D01*
X449188Y733500D01*
X449243Y733606D01*
X449302Y733710D01*
X449364Y733812D01*
X449429Y733912D01*
X449498Y734010D01*
X449570Y734106D01*
X449645Y734199D01*
X449722Y734289D01*
X449803Y734377D01*
X449887Y734462D01*
X449974Y734544D01*
X450063Y734624D01*
X450155Y734700D01*
X450249Y734774D01*
X450346Y734844D01*
X450444Y734911D01*
X450545Y734975D01*
X450649Y735035D01*
X450754Y735092D01*
X450861Y735145D01*
X450969Y735195D01*
X451079Y735241D01*
X451191Y735283D01*
X451304Y735322D01*
X451418Y735357D01*
X451533Y735388D01*
X451650Y735416D01*
X451767Y735439D01*
X451884Y735459D01*
X452003Y735475D01*
X452122Y735487D01*
X452241Y735495D01*
X452360Y735499D01*
X452480Y735499D01*
X452599Y735495D01*
X452718Y735487D01*
X452837Y735475D01*
X452956Y735459D01*
X453073Y735439D01*
X453190Y735416D01*
X453307Y735388D01*
X453422Y735357D01*
X453536Y735322D01*
X453649Y735283D01*
X453761Y735241D01*
X453871Y735195D01*
X453979Y735145D01*
X454086Y735092D01*
X454191Y735035D01*
X454295Y734975D01*
X454396Y734911D01*
X454494Y734844D01*
X454591Y734774D01*
X454685Y734700D01*
X454777Y734624D01*
X454866Y734544D01*
X454953Y734462D01*
X455037Y734377D01*
X455118Y734289D01*
X455195Y734199D01*
X455270Y734106D01*
X455342Y734010D01*
X455411Y733912D01*
X455476Y733812D01*
X455538Y733710D01*
X455597Y733606D01*
X455652Y733500D01*
X455703Y733392D01*
X455751Y733283D01*
X455796Y733172D01*
X455836Y733060D01*
X455873Y732946D01*
X455906Y732831D01*
X455936Y732716D01*
X455961Y732599D01*
X455983Y732482D01*
X456000Y732363D01*
X456014Y732245D01*
X456024Y732126D01*
X456030Y732006D01*
X456032Y731887D01*
X456032Y728274D01*
X456030Y728155D01*
X456024Y728035D01*
X456014Y727916D01*
X456000Y727798D01*
X455983Y727679D01*
X455961Y727562D01*
X455936Y727445D01*
X455906Y727330D01*
X455873Y727215D01*
X455836Y727101D01*
X455796Y726989D01*
X455751Y726878D01*
X455703Y726769D01*
X455652Y726661D01*
X455597Y726555D01*
X455538Y726451D01*
X455476Y726349D01*
X455411Y726249D01*
X455342Y726151D01*
X455270Y726055D01*
X455195Y725962D01*
X455118Y725872D01*
X455037Y725784D01*
X454953Y725699D01*
X454866Y725617D01*
X454777Y725537D01*
X454685Y725461D01*
X454591Y725387D01*
X454494Y725317D01*
X454396Y725250D01*
X454295Y725186D01*
X454191Y725126D01*
X454086Y725069D01*
X453979Y725016D01*
X453871Y724966D01*
X453761Y724920D01*
X453649Y724878D01*
X453536Y724839D01*
X453422Y724804D01*
X453307Y724773D01*
X453190Y724745D01*
X453073Y724722D01*
X452956Y724702D01*
X452837Y724686D01*
X452718Y724674D01*
X452599Y724666D01*
X452480Y724662D01*
X452360Y724662D01*
X452241Y724666D01*
X452122Y724674D01*
X452003Y724686D01*
X451884Y724702D01*
X451767Y724722D01*
X451650Y724745D01*
X451533Y724773D01*
X451418Y724804D01*
X451304Y724839D01*
X451191Y724878D01*
X451079Y724920D01*
X450969Y724966D01*
X450861Y725016D01*
X450754Y725069D01*
X450649Y725126D01*
X450545Y725186D01*
X450444Y725250D01*
X450346Y725317D01*
X450249Y725387D01*
X450155Y725461D01*
X450063Y725537D01*
X449974Y725617D01*
X449887Y725699D01*
X449803Y725784D01*
X449722Y725872D01*
X449645Y725962D01*
X449570Y726055D01*
X449498Y726151D01*
X449429Y726249D01*
X449364Y726349D01*
X449302Y726451D01*
X449243Y726555D01*
X449188Y726661D01*
X449137Y726769D01*
X449089Y726878D01*
X449044Y726989D01*
X449004Y727101D01*
X448967Y727215D01*
X448934Y727330D01*
X448904Y727445D01*
X448879Y727562D01*
X448857Y727679D01*
X448840Y727798D01*
X448826Y727916D01*
X448816Y728035D01*
X448810Y728155D01*
X448808Y728274D01*
X462876Y724662D02*
X462876Y735499D01*
X467391Y735499D01*
X467495Y735497D01*
X467598Y735491D01*
X467702Y735481D01*
X467805Y735467D01*
X467907Y735449D01*
X468008Y735428D01*
X468109Y735402D01*
X468208Y735373D01*
X468307Y735340D01*
X468404Y735303D01*
X468499Y735262D01*
X468593Y735218D01*
X468685Y735170D01*
X468775Y735119D01*
X468864Y735064D01*
X468950Y735006D01*
X469033Y734944D01*
X469115Y734880D01*
X469193Y734812D01*
X469269Y734742D01*
X469343Y734669D01*
X469413Y734592D01*
X469481Y734514D01*
X469545Y734432D01*
X469607Y734349D01*
X469665Y734263D01*
X469720Y734174D01*
X469771Y734084D01*
X469819Y733992D01*
X469863Y733898D01*
X469904Y733803D01*
X469941Y733706D01*
X469974Y733607D01*
X470003Y733508D01*
X470029Y733407D01*
X470050Y733306D01*
X470068Y733204D01*
X470082Y733101D01*
X470092Y732997D01*
X470098Y732894D01*
X470100Y732790D01*
X470100Y724662D01*
X477465Y724662D02*
X477465Y735499D01*
X481980Y735499D01*
X482084Y735497D01*
X482187Y735491D01*
X482291Y735481D01*
X482394Y735467D01*
X482496Y735449D01*
X482597Y735428D01*
X482698Y735402D01*
X482797Y735373D01*
X482896Y735340D01*
X482993Y735303D01*
X483088Y735262D01*
X483182Y735218D01*
X483274Y735170D01*
X483364Y735119D01*
X483453Y735064D01*
X483539Y735006D01*
X483622Y734944D01*
X483704Y734880D01*
X483782Y734812D01*
X483858Y734742D01*
X483932Y734669D01*
X484002Y734592D01*
X484070Y734514D01*
X484134Y734432D01*
X484196Y734349D01*
X484254Y734263D01*
X484309Y734174D01*
X484360Y734084D01*
X484408Y733992D01*
X484452Y733898D01*
X484493Y733803D01*
X484530Y733706D01*
X484563Y733607D01*
X484592Y733508D01*
X484618Y733407D01*
X484639Y733306D01*
X484657Y733204D01*
X484671Y733101D01*
X484681Y732997D01*
X484687Y732894D01*
X484689Y732790D01*
X484690Y732790D02*
X484690Y724662D01*
X494242Y724662D02*
X498758Y724662D01*
X494242Y724662D02*
X494141Y724664D01*
X494040Y724670D01*
X493939Y724679D01*
X493838Y724692D01*
X493738Y724709D01*
X493639Y724730D01*
X493541Y724754D01*
X493444Y724782D01*
X493347Y724814D01*
X493252Y724849D01*
X493159Y724888D01*
X493067Y724930D01*
X492976Y724976D01*
X492888Y725025D01*
X492801Y725077D01*
X492716Y725133D01*
X492633Y725191D01*
X492553Y725253D01*
X492475Y725318D01*
X492399Y725385D01*
X492326Y725455D01*
X492256Y725528D01*
X492189Y725604D01*
X492124Y725682D01*
X492062Y725762D01*
X492004Y725845D01*
X491948Y725930D01*
X491896Y726017D01*
X491847Y726105D01*
X491801Y726196D01*
X491759Y726288D01*
X491720Y726381D01*
X491685Y726476D01*
X491653Y726573D01*
X491625Y726670D01*
X491601Y726768D01*
X491580Y726867D01*
X491563Y726967D01*
X491550Y727068D01*
X491541Y727169D01*
X491535Y727270D01*
X491533Y727371D01*
X491533Y731887D01*
X491535Y732006D01*
X491541Y732126D01*
X491551Y732245D01*
X491565Y732363D01*
X491582Y732482D01*
X491604Y732599D01*
X491629Y732716D01*
X491659Y732831D01*
X491692Y732946D01*
X491729Y733060D01*
X491769Y733172D01*
X491814Y733283D01*
X491862Y733392D01*
X491913Y733500D01*
X491968Y733606D01*
X492027Y733710D01*
X492089Y733812D01*
X492154Y733912D01*
X492223Y734010D01*
X492295Y734106D01*
X492370Y734199D01*
X492447Y734289D01*
X492528Y734377D01*
X492612Y734462D01*
X492699Y734544D01*
X492788Y734624D01*
X492880Y734700D01*
X492974Y734774D01*
X493071Y734844D01*
X493169Y734911D01*
X493270Y734975D01*
X493374Y735035D01*
X493479Y735092D01*
X493586Y735145D01*
X493694Y735195D01*
X493804Y735241D01*
X493916Y735283D01*
X494029Y735322D01*
X494143Y735357D01*
X494258Y735388D01*
X494375Y735416D01*
X494492Y735439D01*
X494609Y735459D01*
X494728Y735475D01*
X494847Y735487D01*
X494966Y735495D01*
X495085Y735499D01*
X495205Y735499D01*
X495324Y735495D01*
X495443Y735487D01*
X495562Y735475D01*
X495681Y735459D01*
X495798Y735439D01*
X495915Y735416D01*
X496032Y735388D01*
X496147Y735357D01*
X496261Y735322D01*
X496374Y735283D01*
X496486Y735241D01*
X496596Y735195D01*
X496704Y735145D01*
X496811Y735092D01*
X496916Y735035D01*
X497020Y734975D01*
X497121Y734911D01*
X497219Y734844D01*
X497316Y734774D01*
X497410Y734700D01*
X497502Y734624D01*
X497591Y734544D01*
X497678Y734462D01*
X497762Y734377D01*
X497843Y734289D01*
X497920Y734199D01*
X497995Y734106D01*
X498067Y734010D01*
X498136Y733912D01*
X498201Y733812D01*
X498263Y733710D01*
X498322Y733606D01*
X498377Y733500D01*
X498428Y733392D01*
X498476Y733283D01*
X498521Y733172D01*
X498561Y733060D01*
X498598Y732946D01*
X498631Y732831D01*
X498661Y732716D01*
X498686Y732599D01*
X498708Y732482D01*
X498725Y732363D01*
X498739Y732245D01*
X498749Y732126D01*
X498755Y732006D01*
X498757Y731887D01*
X498758Y731887D02*
X498758Y730081D01*
X491533Y730081D01*
X507807Y724662D02*
X511419Y724662D01*
X507807Y724662D02*
X507706Y724664D01*
X507605Y724670D01*
X507504Y724679D01*
X507403Y724692D01*
X507303Y724709D01*
X507204Y724730D01*
X507106Y724754D01*
X507009Y724782D01*
X506912Y724814D01*
X506817Y724849D01*
X506724Y724888D01*
X506632Y724930D01*
X506541Y724976D01*
X506453Y725025D01*
X506366Y725077D01*
X506281Y725133D01*
X506198Y725191D01*
X506118Y725253D01*
X506040Y725318D01*
X505964Y725385D01*
X505891Y725455D01*
X505821Y725528D01*
X505754Y725604D01*
X505689Y725682D01*
X505627Y725762D01*
X505569Y725845D01*
X505513Y725930D01*
X505461Y726017D01*
X505412Y726105D01*
X505366Y726196D01*
X505324Y726288D01*
X505285Y726381D01*
X505250Y726476D01*
X505218Y726573D01*
X505190Y726670D01*
X505166Y726768D01*
X505145Y726867D01*
X505128Y726967D01*
X505115Y727068D01*
X505106Y727169D01*
X505100Y727270D01*
X505098Y727371D01*
X505097Y727371D02*
X505097Y732790D01*
X505098Y732790D02*
X505100Y732891D01*
X505106Y732992D01*
X505115Y733093D01*
X505128Y733194D01*
X505145Y733294D01*
X505166Y733393D01*
X505190Y733491D01*
X505218Y733588D01*
X505250Y733685D01*
X505285Y733780D01*
X505324Y733873D01*
X505366Y733965D01*
X505412Y734056D01*
X505461Y734145D01*
X505513Y734231D01*
X505569Y734316D01*
X505627Y734399D01*
X505689Y734479D01*
X505754Y734557D01*
X505821Y734633D01*
X505891Y734706D01*
X505964Y734776D01*
X506040Y734843D01*
X506118Y734908D01*
X506198Y734970D01*
X506281Y735028D01*
X506366Y735084D01*
X506453Y735136D01*
X506541Y735185D01*
X506632Y735231D01*
X506724Y735273D01*
X506817Y735312D01*
X506912Y735347D01*
X507009Y735379D01*
X507106Y735407D01*
X507204Y735431D01*
X507303Y735452D01*
X507403Y735469D01*
X507504Y735482D01*
X507605Y735491D01*
X507706Y735497D01*
X507807Y735499D01*
X511419Y735499D01*
X515767Y735499D02*
X521185Y735499D01*
X517573Y740918D02*
X517573Y727371D01*
X517575Y727270D01*
X517581Y727169D01*
X517590Y727068D01*
X517603Y726967D01*
X517620Y726867D01*
X517641Y726768D01*
X517665Y726670D01*
X517693Y726573D01*
X517725Y726476D01*
X517760Y726381D01*
X517799Y726288D01*
X517841Y726196D01*
X517887Y726105D01*
X517936Y726017D01*
X517988Y725930D01*
X518044Y725845D01*
X518102Y725762D01*
X518164Y725682D01*
X518229Y725604D01*
X518296Y725528D01*
X518366Y725455D01*
X518439Y725385D01*
X518515Y725318D01*
X518593Y725253D01*
X518673Y725191D01*
X518756Y725133D01*
X518841Y725077D01*
X518928Y725025D01*
X519016Y724976D01*
X519107Y724930D01*
X519199Y724888D01*
X519292Y724849D01*
X519387Y724814D01*
X519484Y724782D01*
X519581Y724754D01*
X519679Y724730D01*
X519778Y724709D01*
X519878Y724692D01*
X519979Y724679D01*
X520080Y724670D01*
X520181Y724664D01*
X520282Y724662D01*
X521185Y724662D01*
X526929Y724662D02*
X526929Y735499D01*
X526477Y740015D02*
X526477Y740918D01*
X527380Y740918D01*
X527380Y740015D01*
X526477Y740015D01*
X533216Y731887D02*
X533216Y728274D01*
X533217Y731887D02*
X533219Y732006D01*
X533225Y732126D01*
X533235Y732245D01*
X533249Y732363D01*
X533266Y732482D01*
X533288Y732599D01*
X533313Y732716D01*
X533343Y732831D01*
X533376Y732946D01*
X533413Y733060D01*
X533453Y733172D01*
X533498Y733283D01*
X533546Y733392D01*
X533597Y733500D01*
X533652Y733606D01*
X533711Y733710D01*
X533773Y733812D01*
X533838Y733912D01*
X533907Y734010D01*
X533979Y734106D01*
X534054Y734199D01*
X534131Y734289D01*
X534212Y734377D01*
X534296Y734462D01*
X534383Y734544D01*
X534472Y734624D01*
X534564Y734700D01*
X534658Y734774D01*
X534755Y734844D01*
X534853Y734911D01*
X534954Y734975D01*
X535058Y735035D01*
X535163Y735092D01*
X535270Y735145D01*
X535378Y735195D01*
X535488Y735241D01*
X535600Y735283D01*
X535713Y735322D01*
X535827Y735357D01*
X535942Y735388D01*
X536059Y735416D01*
X536176Y735439D01*
X536293Y735459D01*
X536412Y735475D01*
X536531Y735487D01*
X536650Y735495D01*
X536769Y735499D01*
X536889Y735499D01*
X537008Y735495D01*
X537127Y735487D01*
X537246Y735475D01*
X537365Y735459D01*
X537482Y735439D01*
X537599Y735416D01*
X537716Y735388D01*
X537831Y735357D01*
X537945Y735322D01*
X538058Y735283D01*
X538170Y735241D01*
X538280Y735195D01*
X538388Y735145D01*
X538495Y735092D01*
X538600Y735035D01*
X538704Y734975D01*
X538805Y734911D01*
X538903Y734844D01*
X539000Y734774D01*
X539094Y734700D01*
X539186Y734624D01*
X539275Y734544D01*
X539362Y734462D01*
X539446Y734377D01*
X539527Y734289D01*
X539604Y734199D01*
X539679Y734106D01*
X539751Y734010D01*
X539820Y733912D01*
X539885Y733812D01*
X539947Y733710D01*
X540006Y733606D01*
X540061Y733500D01*
X540112Y733392D01*
X540160Y733283D01*
X540205Y733172D01*
X540245Y733060D01*
X540282Y732946D01*
X540315Y732831D01*
X540345Y732716D01*
X540370Y732599D01*
X540392Y732482D01*
X540409Y732363D01*
X540423Y732245D01*
X540433Y732126D01*
X540439Y732006D01*
X540441Y731887D01*
X540441Y728274D01*
X540439Y728155D01*
X540433Y728035D01*
X540423Y727916D01*
X540409Y727798D01*
X540392Y727679D01*
X540370Y727562D01*
X540345Y727445D01*
X540315Y727330D01*
X540282Y727215D01*
X540245Y727101D01*
X540205Y726989D01*
X540160Y726878D01*
X540112Y726769D01*
X540061Y726661D01*
X540006Y726555D01*
X539947Y726451D01*
X539885Y726349D01*
X539820Y726249D01*
X539751Y726151D01*
X539679Y726055D01*
X539604Y725962D01*
X539527Y725872D01*
X539446Y725784D01*
X539362Y725699D01*
X539275Y725617D01*
X539186Y725537D01*
X539094Y725461D01*
X539000Y725387D01*
X538903Y725317D01*
X538805Y725250D01*
X538704Y725186D01*
X538600Y725126D01*
X538495Y725069D01*
X538388Y725016D01*
X538280Y724966D01*
X538170Y724920D01*
X538058Y724878D01*
X537945Y724839D01*
X537831Y724804D01*
X537716Y724773D01*
X537599Y724745D01*
X537482Y724722D01*
X537365Y724702D01*
X537246Y724686D01*
X537127Y724674D01*
X537008Y724666D01*
X536889Y724662D01*
X536769Y724662D01*
X536650Y724666D01*
X536531Y724674D01*
X536412Y724686D01*
X536293Y724702D01*
X536176Y724722D01*
X536059Y724745D01*
X535942Y724773D01*
X535827Y724804D01*
X535713Y724839D01*
X535600Y724878D01*
X535488Y724920D01*
X535378Y724966D01*
X535270Y725016D01*
X535163Y725069D01*
X535058Y725126D01*
X534954Y725186D01*
X534853Y725250D01*
X534755Y725317D01*
X534658Y725387D01*
X534564Y725461D01*
X534472Y725537D01*
X534383Y725617D01*
X534296Y725699D01*
X534212Y725784D01*
X534131Y725872D01*
X534054Y725962D01*
X533979Y726055D01*
X533907Y726151D01*
X533838Y726249D01*
X533773Y726349D01*
X533711Y726451D01*
X533652Y726555D01*
X533597Y726661D01*
X533546Y726769D01*
X533498Y726878D01*
X533453Y726989D01*
X533413Y727101D01*
X533376Y727215D01*
X533343Y727330D01*
X533313Y727445D01*
X533288Y727562D01*
X533266Y727679D01*
X533249Y727798D01*
X533235Y727916D01*
X533225Y728035D01*
X533219Y728155D01*
X533217Y728274D01*
X547284Y724662D02*
X547284Y735499D01*
X551800Y735499D01*
X551904Y735497D01*
X552007Y735491D01*
X552111Y735481D01*
X552214Y735467D01*
X552316Y735449D01*
X552417Y735428D01*
X552518Y735402D01*
X552617Y735373D01*
X552716Y735340D01*
X552813Y735303D01*
X552908Y735262D01*
X553002Y735218D01*
X553094Y735170D01*
X553184Y735119D01*
X553273Y735064D01*
X553359Y735006D01*
X553442Y734944D01*
X553524Y734880D01*
X553602Y734812D01*
X553678Y734742D01*
X553752Y734669D01*
X553822Y734592D01*
X553890Y734514D01*
X553954Y734432D01*
X554016Y734349D01*
X554074Y734263D01*
X554129Y734174D01*
X554180Y734084D01*
X554228Y733992D01*
X554272Y733898D01*
X554313Y733803D01*
X554350Y733706D01*
X554383Y733607D01*
X554412Y733508D01*
X554438Y733407D01*
X554459Y733306D01*
X554477Y733204D01*
X554491Y733101D01*
X554501Y732997D01*
X554507Y732894D01*
X554509Y732790D01*
X554509Y724662D01*
X562707Y730984D02*
X567222Y729178D01*
X562707Y730984D02*
X562619Y731021D01*
X562533Y731062D01*
X562448Y731106D01*
X562365Y731154D01*
X562285Y731205D01*
X562206Y731259D01*
X562130Y731317D01*
X562056Y731377D01*
X561984Y731441D01*
X561916Y731507D01*
X561850Y731577D01*
X561787Y731648D01*
X561726Y731723D01*
X561669Y731799D01*
X561616Y731878D01*
X561565Y731959D01*
X561518Y732042D01*
X561474Y732127D01*
X561434Y732214D01*
X561397Y732302D01*
X561364Y732392D01*
X561334Y732483D01*
X561309Y732575D01*
X561287Y732668D01*
X561269Y732762D01*
X561254Y732856D01*
X561244Y732951D01*
X561238Y733047D01*
X561235Y733142D01*
X561236Y733238D01*
X561242Y733333D01*
X561251Y733429D01*
X561264Y733523D01*
X561280Y733617D01*
X561301Y733711D01*
X561326Y733803D01*
X561354Y733894D01*
X561386Y733984D01*
X561421Y734073D01*
X561460Y734160D01*
X561503Y734246D01*
X561549Y734330D01*
X561599Y734411D01*
X561651Y734491D01*
X561707Y734569D01*
X561767Y734644D01*
X561829Y734716D01*
X561894Y734786D01*
X561962Y734854D01*
X562032Y734918D01*
X562105Y734980D01*
X562181Y735038D01*
X562259Y735094D01*
X562339Y735146D01*
X562421Y735195D01*
X562505Y735240D01*
X562591Y735282D01*
X562678Y735321D01*
X562767Y735356D01*
X562858Y735387D01*
X562949Y735414D01*
X563042Y735438D01*
X563135Y735458D01*
X563229Y735474D01*
X563324Y735486D01*
X563419Y735495D01*
X563515Y735499D01*
X563610Y735500D01*
X563857Y735493D01*
X564103Y735481D01*
X564349Y735463D01*
X564595Y735438D01*
X564839Y735408D01*
X565083Y735372D01*
X565326Y735331D01*
X565568Y735283D01*
X565809Y735229D01*
X566048Y735170D01*
X566286Y735105D01*
X566522Y735034D01*
X566757Y734958D01*
X566990Y734876D01*
X567220Y734788D01*
X567448Y734695D01*
X567675Y734597D01*
X567223Y729177D02*
X567311Y729140D01*
X567397Y729099D01*
X567482Y729055D01*
X567565Y729007D01*
X567645Y728956D01*
X567724Y728902D01*
X567800Y728844D01*
X567874Y728784D01*
X567946Y728720D01*
X568014Y728654D01*
X568080Y728584D01*
X568143Y728513D01*
X568204Y728438D01*
X568261Y728362D01*
X568314Y728283D01*
X568365Y728202D01*
X568412Y728119D01*
X568456Y728034D01*
X568496Y727947D01*
X568533Y727859D01*
X568566Y727769D01*
X568596Y727678D01*
X568621Y727586D01*
X568643Y727493D01*
X568661Y727399D01*
X568676Y727305D01*
X568686Y727210D01*
X568692Y727114D01*
X568695Y727019D01*
X568694Y726923D01*
X568688Y726828D01*
X568679Y726732D01*
X568666Y726638D01*
X568650Y726544D01*
X568629Y726450D01*
X568604Y726358D01*
X568576Y726267D01*
X568544Y726177D01*
X568509Y726088D01*
X568470Y726001D01*
X568427Y725915D01*
X568381Y725831D01*
X568331Y725750D01*
X568279Y725670D01*
X568223Y725592D01*
X568163Y725517D01*
X568101Y725445D01*
X568036Y725375D01*
X567968Y725307D01*
X567898Y725243D01*
X567825Y725181D01*
X567749Y725123D01*
X567671Y725067D01*
X567591Y725015D01*
X567509Y724966D01*
X567425Y724921D01*
X567339Y724879D01*
X567252Y724840D01*
X567163Y724805D01*
X567072Y724774D01*
X566981Y724747D01*
X566888Y724723D01*
X566795Y724703D01*
X566701Y724687D01*
X566606Y724675D01*
X566511Y724666D01*
X566415Y724662D01*
X566320Y724661D01*
X566319Y724662D02*
X565957Y724671D01*
X565595Y724689D01*
X565234Y724716D01*
X564874Y724751D01*
X564514Y724794D01*
X564155Y724846D01*
X563798Y724907D01*
X563443Y724976D01*
X563089Y725053D01*
X562737Y725139D01*
X562387Y725233D01*
X562039Y725336D01*
X561694Y725446D01*
X561352Y725565D01*
D13*
X726770Y197370D02*
X376770Y197370D01*
X726770Y197370D02*
X729186Y197399D01*
X731601Y197487D01*
X734013Y197633D01*
X736421Y197837D01*
X738824Y198099D01*
X741219Y198419D01*
X743606Y198797D01*
X745983Y199233D01*
X748348Y199726D01*
X750702Y200276D01*
X753041Y200882D01*
X755365Y201545D01*
X757672Y202264D01*
X759961Y203039D01*
X762230Y203868D01*
X764479Y204753D01*
X766706Y205691D01*
X768910Y206683D01*
X771089Y207727D01*
X773242Y208824D01*
X775368Y209973D01*
X777466Y211173D01*
X779534Y212423D01*
X781571Y213723D01*
X783576Y215072D01*
X785549Y216468D01*
X787486Y217912D01*
X789389Y219403D01*
X791254Y220938D01*
X793082Y222519D01*
X794872Y224143D01*
X796621Y225810D01*
X798330Y227519D01*
X799997Y229268D01*
X801621Y231058D01*
X803202Y232886D01*
X804737Y234751D01*
X806228Y236654D01*
X807672Y238591D01*
X809068Y240564D01*
X810417Y242569D01*
X811717Y244606D01*
X812967Y246674D01*
X814167Y248772D01*
X815316Y250898D01*
X816413Y253051D01*
X817457Y255230D01*
X818449Y257434D01*
X819387Y259661D01*
X820272Y261910D01*
X821101Y264179D01*
X821876Y266468D01*
X822595Y268775D01*
X823258Y271099D01*
X823864Y273438D01*
X824414Y275792D01*
X824907Y278157D01*
X825343Y280534D01*
X825721Y282921D01*
X826041Y285316D01*
X826303Y287719D01*
X826507Y290127D01*
X826653Y292539D01*
X826741Y294954D01*
X826770Y297370D01*
X826770Y447370D01*
X826741Y449786D01*
X826653Y452201D01*
X826507Y454613D01*
X826303Y457021D01*
X826041Y459424D01*
X825721Y461819D01*
X825343Y464206D01*
X824907Y466583D01*
X824414Y468948D01*
X823864Y471302D01*
X823258Y473641D01*
X822595Y475965D01*
X821876Y478272D01*
X821101Y480561D01*
X820272Y482830D01*
X819387Y485079D01*
X818449Y487306D01*
X817457Y489510D01*
X816413Y491689D01*
X815316Y493842D01*
X814167Y495968D01*
X812967Y498066D01*
X811717Y500134D01*
X810417Y502171D01*
X809068Y504176D01*
X807672Y506149D01*
X806228Y508086D01*
X804737Y509989D01*
X803202Y511854D01*
X801621Y513682D01*
X799997Y515472D01*
X798330Y517221D01*
X796621Y518930D01*
X794872Y520597D01*
X793082Y522221D01*
X791254Y523802D01*
X789389Y525337D01*
X787486Y526828D01*
X785549Y528272D01*
X783576Y529668D01*
X781571Y531017D01*
X779534Y532317D01*
X777466Y533567D01*
X775368Y534767D01*
X773242Y535916D01*
X771089Y537013D01*
X768910Y538057D01*
X766706Y539049D01*
X764479Y539987D01*
X762230Y540872D01*
X759961Y541701D01*
X757672Y542476D01*
X755365Y543195D01*
X753041Y543858D01*
X750702Y544464D01*
X748348Y545014D01*
X745983Y545507D01*
X743606Y545943D01*
X741219Y546321D01*
X738824Y546641D01*
X736421Y546903D01*
X734013Y547107D01*
X731601Y547253D01*
X729186Y547341D01*
X726770Y547370D01*
X376770Y547370D01*
X374354Y547341D01*
X371939Y547253D01*
X369527Y547107D01*
X367119Y546903D01*
X364716Y546641D01*
X362321Y546321D01*
X359934Y545943D01*
X357557Y545507D01*
X355192Y545014D01*
X352838Y544464D01*
X350499Y543858D01*
X348175Y543195D01*
X345868Y542476D01*
X343579Y541701D01*
X341310Y540872D01*
X339061Y539987D01*
X336834Y539049D01*
X334630Y538057D01*
X332451Y537013D01*
X330298Y535916D01*
X328172Y534767D01*
X326074Y533567D01*
X324006Y532317D01*
X321969Y531017D01*
X319964Y529668D01*
X317991Y528272D01*
X316054Y526828D01*
X314151Y525337D01*
X312286Y523802D01*
X310458Y522221D01*
X308668Y520597D01*
X306919Y518930D01*
X305210Y517221D01*
X303543Y515472D01*
X301919Y513682D01*
X300338Y511854D01*
X298803Y509989D01*
X297312Y508086D01*
X295868Y506149D01*
X294472Y504176D01*
X293123Y502171D01*
X291823Y500134D01*
X290573Y498066D01*
X289373Y495968D01*
X288224Y493842D01*
X287127Y491689D01*
X286083Y489510D01*
X285091Y487306D01*
X284153Y485079D01*
X283268Y482830D01*
X282439Y480561D01*
X281664Y478272D01*
X280945Y475965D01*
X280282Y473641D01*
X279676Y471302D01*
X279126Y468948D01*
X278633Y466583D01*
X278197Y464206D01*
X277819Y461819D01*
X277499Y459424D01*
X277237Y457021D01*
X277033Y454613D01*
X276887Y452201D01*
X276799Y449786D01*
X276770Y447370D01*
X276770Y297370D01*
X276799Y294954D01*
X276887Y292539D01*
X277033Y290127D01*
X277237Y287719D01*
X277499Y285316D01*
X277819Y282921D01*
X278197Y280534D01*
X278633Y278157D01*
X279126Y275792D01*
X279676Y273438D01*
X280282Y271099D01*
X280945Y268775D01*
X281664Y266468D01*
X282439Y264179D01*
X283268Y261910D01*
X284153Y259661D01*
X285091Y257434D01*
X286083Y255230D01*
X287127Y253051D01*
X288224Y250898D01*
X289373Y248772D01*
X290573Y246674D01*
X291823Y244606D01*
X293123Y242569D01*
X294472Y240564D01*
X295868Y238591D01*
X297312Y236654D01*
X298803Y234751D01*
X300338Y232886D01*
X301919Y231058D01*
X303543Y229268D01*
X305210Y227519D01*
X306919Y225810D01*
X308668Y224143D01*
X310458Y222519D01*
X312286Y220938D01*
X314151Y219403D01*
X316054Y217912D01*
X317991Y216468D01*
X319964Y215072D01*
X321969Y213723D01*
X324006Y212423D01*
X326074Y211173D01*
X328172Y209973D01*
X330298Y208824D01*
X332451Y207727D01*
X334630Y206683D01*
X336834Y205691D01*
X339061Y204753D01*
X341310Y203868D01*
X343579Y203039D01*
X345868Y202264D01*
X348175Y201545D01*
X350499Y200882D01*
X352838Y200276D01*
X355192Y199726D01*
X357557Y199233D01*
X359934Y198797D01*
X362321Y198419D01*
X364716Y198099D01*
X367119Y197837D01*
X369527Y197633D01*
X371939Y197487D01*
X374354Y197399D01*
X376770Y197370D01*
D12*
X788162Y486777D02*
X799338Y486777D01*
X788162Y486777D02*
X788162Y489881D01*
X788164Y489992D01*
X788170Y490102D01*
X788180Y490213D01*
X788194Y490323D01*
X788211Y490432D01*
X788233Y490541D01*
X788258Y490649D01*
X788288Y490755D01*
X788321Y490861D01*
X788358Y490966D01*
X788398Y491069D01*
X788443Y491170D01*
X788490Y491270D01*
X788542Y491369D01*
X788597Y491465D01*
X788655Y491559D01*
X788716Y491651D01*
X788781Y491741D01*
X788849Y491829D01*
X788920Y491914D01*
X788994Y491996D01*
X789071Y492076D01*
X789151Y492153D01*
X789233Y492227D01*
X789318Y492298D01*
X789406Y492366D01*
X789496Y492431D01*
X789588Y492492D01*
X789682Y492550D01*
X789778Y492605D01*
X789877Y492657D01*
X789977Y492704D01*
X790078Y492749D01*
X790181Y492789D01*
X790286Y492826D01*
X790392Y492859D01*
X790498Y492889D01*
X790606Y492914D01*
X790715Y492936D01*
X790824Y492953D01*
X790934Y492967D01*
X791045Y492977D01*
X791155Y492983D01*
X791266Y492985D01*
X791377Y492983D01*
X791487Y492977D01*
X791598Y492967D01*
X791708Y492953D01*
X791817Y492936D01*
X791926Y492914D01*
X792034Y492889D01*
X792140Y492859D01*
X792246Y492826D01*
X792351Y492789D01*
X792454Y492749D01*
X792555Y492704D01*
X792655Y492657D01*
X792754Y492605D01*
X792850Y492550D01*
X792944Y492492D01*
X793036Y492431D01*
X793126Y492366D01*
X793214Y492298D01*
X793299Y492227D01*
X793381Y492153D01*
X793461Y492076D01*
X793538Y491996D01*
X793612Y491914D01*
X793683Y491829D01*
X793751Y491741D01*
X793816Y491651D01*
X793877Y491559D01*
X793935Y491465D01*
X793990Y491369D01*
X794042Y491270D01*
X794089Y491170D01*
X794134Y491069D01*
X794174Y490966D01*
X794211Y490861D01*
X794244Y490755D01*
X794274Y490649D01*
X794299Y490541D01*
X794321Y490432D01*
X794338Y490323D01*
X794352Y490213D01*
X794362Y490102D01*
X794368Y489992D01*
X794370Y489881D01*
X794371Y489881D02*
X794371Y486777D01*
X790646Y497614D02*
X788162Y500719D01*
X799338Y500719D01*
X799338Y503823D02*
X799338Y497614D01*
X799338Y232777D02*
X788162Y232777D01*
X788162Y235881D01*
X788164Y235992D01*
X788170Y236102D01*
X788180Y236213D01*
X788194Y236323D01*
X788211Y236432D01*
X788233Y236541D01*
X788258Y236649D01*
X788288Y236755D01*
X788321Y236861D01*
X788358Y236966D01*
X788398Y237069D01*
X788443Y237170D01*
X788490Y237270D01*
X788542Y237369D01*
X788597Y237465D01*
X788655Y237559D01*
X788716Y237651D01*
X788781Y237741D01*
X788849Y237829D01*
X788920Y237914D01*
X788994Y237996D01*
X789071Y238076D01*
X789151Y238153D01*
X789233Y238227D01*
X789318Y238298D01*
X789406Y238366D01*
X789496Y238431D01*
X789588Y238492D01*
X789682Y238550D01*
X789778Y238605D01*
X789877Y238657D01*
X789977Y238704D01*
X790078Y238749D01*
X790181Y238789D01*
X790286Y238826D01*
X790392Y238859D01*
X790498Y238889D01*
X790606Y238914D01*
X790715Y238936D01*
X790824Y238953D01*
X790934Y238967D01*
X791045Y238977D01*
X791155Y238983D01*
X791266Y238985D01*
X791377Y238983D01*
X791487Y238977D01*
X791598Y238967D01*
X791708Y238953D01*
X791817Y238936D01*
X791926Y238914D01*
X792034Y238889D01*
X792140Y238859D01*
X792246Y238826D01*
X792351Y238789D01*
X792454Y238749D01*
X792555Y238704D01*
X792655Y238657D01*
X792754Y238605D01*
X792850Y238550D01*
X792944Y238492D01*
X793036Y238431D01*
X793126Y238366D01*
X793214Y238298D01*
X793299Y238227D01*
X793381Y238153D01*
X793461Y238076D01*
X793538Y237996D01*
X793612Y237914D01*
X793683Y237829D01*
X793751Y237741D01*
X793816Y237651D01*
X793877Y237559D01*
X793935Y237465D01*
X793990Y237369D01*
X794042Y237270D01*
X794089Y237170D01*
X794134Y237069D01*
X794174Y236966D01*
X794211Y236861D01*
X794244Y236755D01*
X794274Y236649D01*
X794299Y236541D01*
X794321Y236432D01*
X794338Y236323D01*
X794352Y236213D01*
X794362Y236102D01*
X794368Y235992D01*
X794370Y235881D01*
X794371Y235881D02*
X794371Y232777D01*
X788162Y247029D02*
X788164Y247133D01*
X788170Y247238D01*
X788180Y247342D01*
X788193Y247445D01*
X788211Y247548D01*
X788232Y247651D01*
X788257Y247752D01*
X788286Y247853D01*
X788319Y247952D01*
X788355Y248050D01*
X788395Y248146D01*
X788439Y248241D01*
X788486Y248335D01*
X788536Y248426D01*
X788590Y248515D01*
X788647Y248603D01*
X788708Y248688D01*
X788772Y248771D01*
X788838Y248851D01*
X788908Y248929D01*
X788980Y249005D01*
X789056Y249077D01*
X789134Y249147D01*
X789214Y249213D01*
X789297Y249277D01*
X789382Y249338D01*
X789470Y249395D01*
X789559Y249449D01*
X789650Y249499D01*
X789744Y249546D01*
X789839Y249590D01*
X789935Y249630D01*
X790033Y249666D01*
X790132Y249699D01*
X790233Y249728D01*
X790334Y249753D01*
X790437Y249774D01*
X790540Y249792D01*
X790643Y249805D01*
X790747Y249815D01*
X790852Y249821D01*
X790956Y249823D01*
X788162Y247029D02*
X788164Y246910D01*
X788170Y246792D01*
X788180Y246673D01*
X788193Y246555D01*
X788211Y246438D01*
X788233Y246321D01*
X788258Y246205D01*
X788287Y246090D01*
X788320Y245975D01*
X788357Y245862D01*
X788397Y245751D01*
X788441Y245640D01*
X788489Y245532D01*
X788540Y245425D01*
X788595Y245319D01*
X788654Y245216D01*
X788715Y245114D01*
X788780Y245015D01*
X788849Y244917D01*
X788920Y244823D01*
X788995Y244730D01*
X789072Y244640D01*
X789153Y244553D01*
X789236Y244468D01*
X789322Y244386D01*
X789411Y244307D01*
X789502Y244231D01*
X789596Y244158D01*
X789692Y244089D01*
X789791Y244022D01*
X789891Y243959D01*
X789994Y243899D01*
X790098Y243842D01*
X790205Y243790D01*
X790313Y243740D01*
X790422Y243694D01*
X790534Y243652D01*
X790646Y243614D01*
X793129Y248892D02*
X793055Y248967D01*
X792978Y249039D01*
X792899Y249109D01*
X792817Y249176D01*
X792733Y249240D01*
X792647Y249301D01*
X792559Y249359D01*
X792468Y249414D01*
X792376Y249466D01*
X792282Y249514D01*
X792187Y249559D01*
X792089Y249601D01*
X791991Y249639D01*
X791891Y249674D01*
X791790Y249705D01*
X791688Y249732D01*
X791585Y249756D01*
X791482Y249777D01*
X791377Y249793D01*
X791272Y249806D01*
X791167Y249816D01*
X791062Y249821D01*
X790956Y249823D01*
X793129Y248892D02*
X799338Y243614D01*
X799338Y249823D01*
D11*
X499407Y286258D02*
X499407Y297942D01*
X502652Y297942D01*
X502765Y297940D01*
X502878Y297934D01*
X502991Y297924D01*
X503104Y297910D01*
X503216Y297893D01*
X503327Y297871D01*
X503437Y297846D01*
X503547Y297816D01*
X503655Y297783D01*
X503762Y297746D01*
X503868Y297706D01*
X503972Y297661D01*
X504075Y297613D01*
X504176Y297562D01*
X504275Y297507D01*
X504372Y297449D01*
X504467Y297387D01*
X504560Y297322D01*
X504650Y297254D01*
X504738Y297183D01*
X504824Y297108D01*
X504907Y297031D01*
X504987Y296951D01*
X505064Y296868D01*
X505139Y296782D01*
X505210Y296694D01*
X505278Y296604D01*
X505343Y296511D01*
X505405Y296416D01*
X505463Y296319D01*
X505518Y296220D01*
X505569Y296119D01*
X505617Y296016D01*
X505662Y295912D01*
X505702Y295806D01*
X505739Y295699D01*
X505772Y295591D01*
X505802Y295481D01*
X505827Y295371D01*
X505849Y295260D01*
X505866Y295148D01*
X505880Y295035D01*
X505890Y294922D01*
X505896Y294809D01*
X505898Y294696D01*
X505896Y294583D01*
X505890Y294470D01*
X505880Y294357D01*
X505866Y294244D01*
X505849Y294132D01*
X505827Y294021D01*
X505802Y293911D01*
X505772Y293801D01*
X505739Y293693D01*
X505702Y293586D01*
X505662Y293480D01*
X505617Y293376D01*
X505569Y293273D01*
X505518Y293172D01*
X505463Y293073D01*
X505405Y292976D01*
X505343Y292881D01*
X505278Y292788D01*
X505210Y292698D01*
X505139Y292610D01*
X505064Y292524D01*
X504987Y292441D01*
X504907Y292361D01*
X504824Y292284D01*
X504738Y292209D01*
X504650Y292138D01*
X504560Y292070D01*
X504467Y292005D01*
X504372Y291943D01*
X504275Y291885D01*
X504176Y291830D01*
X504075Y291779D01*
X503972Y291731D01*
X503868Y291686D01*
X503762Y291646D01*
X503655Y291609D01*
X503547Y291576D01*
X503437Y291546D01*
X503327Y291521D01*
X503216Y291499D01*
X503104Y291482D01*
X502991Y291468D01*
X502878Y291458D01*
X502765Y291452D01*
X502652Y291450D01*
X502652Y291451D02*
X499407Y291451D01*
X510173Y291451D02*
X510173Y288854D01*
X510174Y291451D02*
X510176Y291552D01*
X510182Y291652D01*
X510192Y291752D01*
X510205Y291852D01*
X510223Y291951D01*
X510244Y292050D01*
X510269Y292147D01*
X510298Y292244D01*
X510331Y292339D01*
X510367Y292433D01*
X510407Y292525D01*
X510450Y292616D01*
X510497Y292705D01*
X510547Y292792D01*
X510601Y292878D01*
X510658Y292961D01*
X510718Y293041D01*
X510781Y293120D01*
X510848Y293196D01*
X510917Y293269D01*
X510989Y293339D01*
X511063Y293407D01*
X511140Y293472D01*
X511220Y293533D01*
X511302Y293592D01*
X511386Y293647D01*
X511472Y293699D01*
X511560Y293748D01*
X511650Y293793D01*
X511742Y293835D01*
X511835Y293873D01*
X511930Y293907D01*
X512025Y293938D01*
X512122Y293965D01*
X512220Y293988D01*
X512319Y294008D01*
X512419Y294023D01*
X512519Y294035D01*
X512619Y294043D01*
X512720Y294047D01*
X512820Y294047D01*
X512921Y294043D01*
X513021Y294035D01*
X513121Y294023D01*
X513221Y294008D01*
X513320Y293988D01*
X513418Y293965D01*
X513515Y293938D01*
X513610Y293907D01*
X513705Y293873D01*
X513798Y293835D01*
X513890Y293793D01*
X513980Y293748D01*
X514068Y293699D01*
X514154Y293647D01*
X514238Y293592D01*
X514320Y293533D01*
X514400Y293472D01*
X514477Y293407D01*
X514551Y293339D01*
X514623Y293269D01*
X514692Y293196D01*
X514759Y293120D01*
X514822Y293041D01*
X514882Y292961D01*
X514939Y292878D01*
X514993Y292792D01*
X515043Y292705D01*
X515090Y292616D01*
X515133Y292525D01*
X515173Y292433D01*
X515209Y292339D01*
X515242Y292244D01*
X515271Y292147D01*
X515296Y292050D01*
X515317Y291951D01*
X515335Y291852D01*
X515348Y291752D01*
X515358Y291652D01*
X515364Y291552D01*
X515366Y291451D01*
X515366Y288854D01*
X515364Y288753D01*
X515358Y288653D01*
X515348Y288553D01*
X515335Y288453D01*
X515317Y288354D01*
X515296Y288255D01*
X515271Y288158D01*
X515242Y288061D01*
X515209Y287966D01*
X515173Y287872D01*
X515133Y287780D01*
X515090Y287689D01*
X515043Y287600D01*
X514993Y287513D01*
X514939Y287427D01*
X514882Y287344D01*
X514822Y287264D01*
X514759Y287185D01*
X514692Y287109D01*
X514623Y287036D01*
X514551Y286966D01*
X514477Y286898D01*
X514400Y286833D01*
X514320Y286772D01*
X514238Y286713D01*
X514154Y286658D01*
X514068Y286606D01*
X513980Y286557D01*
X513890Y286512D01*
X513798Y286470D01*
X513705Y286432D01*
X513610Y286398D01*
X513515Y286367D01*
X513418Y286340D01*
X513320Y286317D01*
X513221Y286297D01*
X513121Y286282D01*
X513021Y286270D01*
X512921Y286262D01*
X512820Y286258D01*
X512720Y286258D01*
X512619Y286262D01*
X512519Y286270D01*
X512419Y286282D01*
X512319Y286297D01*
X512220Y286317D01*
X512122Y286340D01*
X512025Y286367D01*
X511930Y286398D01*
X511835Y286432D01*
X511742Y286470D01*
X511650Y286512D01*
X511560Y286557D01*
X511472Y286606D01*
X511386Y286658D01*
X511302Y286713D01*
X511220Y286772D01*
X511140Y286833D01*
X511063Y286898D01*
X510989Y286966D01*
X510917Y287036D01*
X510848Y287109D01*
X510781Y287185D01*
X510718Y287264D01*
X510658Y287344D01*
X510601Y287427D01*
X510547Y287513D01*
X510497Y287600D01*
X510450Y287689D01*
X510407Y287780D01*
X510367Y287872D01*
X510331Y287966D01*
X510298Y288061D01*
X510269Y288158D01*
X510244Y288255D01*
X510223Y288354D01*
X510205Y288453D01*
X510192Y288553D01*
X510182Y288653D01*
X510176Y288753D01*
X510174Y288854D01*
X522040Y286258D02*
X524636Y286258D01*
X522040Y286258D02*
X521953Y286260D01*
X521865Y286266D01*
X521779Y286276D01*
X521692Y286289D01*
X521607Y286307D01*
X521522Y286328D01*
X521438Y286353D01*
X521356Y286382D01*
X521275Y286415D01*
X521195Y286451D01*
X521117Y286490D01*
X521041Y286534D01*
X520967Y286580D01*
X520896Y286630D01*
X520826Y286683D01*
X520759Y286739D01*
X520695Y286798D01*
X520633Y286860D01*
X520574Y286924D01*
X520518Y286991D01*
X520465Y287061D01*
X520415Y287132D01*
X520369Y287206D01*
X520325Y287282D01*
X520286Y287360D01*
X520250Y287440D01*
X520217Y287521D01*
X520188Y287603D01*
X520163Y287687D01*
X520142Y287772D01*
X520124Y287857D01*
X520111Y287944D01*
X520101Y288030D01*
X520095Y288118D01*
X520093Y288205D01*
X520093Y292100D01*
X520095Y292187D01*
X520101Y292275D01*
X520111Y292361D01*
X520124Y292448D01*
X520142Y292533D01*
X520163Y292618D01*
X520188Y292702D01*
X520217Y292784D01*
X520250Y292865D01*
X520286Y292945D01*
X520325Y293023D01*
X520369Y293099D01*
X520415Y293173D01*
X520465Y293244D01*
X520518Y293314D01*
X520574Y293381D01*
X520633Y293445D01*
X520695Y293507D01*
X520759Y293566D01*
X520826Y293622D01*
X520896Y293675D01*
X520967Y293725D01*
X521041Y293771D01*
X521117Y293815D01*
X521195Y293854D01*
X521275Y293890D01*
X521356Y293923D01*
X521438Y293952D01*
X521522Y293977D01*
X521607Y293998D01*
X521692Y294016D01*
X521779Y294029D01*
X521865Y294039D01*
X521953Y294045D01*
X522040Y294047D01*
X524636Y294047D01*
X529359Y297942D02*
X529359Y286258D01*
X529359Y290153D02*
X534552Y294047D01*
X531631Y291775D02*
X534552Y286258D01*
X540696Y286258D02*
X543941Y286258D01*
X540696Y286258D02*
X540609Y286260D01*
X540521Y286266D01*
X540435Y286276D01*
X540348Y286289D01*
X540263Y286307D01*
X540178Y286328D01*
X540094Y286353D01*
X540012Y286382D01*
X539931Y286415D01*
X539851Y286451D01*
X539773Y286490D01*
X539697Y286534D01*
X539623Y286580D01*
X539552Y286630D01*
X539482Y286683D01*
X539415Y286739D01*
X539351Y286798D01*
X539289Y286860D01*
X539230Y286924D01*
X539174Y286991D01*
X539121Y287061D01*
X539071Y287132D01*
X539025Y287206D01*
X538981Y287282D01*
X538942Y287360D01*
X538906Y287440D01*
X538873Y287521D01*
X538844Y287603D01*
X538819Y287687D01*
X538798Y287772D01*
X538780Y287857D01*
X538767Y287944D01*
X538757Y288030D01*
X538751Y288118D01*
X538749Y288205D01*
X538748Y288205D02*
X538748Y291451D01*
X538749Y291451D02*
X538751Y291552D01*
X538757Y291652D01*
X538767Y291752D01*
X538780Y291852D01*
X538798Y291951D01*
X538819Y292050D01*
X538844Y292147D01*
X538873Y292244D01*
X538906Y292339D01*
X538942Y292433D01*
X538982Y292525D01*
X539025Y292616D01*
X539072Y292705D01*
X539122Y292792D01*
X539176Y292878D01*
X539233Y292961D01*
X539293Y293041D01*
X539356Y293120D01*
X539423Y293196D01*
X539492Y293269D01*
X539564Y293339D01*
X539638Y293407D01*
X539715Y293472D01*
X539795Y293533D01*
X539877Y293592D01*
X539961Y293647D01*
X540047Y293699D01*
X540135Y293748D01*
X540225Y293793D01*
X540317Y293835D01*
X540410Y293873D01*
X540505Y293907D01*
X540600Y293938D01*
X540697Y293965D01*
X540795Y293988D01*
X540894Y294008D01*
X540994Y294023D01*
X541094Y294035D01*
X541194Y294043D01*
X541295Y294047D01*
X541395Y294047D01*
X541496Y294043D01*
X541596Y294035D01*
X541696Y294023D01*
X541796Y294008D01*
X541895Y293988D01*
X541993Y293965D01*
X542090Y293938D01*
X542185Y293907D01*
X542280Y293873D01*
X542373Y293835D01*
X542465Y293793D01*
X542555Y293748D01*
X542643Y293699D01*
X542729Y293647D01*
X542813Y293592D01*
X542895Y293533D01*
X542975Y293472D01*
X543052Y293407D01*
X543126Y293339D01*
X543198Y293269D01*
X543267Y293196D01*
X543334Y293120D01*
X543397Y293041D01*
X543457Y292961D01*
X543514Y292878D01*
X543568Y292792D01*
X543618Y292705D01*
X543665Y292616D01*
X543708Y292525D01*
X543748Y292433D01*
X543784Y292339D01*
X543817Y292244D01*
X543846Y292147D01*
X543871Y292050D01*
X543892Y291951D01*
X543910Y291852D01*
X543923Y291752D01*
X543933Y291652D01*
X543939Y291552D01*
X543941Y291451D01*
X543941Y290153D01*
X538748Y290153D01*
X547687Y294047D02*
X551582Y294047D01*
X548985Y297942D02*
X548985Y288205D01*
X548986Y288205D02*
X548988Y288118D01*
X548994Y288030D01*
X549004Y287944D01*
X549017Y287857D01*
X549035Y287772D01*
X549056Y287687D01*
X549081Y287603D01*
X549110Y287521D01*
X549143Y287440D01*
X549179Y287360D01*
X549218Y287282D01*
X549262Y287206D01*
X549308Y287132D01*
X549358Y287061D01*
X549411Y286991D01*
X549467Y286924D01*
X549526Y286860D01*
X549588Y286798D01*
X549652Y286739D01*
X549719Y286683D01*
X549789Y286630D01*
X549860Y286580D01*
X549934Y286534D01*
X550010Y286490D01*
X550088Y286451D01*
X550168Y286415D01*
X550249Y286382D01*
X550331Y286353D01*
X550415Y286328D01*
X550500Y286307D01*
X550585Y286289D01*
X550672Y286276D01*
X550758Y286266D01*
X550846Y286260D01*
X550933Y286258D01*
X551582Y286258D01*
X556556Y292749D02*
X559802Y292749D01*
X559802Y292750D02*
X559915Y292748D01*
X560028Y292742D01*
X560141Y292732D01*
X560254Y292718D01*
X560366Y292701D01*
X560477Y292679D01*
X560587Y292654D01*
X560697Y292624D01*
X560805Y292591D01*
X560912Y292554D01*
X561018Y292514D01*
X561122Y292469D01*
X561225Y292421D01*
X561326Y292370D01*
X561425Y292315D01*
X561522Y292257D01*
X561617Y292195D01*
X561710Y292130D01*
X561800Y292062D01*
X561888Y291991D01*
X561974Y291916D01*
X562057Y291839D01*
X562137Y291759D01*
X562214Y291676D01*
X562289Y291590D01*
X562360Y291502D01*
X562428Y291412D01*
X562493Y291319D01*
X562555Y291224D01*
X562613Y291127D01*
X562668Y291028D01*
X562719Y290927D01*
X562767Y290824D01*
X562812Y290720D01*
X562852Y290614D01*
X562889Y290507D01*
X562922Y290399D01*
X562952Y290289D01*
X562977Y290179D01*
X562999Y290068D01*
X563016Y289956D01*
X563030Y289843D01*
X563040Y289730D01*
X563046Y289617D01*
X563048Y289504D01*
X563046Y289391D01*
X563040Y289278D01*
X563030Y289165D01*
X563016Y289052D01*
X562999Y288940D01*
X562977Y288829D01*
X562952Y288719D01*
X562922Y288609D01*
X562889Y288501D01*
X562852Y288394D01*
X562812Y288288D01*
X562767Y288184D01*
X562719Y288081D01*
X562668Y287980D01*
X562613Y287881D01*
X562555Y287784D01*
X562493Y287689D01*
X562428Y287596D01*
X562360Y287506D01*
X562289Y287418D01*
X562214Y287332D01*
X562137Y287249D01*
X562057Y287169D01*
X561974Y287092D01*
X561888Y287017D01*
X561800Y286946D01*
X561710Y286878D01*
X561617Y286813D01*
X561522Y286751D01*
X561425Y286693D01*
X561326Y286638D01*
X561225Y286587D01*
X561122Y286539D01*
X561018Y286494D01*
X560912Y286454D01*
X560805Y286417D01*
X560697Y286384D01*
X560587Y286354D01*
X560477Y286329D01*
X560366Y286307D01*
X560254Y286290D01*
X560141Y286276D01*
X560028Y286266D01*
X559915Y286260D01*
X559802Y286258D01*
X556556Y286258D01*
X556556Y297942D01*
X559802Y297942D01*
X559903Y297940D01*
X560003Y297934D01*
X560103Y297924D01*
X560203Y297911D01*
X560302Y297893D01*
X560401Y297872D01*
X560498Y297847D01*
X560595Y297818D01*
X560690Y297785D01*
X560784Y297749D01*
X560876Y297709D01*
X560967Y297666D01*
X561056Y297619D01*
X561143Y297569D01*
X561229Y297515D01*
X561312Y297458D01*
X561392Y297398D01*
X561471Y297335D01*
X561547Y297268D01*
X561620Y297199D01*
X561690Y297127D01*
X561758Y297053D01*
X561823Y296976D01*
X561884Y296896D01*
X561943Y296814D01*
X561998Y296730D01*
X562050Y296644D01*
X562099Y296556D01*
X562144Y296466D01*
X562186Y296374D01*
X562224Y296281D01*
X562258Y296186D01*
X562289Y296091D01*
X562316Y295994D01*
X562339Y295896D01*
X562359Y295797D01*
X562374Y295697D01*
X562386Y295597D01*
X562394Y295497D01*
X562398Y295396D01*
X562398Y295296D01*
X562394Y295195D01*
X562386Y295095D01*
X562374Y294995D01*
X562359Y294895D01*
X562339Y294796D01*
X562316Y294698D01*
X562289Y294601D01*
X562258Y294506D01*
X562224Y294411D01*
X562186Y294318D01*
X562144Y294226D01*
X562099Y294136D01*
X562050Y294048D01*
X561998Y293962D01*
X561943Y293878D01*
X561884Y293796D01*
X561823Y293716D01*
X561758Y293639D01*
X561690Y293565D01*
X561620Y293493D01*
X561547Y293424D01*
X561471Y293357D01*
X561392Y293294D01*
X561312Y293234D01*
X561229Y293177D01*
X561143Y293123D01*
X561056Y293073D01*
X560967Y293026D01*
X560876Y292983D01*
X560784Y292943D01*
X560690Y292907D01*
X560595Y292874D01*
X560498Y292845D01*
X560401Y292820D01*
X560302Y292799D01*
X560203Y292781D01*
X560103Y292768D01*
X560003Y292758D01*
X559903Y292752D01*
X559802Y292750D01*
X569271Y286258D02*
X572516Y286258D01*
X569271Y286258D02*
X569184Y286260D01*
X569096Y286266D01*
X569010Y286276D01*
X568923Y286289D01*
X568838Y286307D01*
X568753Y286328D01*
X568669Y286353D01*
X568587Y286382D01*
X568506Y286415D01*
X568426Y286451D01*
X568348Y286490D01*
X568272Y286534D01*
X568198Y286580D01*
X568127Y286630D01*
X568057Y286683D01*
X567990Y286739D01*
X567926Y286798D01*
X567864Y286860D01*
X567805Y286924D01*
X567749Y286991D01*
X567696Y287061D01*
X567646Y287132D01*
X567600Y287206D01*
X567556Y287282D01*
X567517Y287360D01*
X567481Y287440D01*
X567448Y287521D01*
X567419Y287603D01*
X567394Y287687D01*
X567373Y287772D01*
X567355Y287857D01*
X567342Y287944D01*
X567332Y288030D01*
X567326Y288118D01*
X567324Y288205D01*
X567323Y288205D02*
X567323Y291451D01*
X567324Y291451D02*
X567326Y291552D01*
X567332Y291652D01*
X567342Y291752D01*
X567355Y291852D01*
X567373Y291951D01*
X567394Y292050D01*
X567419Y292147D01*
X567448Y292244D01*
X567481Y292339D01*
X567517Y292433D01*
X567557Y292525D01*
X567600Y292616D01*
X567647Y292705D01*
X567697Y292792D01*
X567751Y292878D01*
X567808Y292961D01*
X567868Y293041D01*
X567931Y293120D01*
X567998Y293196D01*
X568067Y293269D01*
X568139Y293339D01*
X568213Y293407D01*
X568290Y293472D01*
X568370Y293533D01*
X568452Y293592D01*
X568536Y293647D01*
X568622Y293699D01*
X568710Y293748D01*
X568800Y293793D01*
X568892Y293835D01*
X568985Y293873D01*
X569080Y293907D01*
X569175Y293938D01*
X569272Y293965D01*
X569370Y293988D01*
X569469Y294008D01*
X569569Y294023D01*
X569669Y294035D01*
X569769Y294043D01*
X569870Y294047D01*
X569970Y294047D01*
X570071Y294043D01*
X570171Y294035D01*
X570271Y294023D01*
X570371Y294008D01*
X570470Y293988D01*
X570568Y293965D01*
X570665Y293938D01*
X570760Y293907D01*
X570855Y293873D01*
X570948Y293835D01*
X571040Y293793D01*
X571130Y293748D01*
X571218Y293699D01*
X571304Y293647D01*
X571388Y293592D01*
X571470Y293533D01*
X571550Y293472D01*
X571627Y293407D01*
X571701Y293339D01*
X571773Y293269D01*
X571842Y293196D01*
X571909Y293120D01*
X571972Y293041D01*
X572032Y292961D01*
X572089Y292878D01*
X572143Y292792D01*
X572193Y292705D01*
X572240Y292616D01*
X572283Y292525D01*
X572323Y292433D01*
X572359Y292339D01*
X572392Y292244D01*
X572421Y292147D01*
X572446Y292050D01*
X572467Y291951D01*
X572485Y291852D01*
X572498Y291752D01*
X572508Y291652D01*
X572514Y291552D01*
X572516Y291451D01*
X572516Y290153D01*
X567323Y290153D01*
X579442Y290802D02*
X582363Y290802D01*
X579442Y290802D02*
X579348Y290800D01*
X579254Y290794D01*
X579161Y290785D01*
X579068Y290771D01*
X578976Y290754D01*
X578884Y290732D01*
X578794Y290708D01*
X578704Y290679D01*
X578616Y290647D01*
X578529Y290611D01*
X578444Y290571D01*
X578361Y290528D01*
X578279Y290482D01*
X578199Y290432D01*
X578122Y290379D01*
X578047Y290323D01*
X577974Y290264D01*
X577903Y290202D01*
X577835Y290137D01*
X577770Y290069D01*
X577708Y289998D01*
X577649Y289925D01*
X577593Y289850D01*
X577540Y289773D01*
X577490Y289693D01*
X577444Y289611D01*
X577401Y289528D01*
X577361Y289443D01*
X577325Y289356D01*
X577293Y289268D01*
X577264Y289178D01*
X577240Y289088D01*
X577218Y288996D01*
X577201Y288904D01*
X577187Y288811D01*
X577178Y288718D01*
X577172Y288624D01*
X577170Y288530D01*
X577172Y288436D01*
X577178Y288342D01*
X577187Y288249D01*
X577201Y288156D01*
X577218Y288064D01*
X577240Y287972D01*
X577264Y287882D01*
X577293Y287792D01*
X577325Y287704D01*
X577361Y287617D01*
X577401Y287532D01*
X577444Y287449D01*
X577490Y287367D01*
X577540Y287287D01*
X577593Y287210D01*
X577649Y287135D01*
X577708Y287062D01*
X577770Y286991D01*
X577835Y286923D01*
X577903Y286858D01*
X577974Y286796D01*
X578047Y286737D01*
X578122Y286681D01*
X578199Y286628D01*
X578279Y286578D01*
X578361Y286532D01*
X578444Y286489D01*
X578529Y286449D01*
X578616Y286413D01*
X578704Y286381D01*
X578794Y286352D01*
X578884Y286328D01*
X578976Y286306D01*
X579068Y286289D01*
X579161Y286275D01*
X579254Y286266D01*
X579348Y286260D01*
X579442Y286258D01*
X582363Y286258D01*
X582363Y292100D01*
X582361Y292187D01*
X582355Y292275D01*
X582345Y292361D01*
X582332Y292448D01*
X582314Y292533D01*
X582293Y292618D01*
X582268Y292702D01*
X582239Y292784D01*
X582206Y292865D01*
X582170Y292945D01*
X582131Y293023D01*
X582087Y293099D01*
X582041Y293173D01*
X581991Y293244D01*
X581938Y293314D01*
X581882Y293381D01*
X581823Y293445D01*
X581761Y293507D01*
X581697Y293566D01*
X581630Y293622D01*
X581560Y293675D01*
X581489Y293725D01*
X581415Y293771D01*
X581339Y293815D01*
X581261Y293854D01*
X581181Y293890D01*
X581100Y293923D01*
X581018Y293952D01*
X580934Y293977D01*
X580849Y293998D01*
X580764Y294016D01*
X580677Y294029D01*
X580591Y294039D01*
X580503Y294045D01*
X580416Y294047D01*
X577819Y294047D01*
X589405Y286258D02*
X592650Y286258D01*
X589405Y286258D02*
X589318Y286260D01*
X589230Y286266D01*
X589144Y286276D01*
X589057Y286289D01*
X588972Y286307D01*
X588887Y286328D01*
X588803Y286353D01*
X588721Y286382D01*
X588640Y286415D01*
X588560Y286451D01*
X588482Y286490D01*
X588406Y286534D01*
X588332Y286580D01*
X588261Y286630D01*
X588191Y286683D01*
X588124Y286739D01*
X588060Y286798D01*
X587998Y286860D01*
X587939Y286924D01*
X587883Y286991D01*
X587830Y287061D01*
X587780Y287132D01*
X587734Y287206D01*
X587690Y287282D01*
X587651Y287360D01*
X587615Y287440D01*
X587582Y287521D01*
X587553Y287603D01*
X587528Y287687D01*
X587507Y287772D01*
X587489Y287857D01*
X587476Y287944D01*
X587466Y288030D01*
X587460Y288118D01*
X587458Y288205D01*
X587457Y288205D02*
X587457Y292100D01*
X587458Y292100D02*
X587460Y292187D01*
X587466Y292275D01*
X587476Y292361D01*
X587489Y292448D01*
X587507Y292533D01*
X587528Y292618D01*
X587553Y292702D01*
X587582Y292784D01*
X587615Y292865D01*
X587651Y292945D01*
X587690Y293023D01*
X587734Y293099D01*
X587780Y293173D01*
X587830Y293244D01*
X587883Y293314D01*
X587939Y293381D01*
X587998Y293445D01*
X588060Y293507D01*
X588124Y293566D01*
X588191Y293622D01*
X588261Y293675D01*
X588332Y293725D01*
X588406Y293771D01*
X588482Y293815D01*
X588560Y293854D01*
X588640Y293890D01*
X588721Y293923D01*
X588803Y293952D01*
X588887Y293977D01*
X588972Y293998D01*
X589057Y294016D01*
X589144Y294029D01*
X589230Y294039D01*
X589318Y294045D01*
X589405Y294047D01*
X592650Y294047D01*
X592650Y284311D01*
X592648Y284224D01*
X592642Y284136D01*
X592632Y284050D01*
X592619Y283963D01*
X592601Y283878D01*
X592580Y283793D01*
X592555Y283709D01*
X592526Y283627D01*
X592493Y283546D01*
X592457Y283466D01*
X592418Y283388D01*
X592374Y283312D01*
X592328Y283238D01*
X592278Y283167D01*
X592225Y283097D01*
X592169Y283030D01*
X592110Y282966D01*
X592049Y282904D01*
X591984Y282845D01*
X591917Y282789D01*
X591847Y282736D01*
X591776Y282686D01*
X591702Y282640D01*
X591626Y282596D01*
X591548Y282557D01*
X591468Y282521D01*
X591387Y282488D01*
X591305Y282459D01*
X591221Y282434D01*
X591136Y282413D01*
X591051Y282395D01*
X590964Y282382D01*
X590878Y282372D01*
X590790Y282366D01*
X590703Y282364D01*
X590703Y282363D02*
X588106Y282363D01*
X597953Y288205D02*
X597953Y297942D01*
X597953Y288205D02*
X597955Y288118D01*
X597961Y288030D01*
X597971Y287944D01*
X597984Y287857D01*
X598002Y287772D01*
X598023Y287687D01*
X598048Y287603D01*
X598077Y287521D01*
X598110Y287440D01*
X598146Y287360D01*
X598185Y287282D01*
X598229Y287206D01*
X598275Y287132D01*
X598325Y287061D01*
X598378Y286991D01*
X598434Y286924D01*
X598493Y286860D01*
X598555Y286798D01*
X598619Y286739D01*
X598686Y286683D01*
X598756Y286630D01*
X598827Y286580D01*
X598901Y286534D01*
X598977Y286490D01*
X599055Y286451D01*
X599135Y286415D01*
X599216Y286382D01*
X599298Y286353D01*
X599382Y286328D01*
X599467Y286307D01*
X599552Y286289D01*
X599639Y286276D01*
X599725Y286266D01*
X599813Y286260D01*
X599900Y286258D01*
X605846Y286258D02*
X609092Y286258D01*
X605846Y286258D02*
X605759Y286260D01*
X605671Y286266D01*
X605585Y286276D01*
X605498Y286289D01*
X605413Y286307D01*
X605328Y286328D01*
X605244Y286353D01*
X605162Y286382D01*
X605081Y286415D01*
X605001Y286451D01*
X604923Y286490D01*
X604847Y286534D01*
X604773Y286580D01*
X604702Y286630D01*
X604632Y286683D01*
X604565Y286739D01*
X604501Y286798D01*
X604439Y286860D01*
X604380Y286924D01*
X604324Y286991D01*
X604271Y287061D01*
X604221Y287132D01*
X604175Y287206D01*
X604131Y287282D01*
X604092Y287360D01*
X604056Y287440D01*
X604023Y287521D01*
X603994Y287603D01*
X603969Y287687D01*
X603948Y287772D01*
X603930Y287857D01*
X603917Y287944D01*
X603907Y288030D01*
X603901Y288118D01*
X603899Y288205D01*
X603899Y291451D01*
X603900Y291451D02*
X603902Y291552D01*
X603908Y291652D01*
X603918Y291752D01*
X603931Y291852D01*
X603949Y291951D01*
X603970Y292050D01*
X603995Y292147D01*
X604024Y292244D01*
X604057Y292339D01*
X604093Y292433D01*
X604133Y292525D01*
X604176Y292616D01*
X604223Y292705D01*
X604273Y292792D01*
X604327Y292878D01*
X604384Y292961D01*
X604444Y293041D01*
X604507Y293120D01*
X604574Y293196D01*
X604643Y293269D01*
X604715Y293339D01*
X604789Y293407D01*
X604866Y293472D01*
X604946Y293533D01*
X605028Y293592D01*
X605112Y293647D01*
X605198Y293699D01*
X605286Y293748D01*
X605376Y293793D01*
X605468Y293835D01*
X605561Y293873D01*
X605656Y293907D01*
X605751Y293938D01*
X605848Y293965D01*
X605946Y293988D01*
X606045Y294008D01*
X606145Y294023D01*
X606245Y294035D01*
X606345Y294043D01*
X606446Y294047D01*
X606546Y294047D01*
X606647Y294043D01*
X606747Y294035D01*
X606847Y294023D01*
X606947Y294008D01*
X607046Y293988D01*
X607144Y293965D01*
X607241Y293938D01*
X607336Y293907D01*
X607431Y293873D01*
X607524Y293835D01*
X607616Y293793D01*
X607706Y293748D01*
X607794Y293699D01*
X607880Y293647D01*
X607964Y293592D01*
X608046Y293533D01*
X608126Y293472D01*
X608203Y293407D01*
X608277Y293339D01*
X608349Y293269D01*
X608418Y293196D01*
X608485Y293120D01*
X608548Y293041D01*
X608608Y292961D01*
X608665Y292878D01*
X608719Y292792D01*
X608769Y292705D01*
X608816Y292616D01*
X608859Y292525D01*
X608899Y292433D01*
X608935Y292339D01*
X608968Y292244D01*
X608997Y292147D01*
X609022Y292050D01*
X609043Y291951D01*
X609061Y291852D01*
X609074Y291752D01*
X609084Y291652D01*
X609090Y291552D01*
X609092Y291451D01*
X609092Y290153D01*
X603899Y290153D01*
X247959Y172595D02*
X247959Y163497D01*
X247958Y163497D02*
X247956Y163397D01*
X247950Y163298D01*
X247941Y163199D01*
X247928Y163100D01*
X247910Y163002D01*
X247890Y162905D01*
X247865Y162808D01*
X247837Y162713D01*
X247805Y162618D01*
X247770Y162525D01*
X247731Y162434D01*
X247688Y162344D01*
X247642Y162255D01*
X247593Y162169D01*
X247541Y162084D01*
X247485Y162002D01*
X247426Y161921D01*
X247364Y161843D01*
X247299Y161768D01*
X247232Y161695D01*
X247161Y161624D01*
X247088Y161557D01*
X247013Y161492D01*
X246935Y161430D01*
X246854Y161371D01*
X246772Y161315D01*
X246687Y161263D01*
X246601Y161214D01*
X246512Y161168D01*
X246422Y161125D01*
X246331Y161086D01*
X246237Y161051D01*
X246143Y161019D01*
X246048Y160991D01*
X245951Y160966D01*
X245854Y160946D01*
X245756Y160928D01*
X245657Y160915D01*
X245558Y160906D01*
X245459Y160900D01*
X245359Y160898D01*
X245359Y160897D02*
X244059Y160897D01*
X256755Y160897D02*
X256855Y160899D01*
X256954Y160905D01*
X257053Y160914D01*
X257152Y160927D01*
X257250Y160945D01*
X257347Y160965D01*
X257444Y160990D01*
X257539Y161018D01*
X257634Y161050D01*
X257727Y161086D01*
X257819Y161124D01*
X257909Y161167D01*
X257997Y161213D01*
X258084Y161262D01*
X258168Y161315D01*
X258251Y161370D01*
X258331Y161429D01*
X258409Y161491D01*
X258485Y161556D01*
X258558Y161624D01*
X258628Y161694D01*
X258696Y161767D01*
X258761Y161843D01*
X258823Y161921D01*
X258882Y162001D01*
X258937Y162084D01*
X258990Y162168D01*
X259039Y162255D01*
X259085Y162343D01*
X259128Y162433D01*
X259167Y162525D01*
X259202Y162618D01*
X259234Y162713D01*
X259262Y162808D01*
X259287Y162905D01*
X259307Y163002D01*
X259325Y163100D01*
X259338Y163199D01*
X259347Y163298D01*
X259353Y163397D01*
X259355Y163497D01*
X256755Y160898D02*
X256611Y160900D01*
X256466Y160906D01*
X256322Y160915D01*
X256178Y160928D01*
X256035Y160945D01*
X255892Y160966D01*
X255749Y160991D01*
X255607Y161019D01*
X255466Y161051D01*
X255326Y161087D01*
X255187Y161127D01*
X255049Y161170D01*
X254913Y161216D01*
X254777Y161267D01*
X254643Y161320D01*
X254510Y161378D01*
X254379Y161439D01*
X254250Y161503D01*
X254122Y161570D01*
X253996Y161641D01*
X253872Y161716D01*
X253750Y161793D01*
X253630Y161874D01*
X253513Y161958D01*
X253397Y162044D01*
X253284Y162134D01*
X253173Y162227D01*
X253065Y162323D01*
X252959Y162421D01*
X252856Y162523D01*
X253180Y169995D02*
X253182Y170095D01*
X253188Y170194D01*
X253197Y170293D01*
X253210Y170392D01*
X253228Y170490D01*
X253248Y170587D01*
X253273Y170684D01*
X253301Y170779D01*
X253333Y170874D01*
X253368Y170967D01*
X253407Y171059D01*
X253450Y171149D01*
X253496Y171237D01*
X253545Y171324D01*
X253598Y171408D01*
X253653Y171491D01*
X253712Y171571D01*
X253774Y171649D01*
X253839Y171725D01*
X253907Y171798D01*
X253977Y171868D01*
X254050Y171936D01*
X254126Y172001D01*
X254204Y172063D01*
X254284Y172122D01*
X254367Y172177D01*
X254451Y172230D01*
X254538Y172279D01*
X254626Y172325D01*
X254716Y172368D01*
X254808Y172407D01*
X254901Y172442D01*
X254996Y172474D01*
X255091Y172502D01*
X255188Y172527D01*
X255285Y172547D01*
X255383Y172565D01*
X255482Y172578D01*
X255581Y172587D01*
X255680Y172593D01*
X255780Y172595D01*
X255916Y172593D01*
X256053Y172587D01*
X256189Y172578D01*
X256324Y172565D01*
X256460Y172547D01*
X256594Y172526D01*
X256728Y172502D01*
X256862Y172473D01*
X256994Y172441D01*
X257126Y172405D01*
X257256Y172366D01*
X257386Y172323D01*
X257514Y172276D01*
X257641Y172226D01*
X257766Y172172D01*
X257890Y172115D01*
X258012Y172054D01*
X258132Y171990D01*
X258251Y171922D01*
X258367Y171852D01*
X258482Y171778D01*
X258594Y171700D01*
X258704Y171620D01*
X254481Y167721D02*
X254394Y167774D01*
X254310Y167830D01*
X254228Y167890D01*
X254148Y167953D01*
X254071Y168019D01*
X253996Y168087D01*
X253924Y168159D01*
X253855Y168233D01*
X253789Y168310D01*
X253725Y168389D01*
X253665Y168471D01*
X253608Y168555D01*
X253554Y168641D01*
X253504Y168730D01*
X253457Y168820D01*
X253414Y168911D01*
X253374Y169005D01*
X253338Y169099D01*
X253305Y169196D01*
X253276Y169293D01*
X253251Y169391D01*
X253230Y169491D01*
X253212Y169591D01*
X253199Y169691D01*
X253189Y169792D01*
X253183Y169894D01*
X253181Y169995D01*
X258054Y165771D02*
X258141Y165718D01*
X258225Y165662D01*
X258307Y165602D01*
X258387Y165539D01*
X258464Y165473D01*
X258539Y165405D01*
X258611Y165333D01*
X258680Y165259D01*
X258746Y165182D01*
X258810Y165103D01*
X258870Y165021D01*
X258927Y164937D01*
X258981Y164851D01*
X259031Y164762D01*
X259078Y164672D01*
X259121Y164581D01*
X259161Y164487D01*
X259197Y164393D01*
X259230Y164296D01*
X259259Y164199D01*
X259284Y164101D01*
X259305Y164001D01*
X259323Y163901D01*
X259336Y163801D01*
X259346Y163700D01*
X259352Y163598D01*
X259354Y163497D01*
X258055Y165771D02*
X254480Y167721D01*
X266403Y172595D02*
X266403Y160897D01*
X263154Y172595D02*
X269653Y172595D01*
X277408Y172594D02*
X277515Y172592D01*
X277621Y172586D01*
X277728Y172576D01*
X277834Y172563D01*
X277939Y172545D01*
X278044Y172524D01*
X278148Y172499D01*
X278250Y172470D01*
X278352Y172437D01*
X278453Y172401D01*
X278552Y172361D01*
X278649Y172318D01*
X278745Y172270D01*
X278839Y172220D01*
X278931Y172166D01*
X279021Y172109D01*
X279109Y172048D01*
X279195Y171984D01*
X279278Y171918D01*
X279359Y171848D01*
X279437Y171775D01*
X279513Y171699D01*
X279586Y171621D01*
X279656Y171540D01*
X279722Y171457D01*
X279786Y171371D01*
X279847Y171283D01*
X279904Y171193D01*
X279958Y171101D01*
X280008Y171007D01*
X280056Y170911D01*
X280099Y170814D01*
X280139Y170715D01*
X280175Y170614D01*
X280208Y170512D01*
X280237Y170410D01*
X280262Y170306D01*
X280283Y170201D01*
X280301Y170096D01*
X280314Y169990D01*
X280324Y169883D01*
X280330Y169777D01*
X280332Y169670D01*
X277408Y172595D02*
X277287Y172593D01*
X277166Y172587D01*
X277045Y172577D01*
X276925Y172564D01*
X276805Y172546D01*
X276686Y172525D01*
X276567Y172500D01*
X276450Y172471D01*
X276333Y172438D01*
X276217Y172401D01*
X276103Y172361D01*
X275990Y172317D01*
X275879Y172270D01*
X275769Y172219D01*
X275661Y172164D01*
X275555Y172106D01*
X275450Y172045D01*
X275348Y171980D01*
X275248Y171912D01*
X275150Y171840D01*
X275054Y171766D01*
X274961Y171689D01*
X274870Y171608D01*
X274782Y171525D01*
X274697Y171439D01*
X274614Y171350D01*
X274535Y171259D01*
X274458Y171165D01*
X274385Y171069D01*
X274314Y170970D01*
X274247Y170869D01*
X274183Y170766D01*
X274123Y170661D01*
X274066Y170554D01*
X274012Y170446D01*
X273962Y170335D01*
X273916Y170223D01*
X273873Y170110D01*
X273834Y169995D01*
X279357Y167396D02*
X279436Y167473D01*
X279512Y167554D01*
X279585Y167637D01*
X279655Y167722D01*
X279722Y167810D01*
X279786Y167900D01*
X279847Y167993D01*
X279904Y168087D01*
X279958Y168184D01*
X280009Y168282D01*
X280056Y168382D01*
X280099Y168484D01*
X280139Y168587D01*
X280176Y168691D01*
X280208Y168797D01*
X280237Y168904D01*
X280262Y169011D01*
X280283Y169120D01*
X280301Y169229D01*
X280314Y169339D01*
X280324Y169449D01*
X280330Y169559D01*
X280332Y169670D01*
X279357Y167396D02*
X273833Y160897D01*
X280332Y160897D01*
X285389Y165446D02*
X293187Y165446D01*
X298794Y160897D02*
X298794Y172595D01*
X302044Y172595D01*
X302156Y172593D01*
X302268Y172587D01*
X302380Y172578D01*
X302491Y172564D01*
X302602Y172547D01*
X302712Y172526D01*
X302822Y172501D01*
X302930Y172472D01*
X303037Y172439D01*
X303144Y172403D01*
X303248Y172364D01*
X303352Y172320D01*
X303454Y172273D01*
X303554Y172223D01*
X303652Y172169D01*
X303749Y172112D01*
X303843Y172051D01*
X303936Y171988D01*
X304026Y171921D01*
X304113Y171851D01*
X304198Y171778D01*
X304281Y171702D01*
X304361Y171623D01*
X304438Y171542D01*
X304513Y171458D01*
X304584Y171372D01*
X304653Y171283D01*
X304718Y171192D01*
X304780Y171098D01*
X304839Y171003D01*
X304894Y170905D01*
X304946Y170806D01*
X304995Y170705D01*
X305040Y170602D01*
X305082Y170498D01*
X305120Y170393D01*
X305154Y170286D01*
X305185Y170178D01*
X305212Y170069D01*
X305235Y169959D01*
X305254Y169849D01*
X305269Y169738D01*
X305281Y169626D01*
X305289Y169514D01*
X305293Y169402D01*
X305293Y169290D01*
X305289Y169178D01*
X305281Y169066D01*
X305269Y168954D01*
X305254Y168843D01*
X305235Y168733D01*
X305212Y168623D01*
X305185Y168514D01*
X305154Y168406D01*
X305120Y168299D01*
X305082Y168194D01*
X305040Y168090D01*
X304995Y167987D01*
X304946Y167886D01*
X304894Y167787D01*
X304839Y167689D01*
X304780Y167594D01*
X304718Y167500D01*
X304653Y167409D01*
X304584Y167320D01*
X304513Y167234D01*
X304438Y167150D01*
X304361Y167069D01*
X304281Y166990D01*
X304198Y166914D01*
X304113Y166841D01*
X304026Y166771D01*
X303936Y166704D01*
X303843Y166641D01*
X303749Y166580D01*
X303652Y166523D01*
X303554Y166469D01*
X303454Y166419D01*
X303352Y166372D01*
X303248Y166328D01*
X303144Y166289D01*
X303037Y166253D01*
X302930Y166220D01*
X302822Y166191D01*
X302712Y166166D01*
X302602Y166145D01*
X302491Y166128D01*
X302380Y166114D01*
X302268Y166105D01*
X302156Y166099D01*
X302044Y166097D01*
X302044Y166096D02*
X298794Y166096D01*
X310067Y160897D02*
X310067Y172595D01*
X310067Y167396D02*
X316566Y167396D01*
X316566Y172595D02*
X316566Y160897D01*
X322004Y165446D02*
X329802Y165446D01*
X334859Y169995D02*
X338108Y172595D01*
X338108Y160897D01*
X334859Y160897D02*
X341358Y160897D01*
X346301Y167396D02*
X350201Y167396D01*
X350201Y167395D02*
X350301Y167393D01*
X350400Y167387D01*
X350499Y167378D01*
X350598Y167365D01*
X350696Y167347D01*
X350793Y167327D01*
X350890Y167302D01*
X350985Y167274D01*
X351080Y167242D01*
X351173Y167207D01*
X351264Y167168D01*
X351354Y167125D01*
X351443Y167079D01*
X351529Y167030D01*
X351614Y166978D01*
X351696Y166922D01*
X351777Y166863D01*
X351855Y166801D01*
X351930Y166736D01*
X352003Y166669D01*
X352074Y166598D01*
X352141Y166525D01*
X352206Y166450D01*
X352268Y166372D01*
X352327Y166291D01*
X352383Y166209D01*
X352435Y166124D01*
X352484Y166038D01*
X352530Y165949D01*
X352573Y165859D01*
X352612Y165768D01*
X352647Y165675D01*
X352679Y165580D01*
X352707Y165485D01*
X352732Y165388D01*
X352752Y165291D01*
X352770Y165193D01*
X352783Y165094D01*
X352792Y164995D01*
X352798Y164896D01*
X352800Y164796D01*
X352800Y164147D01*
X352798Y164035D01*
X352792Y163923D01*
X352783Y163811D01*
X352769Y163700D01*
X352752Y163589D01*
X352731Y163479D01*
X352706Y163369D01*
X352677Y163261D01*
X352644Y163154D01*
X352608Y163047D01*
X352569Y162943D01*
X352525Y162839D01*
X352478Y162737D01*
X352428Y162637D01*
X352374Y162539D01*
X352317Y162442D01*
X352256Y162348D01*
X352193Y162255D01*
X352126Y162165D01*
X352056Y162078D01*
X351983Y161993D01*
X351907Y161910D01*
X351828Y161830D01*
X351747Y161753D01*
X351663Y161678D01*
X351577Y161607D01*
X351488Y161538D01*
X351397Y161473D01*
X351303Y161411D01*
X351208Y161352D01*
X351110Y161297D01*
X351011Y161245D01*
X350910Y161196D01*
X350807Y161151D01*
X350703Y161109D01*
X350598Y161071D01*
X350491Y161037D01*
X350383Y161006D01*
X350274Y160979D01*
X350164Y160956D01*
X350054Y160937D01*
X349943Y160922D01*
X349831Y160910D01*
X349719Y160902D01*
X349607Y160898D01*
X349495Y160898D01*
X349383Y160902D01*
X349271Y160910D01*
X349159Y160922D01*
X349048Y160937D01*
X348938Y160956D01*
X348828Y160979D01*
X348719Y161006D01*
X348611Y161037D01*
X348504Y161071D01*
X348399Y161109D01*
X348295Y161151D01*
X348192Y161196D01*
X348091Y161245D01*
X347992Y161297D01*
X347894Y161352D01*
X347799Y161411D01*
X347705Y161473D01*
X347614Y161538D01*
X347525Y161607D01*
X347439Y161678D01*
X347355Y161753D01*
X347274Y161830D01*
X347195Y161910D01*
X347119Y161993D01*
X347046Y162078D01*
X346976Y162165D01*
X346909Y162255D01*
X346846Y162348D01*
X346785Y162442D01*
X346728Y162539D01*
X346674Y162637D01*
X346624Y162737D01*
X346577Y162839D01*
X346533Y162943D01*
X346494Y163047D01*
X346458Y163154D01*
X346425Y163261D01*
X346396Y163369D01*
X346371Y163479D01*
X346350Y163589D01*
X346333Y163700D01*
X346319Y163811D01*
X346310Y163923D01*
X346304Y164035D01*
X346302Y164147D01*
X346301Y164147D02*
X346301Y167396D01*
X346303Y167539D01*
X346309Y167682D01*
X346319Y167825D01*
X346333Y167968D01*
X346350Y168110D01*
X346372Y168252D01*
X346397Y168393D01*
X346427Y168533D01*
X346460Y168672D01*
X346497Y168811D01*
X346538Y168948D01*
X346583Y169084D01*
X346631Y169219D01*
X346683Y169352D01*
X346739Y169484D01*
X346798Y169615D01*
X346861Y169744D01*
X346928Y169870D01*
X346998Y169995D01*
X347071Y170119D01*
X347148Y170240D01*
X347228Y170358D01*
X347311Y170475D01*
X347397Y170589D01*
X347487Y170701D01*
X347579Y170810D01*
X347675Y170917D01*
X347773Y171021D01*
X347875Y171123D01*
X347979Y171221D01*
X348086Y171317D01*
X348195Y171409D01*
X348307Y171499D01*
X348421Y171585D01*
X348538Y171668D01*
X348656Y171748D01*
X348777Y171825D01*
X348900Y171898D01*
X349026Y171968D01*
X349152Y172035D01*
X349281Y172098D01*
X349412Y172157D01*
X349544Y172213D01*
X349677Y172265D01*
X349812Y172313D01*
X349948Y172358D01*
X350085Y172399D01*
X350224Y172436D01*
X350363Y172469D01*
X350503Y172499D01*
X350644Y172524D01*
X350786Y172546D01*
X350928Y172563D01*
X351071Y172577D01*
X351214Y172587D01*
X351357Y172593D01*
X351500Y172595D01*
D12*
X268600Y57800D02*
X608600Y57800D01*
X608600Y131450D01*
X268600Y131450D01*
X268600Y57800D01*
D11*
X247959Y747697D02*
X247959Y756795D01*
X247958Y747697D02*
X247956Y747597D01*
X247950Y747498D01*
X247941Y747399D01*
X247928Y747300D01*
X247910Y747202D01*
X247890Y747105D01*
X247865Y747008D01*
X247837Y746913D01*
X247805Y746818D01*
X247770Y746725D01*
X247731Y746634D01*
X247688Y746544D01*
X247642Y746455D01*
X247593Y746369D01*
X247541Y746284D01*
X247485Y746202D01*
X247426Y746121D01*
X247364Y746043D01*
X247299Y745968D01*
X247232Y745895D01*
X247161Y745824D01*
X247088Y745757D01*
X247013Y745692D01*
X246935Y745630D01*
X246854Y745571D01*
X246772Y745515D01*
X246687Y745463D01*
X246601Y745414D01*
X246512Y745368D01*
X246422Y745325D01*
X246331Y745286D01*
X246237Y745251D01*
X246143Y745219D01*
X246048Y745191D01*
X245951Y745166D01*
X245854Y745146D01*
X245756Y745128D01*
X245657Y745115D01*
X245558Y745106D01*
X245459Y745100D01*
X245359Y745098D01*
X245359Y745097D02*
X244059Y745097D01*
X256755Y745097D02*
X256855Y745099D01*
X256954Y745105D01*
X257053Y745114D01*
X257152Y745127D01*
X257250Y745145D01*
X257347Y745165D01*
X257444Y745190D01*
X257539Y745218D01*
X257634Y745250D01*
X257727Y745286D01*
X257819Y745324D01*
X257909Y745367D01*
X257997Y745413D01*
X258084Y745462D01*
X258168Y745515D01*
X258251Y745570D01*
X258331Y745629D01*
X258409Y745691D01*
X258485Y745756D01*
X258558Y745824D01*
X258628Y745894D01*
X258696Y745967D01*
X258761Y746043D01*
X258823Y746121D01*
X258882Y746201D01*
X258937Y746284D01*
X258990Y746368D01*
X259039Y746455D01*
X259085Y746543D01*
X259128Y746633D01*
X259167Y746725D01*
X259202Y746818D01*
X259234Y746913D01*
X259262Y747008D01*
X259287Y747105D01*
X259307Y747202D01*
X259325Y747300D01*
X259338Y747399D01*
X259347Y747498D01*
X259353Y747597D01*
X259355Y747697D01*
X256755Y745098D02*
X256611Y745100D01*
X256466Y745106D01*
X256322Y745115D01*
X256178Y745128D01*
X256035Y745145D01*
X255892Y745166D01*
X255749Y745191D01*
X255607Y745219D01*
X255466Y745251D01*
X255326Y745287D01*
X255187Y745327D01*
X255049Y745370D01*
X254913Y745416D01*
X254777Y745467D01*
X254643Y745520D01*
X254510Y745578D01*
X254379Y745639D01*
X254250Y745703D01*
X254122Y745770D01*
X253996Y745841D01*
X253872Y745916D01*
X253750Y745993D01*
X253630Y746074D01*
X253513Y746158D01*
X253397Y746244D01*
X253284Y746334D01*
X253173Y746427D01*
X253065Y746523D01*
X252959Y746621D01*
X252856Y746723D01*
X253180Y754195D02*
X253182Y754295D01*
X253188Y754394D01*
X253197Y754493D01*
X253210Y754592D01*
X253228Y754690D01*
X253248Y754787D01*
X253273Y754884D01*
X253301Y754979D01*
X253333Y755074D01*
X253368Y755167D01*
X253407Y755259D01*
X253450Y755349D01*
X253496Y755437D01*
X253545Y755524D01*
X253598Y755608D01*
X253653Y755691D01*
X253712Y755771D01*
X253774Y755849D01*
X253839Y755925D01*
X253907Y755998D01*
X253977Y756068D01*
X254050Y756136D01*
X254126Y756201D01*
X254204Y756263D01*
X254284Y756322D01*
X254367Y756377D01*
X254451Y756430D01*
X254538Y756479D01*
X254626Y756525D01*
X254716Y756568D01*
X254808Y756607D01*
X254901Y756642D01*
X254996Y756674D01*
X255091Y756702D01*
X255188Y756727D01*
X255285Y756747D01*
X255383Y756765D01*
X255482Y756778D01*
X255581Y756787D01*
X255680Y756793D01*
X255780Y756795D01*
X255916Y756793D01*
X256053Y756787D01*
X256189Y756778D01*
X256324Y756765D01*
X256460Y756747D01*
X256594Y756726D01*
X256728Y756702D01*
X256862Y756673D01*
X256994Y756641D01*
X257126Y756605D01*
X257256Y756566D01*
X257386Y756523D01*
X257514Y756476D01*
X257641Y756426D01*
X257766Y756372D01*
X257890Y756315D01*
X258012Y756254D01*
X258132Y756190D01*
X258251Y756122D01*
X258367Y756052D01*
X258482Y755978D01*
X258594Y755900D01*
X258704Y755820D01*
X254481Y751921D02*
X254394Y751974D01*
X254310Y752030D01*
X254228Y752090D01*
X254148Y752153D01*
X254071Y752219D01*
X253996Y752287D01*
X253924Y752359D01*
X253855Y752433D01*
X253789Y752510D01*
X253725Y752589D01*
X253665Y752671D01*
X253608Y752755D01*
X253554Y752841D01*
X253504Y752930D01*
X253457Y753020D01*
X253414Y753111D01*
X253374Y753205D01*
X253338Y753299D01*
X253305Y753396D01*
X253276Y753493D01*
X253251Y753591D01*
X253230Y753691D01*
X253212Y753791D01*
X253199Y753891D01*
X253189Y753992D01*
X253183Y754094D01*
X253181Y754195D01*
X258054Y749971D02*
X258141Y749918D01*
X258225Y749862D01*
X258307Y749802D01*
X258387Y749739D01*
X258464Y749673D01*
X258539Y749605D01*
X258611Y749533D01*
X258680Y749459D01*
X258746Y749382D01*
X258810Y749303D01*
X258870Y749221D01*
X258927Y749137D01*
X258981Y749051D01*
X259031Y748962D01*
X259078Y748872D01*
X259121Y748781D01*
X259161Y748687D01*
X259197Y748593D01*
X259230Y748496D01*
X259259Y748399D01*
X259284Y748301D01*
X259305Y748201D01*
X259323Y748101D01*
X259336Y748001D01*
X259346Y747900D01*
X259352Y747798D01*
X259354Y747697D01*
X258055Y749971D02*
X254480Y751921D01*
X266403Y756795D02*
X266403Y745097D01*
X263154Y756795D02*
X269653Y756795D01*
X277408Y756794D02*
X277515Y756792D01*
X277621Y756786D01*
X277728Y756776D01*
X277834Y756763D01*
X277939Y756745D01*
X278044Y756724D01*
X278148Y756699D01*
X278250Y756670D01*
X278352Y756637D01*
X278453Y756601D01*
X278552Y756561D01*
X278649Y756518D01*
X278745Y756470D01*
X278839Y756420D01*
X278931Y756366D01*
X279021Y756309D01*
X279109Y756248D01*
X279195Y756184D01*
X279278Y756118D01*
X279359Y756048D01*
X279437Y755975D01*
X279513Y755899D01*
X279586Y755821D01*
X279656Y755740D01*
X279722Y755657D01*
X279786Y755571D01*
X279847Y755483D01*
X279904Y755393D01*
X279958Y755301D01*
X280008Y755207D01*
X280056Y755111D01*
X280099Y755014D01*
X280139Y754915D01*
X280175Y754814D01*
X280208Y754712D01*
X280237Y754610D01*
X280262Y754506D01*
X280283Y754401D01*
X280301Y754296D01*
X280314Y754190D01*
X280324Y754083D01*
X280330Y753977D01*
X280332Y753870D01*
X277408Y756795D02*
X277287Y756793D01*
X277166Y756787D01*
X277045Y756777D01*
X276925Y756764D01*
X276805Y756746D01*
X276686Y756725D01*
X276567Y756700D01*
X276450Y756671D01*
X276333Y756638D01*
X276217Y756601D01*
X276103Y756561D01*
X275990Y756517D01*
X275879Y756470D01*
X275769Y756419D01*
X275661Y756364D01*
X275555Y756306D01*
X275450Y756245D01*
X275348Y756180D01*
X275248Y756112D01*
X275150Y756040D01*
X275054Y755966D01*
X274961Y755889D01*
X274870Y755808D01*
X274782Y755725D01*
X274697Y755639D01*
X274614Y755550D01*
X274535Y755459D01*
X274458Y755365D01*
X274385Y755269D01*
X274314Y755170D01*
X274247Y755069D01*
X274183Y754966D01*
X274123Y754861D01*
X274066Y754754D01*
X274012Y754646D01*
X273962Y754535D01*
X273916Y754423D01*
X273873Y754310D01*
X273834Y754195D01*
X279357Y751596D02*
X279436Y751673D01*
X279512Y751754D01*
X279585Y751837D01*
X279655Y751922D01*
X279722Y752010D01*
X279786Y752100D01*
X279847Y752193D01*
X279904Y752287D01*
X279958Y752384D01*
X280009Y752482D01*
X280056Y752582D01*
X280099Y752684D01*
X280139Y752787D01*
X280176Y752891D01*
X280208Y752997D01*
X280237Y753104D01*
X280262Y753211D01*
X280283Y753320D01*
X280301Y753429D01*
X280314Y753539D01*
X280324Y753649D01*
X280330Y753759D01*
X280332Y753870D01*
X279357Y751596D02*
X273833Y745097D01*
X280332Y745097D01*
X285389Y749646D02*
X293187Y749646D01*
X298794Y745097D02*
X298794Y756795D01*
X302044Y756795D01*
X302156Y756793D01*
X302268Y756787D01*
X302380Y756778D01*
X302491Y756764D01*
X302602Y756747D01*
X302712Y756726D01*
X302822Y756701D01*
X302930Y756672D01*
X303037Y756639D01*
X303144Y756603D01*
X303248Y756564D01*
X303352Y756520D01*
X303454Y756473D01*
X303554Y756423D01*
X303652Y756369D01*
X303749Y756312D01*
X303843Y756251D01*
X303936Y756188D01*
X304026Y756121D01*
X304113Y756051D01*
X304198Y755978D01*
X304281Y755902D01*
X304361Y755823D01*
X304438Y755742D01*
X304513Y755658D01*
X304584Y755572D01*
X304653Y755483D01*
X304718Y755392D01*
X304780Y755298D01*
X304839Y755203D01*
X304894Y755105D01*
X304946Y755006D01*
X304995Y754905D01*
X305040Y754802D01*
X305082Y754698D01*
X305120Y754593D01*
X305154Y754486D01*
X305185Y754378D01*
X305212Y754269D01*
X305235Y754159D01*
X305254Y754049D01*
X305269Y753938D01*
X305281Y753826D01*
X305289Y753714D01*
X305293Y753602D01*
X305293Y753490D01*
X305289Y753378D01*
X305281Y753266D01*
X305269Y753154D01*
X305254Y753043D01*
X305235Y752933D01*
X305212Y752823D01*
X305185Y752714D01*
X305154Y752606D01*
X305120Y752499D01*
X305082Y752394D01*
X305040Y752290D01*
X304995Y752187D01*
X304946Y752086D01*
X304894Y751987D01*
X304839Y751889D01*
X304780Y751794D01*
X304718Y751700D01*
X304653Y751609D01*
X304584Y751520D01*
X304513Y751434D01*
X304438Y751350D01*
X304361Y751269D01*
X304281Y751190D01*
X304198Y751114D01*
X304113Y751041D01*
X304026Y750971D01*
X303936Y750904D01*
X303843Y750841D01*
X303749Y750780D01*
X303652Y750723D01*
X303554Y750669D01*
X303454Y750619D01*
X303352Y750572D01*
X303248Y750528D01*
X303144Y750489D01*
X303037Y750453D01*
X302930Y750420D01*
X302822Y750391D01*
X302712Y750366D01*
X302602Y750345D01*
X302491Y750328D01*
X302380Y750314D01*
X302268Y750305D01*
X302156Y750299D01*
X302044Y750297D01*
X302044Y750296D02*
X298794Y750296D01*
X310067Y745097D02*
X310067Y756795D01*
X310067Y751596D02*
X316566Y751596D01*
X316566Y756795D02*
X316566Y745097D01*
X322004Y749646D02*
X329802Y749646D01*
X334859Y754195D02*
X338108Y756795D01*
X338108Y745097D01*
X334859Y745097D02*
X341358Y745097D01*
X346301Y751596D02*
X350201Y751596D01*
X350201Y751595D02*
X350301Y751593D01*
X350400Y751587D01*
X350499Y751578D01*
X350598Y751565D01*
X350696Y751547D01*
X350793Y751527D01*
X350890Y751502D01*
X350985Y751474D01*
X351080Y751442D01*
X351173Y751407D01*
X351264Y751368D01*
X351354Y751325D01*
X351443Y751279D01*
X351529Y751230D01*
X351614Y751178D01*
X351696Y751122D01*
X351777Y751063D01*
X351855Y751001D01*
X351930Y750936D01*
X352003Y750869D01*
X352074Y750798D01*
X352141Y750725D01*
X352206Y750650D01*
X352268Y750572D01*
X352327Y750491D01*
X352383Y750409D01*
X352435Y750324D01*
X352484Y750238D01*
X352530Y750149D01*
X352573Y750059D01*
X352612Y749968D01*
X352647Y749875D01*
X352679Y749780D01*
X352707Y749685D01*
X352732Y749588D01*
X352752Y749491D01*
X352770Y749393D01*
X352783Y749294D01*
X352792Y749195D01*
X352798Y749096D01*
X352800Y748996D01*
X352800Y748347D01*
X352798Y748235D01*
X352792Y748123D01*
X352783Y748011D01*
X352769Y747900D01*
X352752Y747789D01*
X352731Y747679D01*
X352706Y747569D01*
X352677Y747461D01*
X352644Y747354D01*
X352608Y747247D01*
X352569Y747143D01*
X352525Y747039D01*
X352478Y746937D01*
X352428Y746837D01*
X352374Y746739D01*
X352317Y746642D01*
X352256Y746548D01*
X352193Y746455D01*
X352126Y746365D01*
X352056Y746278D01*
X351983Y746193D01*
X351907Y746110D01*
X351828Y746030D01*
X351747Y745953D01*
X351663Y745878D01*
X351577Y745807D01*
X351488Y745738D01*
X351397Y745673D01*
X351303Y745611D01*
X351208Y745552D01*
X351110Y745497D01*
X351011Y745445D01*
X350910Y745396D01*
X350807Y745351D01*
X350703Y745309D01*
X350598Y745271D01*
X350491Y745237D01*
X350383Y745206D01*
X350274Y745179D01*
X350164Y745156D01*
X350054Y745137D01*
X349943Y745122D01*
X349831Y745110D01*
X349719Y745102D01*
X349607Y745098D01*
X349495Y745098D01*
X349383Y745102D01*
X349271Y745110D01*
X349159Y745122D01*
X349048Y745137D01*
X348938Y745156D01*
X348828Y745179D01*
X348719Y745206D01*
X348611Y745237D01*
X348504Y745271D01*
X348399Y745309D01*
X348295Y745351D01*
X348192Y745396D01*
X348091Y745445D01*
X347992Y745497D01*
X347894Y745552D01*
X347799Y745611D01*
X347705Y745673D01*
X347614Y745738D01*
X347525Y745807D01*
X347439Y745878D01*
X347355Y745953D01*
X347274Y746030D01*
X347195Y746110D01*
X347119Y746193D01*
X347046Y746278D01*
X346976Y746365D01*
X346909Y746455D01*
X346846Y746548D01*
X346785Y746642D01*
X346728Y746739D01*
X346674Y746837D01*
X346624Y746937D01*
X346577Y747039D01*
X346533Y747143D01*
X346494Y747247D01*
X346458Y747354D01*
X346425Y747461D01*
X346396Y747569D01*
X346371Y747679D01*
X346350Y747789D01*
X346333Y747900D01*
X346319Y748011D01*
X346310Y748123D01*
X346304Y748235D01*
X346302Y748347D01*
X346301Y748347D02*
X346301Y751596D01*
X346303Y751739D01*
X346309Y751882D01*
X346319Y752025D01*
X346333Y752168D01*
X346350Y752310D01*
X346372Y752452D01*
X346397Y752593D01*
X346427Y752733D01*
X346460Y752872D01*
X346497Y753011D01*
X346538Y753148D01*
X346583Y753284D01*
X346631Y753419D01*
X346683Y753552D01*
X346739Y753684D01*
X346798Y753815D01*
X346861Y753944D01*
X346928Y754070D01*
X346998Y754195D01*
X347071Y754319D01*
X347148Y754440D01*
X347228Y754558D01*
X347311Y754675D01*
X347397Y754789D01*
X347487Y754901D01*
X347579Y755010D01*
X347675Y755117D01*
X347773Y755221D01*
X347875Y755323D01*
X347979Y755421D01*
X348086Y755517D01*
X348195Y755609D01*
X348307Y755699D01*
X348421Y755785D01*
X348538Y755868D01*
X348656Y755948D01*
X348777Y756025D01*
X348900Y756098D01*
X349026Y756168D01*
X349152Y756235D01*
X349281Y756298D01*
X349412Y756357D01*
X349544Y756413D01*
X349677Y756465D01*
X349812Y756513D01*
X349948Y756558D01*
X350085Y756599D01*
X350224Y756636D01*
X350363Y756669D01*
X350503Y756699D01*
X350644Y756724D01*
X350786Y756746D01*
X350928Y756763D01*
X351071Y756777D01*
X351214Y756787D01*
X351357Y756793D01*
X351500Y756795D01*
D12*
X268600Y642000D02*
X608600Y642000D01*
X608600Y715650D01*
X268600Y715650D01*
X268600Y642000D01*
D14*
X337820Y609600D02*
X347980Y609600D01*
D15*
X355981Y610563D02*
X363347Y610563D01*
X355981Y610563D02*
X355981Y612609D01*
X355983Y612698D01*
X355989Y612787D01*
X355999Y612876D01*
X356012Y612964D01*
X356029Y613052D01*
X356051Y613139D01*
X356076Y613224D01*
X356104Y613309D01*
X356137Y613392D01*
X356173Y613474D01*
X356212Y613554D01*
X356255Y613632D01*
X356301Y613708D01*
X356351Y613783D01*
X356404Y613855D01*
X356460Y613924D01*
X356519Y613991D01*
X356580Y614056D01*
X356645Y614117D01*
X356712Y614176D01*
X356781Y614232D01*
X356853Y614285D01*
X356928Y614335D01*
X357004Y614381D01*
X357082Y614424D01*
X357162Y614463D01*
X357244Y614499D01*
X357327Y614532D01*
X357412Y614560D01*
X357497Y614585D01*
X357584Y614607D01*
X357672Y614624D01*
X357760Y614637D01*
X357849Y614647D01*
X357938Y614653D01*
X358027Y614655D01*
X358116Y614653D01*
X358205Y614647D01*
X358294Y614637D01*
X358382Y614624D01*
X358470Y614607D01*
X358557Y614585D01*
X358642Y614560D01*
X358727Y614532D01*
X358810Y614499D01*
X358892Y614463D01*
X358972Y614424D01*
X359050Y614381D01*
X359126Y614335D01*
X359201Y614285D01*
X359273Y614232D01*
X359342Y614176D01*
X359409Y614117D01*
X359474Y614056D01*
X359535Y613991D01*
X359594Y613924D01*
X359650Y613855D01*
X359703Y613783D01*
X359753Y613708D01*
X359799Y613632D01*
X359842Y613554D01*
X359881Y613474D01*
X359917Y613392D01*
X359950Y613309D01*
X359978Y613224D01*
X360003Y613139D01*
X360025Y613052D01*
X360042Y612964D01*
X360055Y612876D01*
X360065Y612787D01*
X360071Y612698D01*
X360073Y612609D01*
X360073Y610563D01*
X360073Y613018D02*
X363347Y614655D01*
X357618Y617827D02*
X355981Y619873D01*
X363347Y619873D01*
X363347Y617827D02*
X363347Y621919D01*
D14*
X375920Y609600D02*
X386080Y609600D01*
D15*
X394081Y610563D02*
X401447Y610563D01*
X394081Y610563D02*
X394081Y612609D01*
X394083Y612698D01*
X394089Y612787D01*
X394099Y612876D01*
X394112Y612964D01*
X394129Y613052D01*
X394151Y613139D01*
X394176Y613224D01*
X394204Y613309D01*
X394237Y613392D01*
X394273Y613474D01*
X394312Y613554D01*
X394355Y613632D01*
X394401Y613708D01*
X394451Y613783D01*
X394504Y613855D01*
X394560Y613924D01*
X394619Y613991D01*
X394680Y614056D01*
X394745Y614117D01*
X394812Y614176D01*
X394881Y614232D01*
X394953Y614285D01*
X395028Y614335D01*
X395104Y614381D01*
X395182Y614424D01*
X395262Y614463D01*
X395344Y614499D01*
X395427Y614532D01*
X395512Y614560D01*
X395597Y614585D01*
X395684Y614607D01*
X395772Y614624D01*
X395860Y614637D01*
X395949Y614647D01*
X396038Y614653D01*
X396127Y614655D01*
X396216Y614653D01*
X396305Y614647D01*
X396394Y614637D01*
X396482Y614624D01*
X396570Y614607D01*
X396657Y614585D01*
X396742Y614560D01*
X396827Y614532D01*
X396910Y614499D01*
X396992Y614463D01*
X397072Y614424D01*
X397150Y614381D01*
X397226Y614335D01*
X397301Y614285D01*
X397373Y614232D01*
X397442Y614176D01*
X397509Y614117D01*
X397574Y614056D01*
X397635Y613991D01*
X397694Y613924D01*
X397750Y613855D01*
X397803Y613783D01*
X397853Y613708D01*
X397899Y613632D01*
X397942Y613554D01*
X397981Y613474D01*
X398017Y613392D01*
X398050Y613309D01*
X398078Y613224D01*
X398103Y613139D01*
X398125Y613052D01*
X398142Y612964D01*
X398155Y612876D01*
X398165Y612787D01*
X398171Y612698D01*
X398173Y612609D01*
X398173Y610563D01*
X398173Y613018D02*
X401447Y614655D01*
X395923Y621920D02*
X395838Y621918D01*
X395753Y621912D01*
X395669Y621902D01*
X395585Y621889D01*
X395501Y621871D01*
X395419Y621850D01*
X395338Y621825D01*
X395258Y621796D01*
X395179Y621763D01*
X395102Y621727D01*
X395027Y621687D01*
X394953Y621644D01*
X394882Y621598D01*
X394813Y621548D01*
X394746Y621495D01*
X394682Y621439D01*
X394621Y621380D01*
X394562Y621319D01*
X394506Y621255D01*
X394453Y621188D01*
X394403Y621119D01*
X394357Y621048D01*
X394314Y620974D01*
X394274Y620899D01*
X394238Y620822D01*
X394205Y620743D01*
X394176Y620663D01*
X394151Y620582D01*
X394130Y620500D01*
X394112Y620416D01*
X394099Y620332D01*
X394089Y620248D01*
X394083Y620163D01*
X394081Y620078D01*
X394083Y619982D01*
X394089Y619886D01*
X394099Y619791D01*
X394112Y619696D01*
X394130Y619601D01*
X394151Y619508D01*
X394176Y619415D01*
X394205Y619324D01*
X394237Y619233D01*
X394273Y619144D01*
X394313Y619057D01*
X394356Y618971D01*
X394402Y618887D01*
X394452Y618805D01*
X394506Y618725D01*
X394562Y618648D01*
X394622Y618573D01*
X394684Y618500D01*
X394750Y618430D01*
X394818Y618362D01*
X394889Y618297D01*
X394962Y618236D01*
X395038Y618177D01*
X395117Y618121D01*
X395197Y618069D01*
X395280Y618020D01*
X395364Y617974D01*
X395450Y617932D01*
X395538Y617894D01*
X395627Y617859D01*
X395718Y617827D01*
X397355Y621305D02*
X397296Y621365D01*
X397234Y621422D01*
X397170Y621477D01*
X397103Y621528D01*
X397034Y621577D01*
X396964Y621623D01*
X396891Y621666D01*
X396817Y621706D01*
X396741Y621742D01*
X396663Y621775D01*
X396584Y621805D01*
X396504Y621832D01*
X396423Y621855D01*
X396341Y621874D01*
X396259Y621890D01*
X396175Y621903D01*
X396091Y621912D01*
X396007Y621917D01*
X395923Y621919D01*
X397355Y621305D02*
X401447Y617827D01*
X401447Y621919D01*
D14*
X414020Y609600D02*
X424180Y609600D01*
D15*
X432181Y610563D02*
X439547Y610563D01*
X432181Y610563D02*
X432181Y612609D01*
X432183Y612698D01*
X432189Y612787D01*
X432199Y612876D01*
X432212Y612964D01*
X432229Y613052D01*
X432251Y613139D01*
X432276Y613224D01*
X432304Y613309D01*
X432337Y613392D01*
X432373Y613474D01*
X432412Y613554D01*
X432455Y613632D01*
X432501Y613708D01*
X432551Y613783D01*
X432604Y613855D01*
X432660Y613924D01*
X432719Y613991D01*
X432780Y614056D01*
X432845Y614117D01*
X432912Y614176D01*
X432981Y614232D01*
X433053Y614285D01*
X433128Y614335D01*
X433204Y614381D01*
X433282Y614424D01*
X433362Y614463D01*
X433444Y614499D01*
X433527Y614532D01*
X433612Y614560D01*
X433697Y614585D01*
X433784Y614607D01*
X433872Y614624D01*
X433960Y614637D01*
X434049Y614647D01*
X434138Y614653D01*
X434227Y614655D01*
X434316Y614653D01*
X434405Y614647D01*
X434494Y614637D01*
X434582Y614624D01*
X434670Y614607D01*
X434757Y614585D01*
X434842Y614560D01*
X434927Y614532D01*
X435010Y614499D01*
X435092Y614463D01*
X435172Y614424D01*
X435250Y614381D01*
X435326Y614335D01*
X435401Y614285D01*
X435473Y614232D01*
X435542Y614176D01*
X435609Y614117D01*
X435674Y614056D01*
X435735Y613991D01*
X435794Y613924D01*
X435850Y613855D01*
X435903Y613783D01*
X435953Y613708D01*
X435999Y613632D01*
X436042Y613554D01*
X436081Y613474D01*
X436117Y613392D01*
X436150Y613309D01*
X436178Y613224D01*
X436203Y613139D01*
X436225Y613052D01*
X436242Y612964D01*
X436255Y612876D01*
X436265Y612787D01*
X436271Y612698D01*
X436273Y612609D01*
X436273Y610563D01*
X436273Y613018D02*
X439547Y614655D01*
X439547Y617827D02*
X439547Y619873D01*
X439545Y619962D01*
X439539Y620051D01*
X439529Y620140D01*
X439516Y620228D01*
X439499Y620316D01*
X439477Y620403D01*
X439452Y620488D01*
X439424Y620573D01*
X439391Y620656D01*
X439355Y620738D01*
X439316Y620818D01*
X439273Y620896D01*
X439227Y620972D01*
X439177Y621047D01*
X439124Y621119D01*
X439068Y621188D01*
X439009Y621255D01*
X438948Y621320D01*
X438883Y621381D01*
X438816Y621440D01*
X438747Y621496D01*
X438675Y621549D01*
X438600Y621599D01*
X438524Y621645D01*
X438446Y621688D01*
X438366Y621727D01*
X438284Y621763D01*
X438201Y621796D01*
X438116Y621824D01*
X438031Y621849D01*
X437944Y621871D01*
X437856Y621888D01*
X437768Y621901D01*
X437679Y621911D01*
X437590Y621917D01*
X437501Y621919D01*
X437412Y621917D01*
X437323Y621911D01*
X437234Y621901D01*
X437146Y621888D01*
X437058Y621871D01*
X436971Y621849D01*
X436886Y621824D01*
X436801Y621796D01*
X436718Y621763D01*
X436636Y621727D01*
X436556Y621688D01*
X436478Y621645D01*
X436402Y621599D01*
X436327Y621549D01*
X436255Y621496D01*
X436186Y621440D01*
X436119Y621381D01*
X436054Y621320D01*
X435993Y621255D01*
X435934Y621188D01*
X435878Y621119D01*
X435825Y621047D01*
X435775Y620972D01*
X435729Y620896D01*
X435686Y620818D01*
X435647Y620738D01*
X435611Y620656D01*
X435578Y620573D01*
X435550Y620488D01*
X435525Y620403D01*
X435503Y620316D01*
X435486Y620228D01*
X435473Y620140D01*
X435463Y620051D01*
X435457Y619962D01*
X435455Y619873D01*
X432181Y620282D02*
X432181Y617827D01*
X432181Y620282D02*
X432183Y620361D01*
X432189Y620440D01*
X432198Y620519D01*
X432211Y620597D01*
X432229Y620674D01*
X432249Y620750D01*
X432274Y620825D01*
X432302Y620899D01*
X432333Y620972D01*
X432369Y621043D01*
X432407Y621112D01*
X432449Y621179D01*
X432494Y621244D01*
X432542Y621307D01*
X432593Y621368D01*
X432647Y621425D01*
X432703Y621481D01*
X432762Y621533D01*
X432824Y621583D01*
X432888Y621629D01*
X432954Y621673D01*
X433022Y621713D01*
X433092Y621749D01*
X433164Y621783D01*
X433238Y621813D01*
X433312Y621839D01*
X433388Y621862D01*
X433465Y621880D01*
X433542Y621896D01*
X433621Y621907D01*
X433699Y621915D01*
X433778Y621919D01*
X433858Y621919D01*
X433937Y621915D01*
X434015Y621907D01*
X434094Y621896D01*
X434171Y621880D01*
X434248Y621862D01*
X434324Y621839D01*
X434398Y621813D01*
X434472Y621783D01*
X434544Y621749D01*
X434614Y621713D01*
X434682Y621673D01*
X434748Y621629D01*
X434812Y621583D01*
X434874Y621533D01*
X434933Y621481D01*
X434989Y621425D01*
X435043Y621368D01*
X435094Y621307D01*
X435142Y621244D01*
X435187Y621179D01*
X435229Y621112D01*
X435267Y621043D01*
X435303Y620972D01*
X435334Y620899D01*
X435362Y620825D01*
X435387Y620750D01*
X435407Y620674D01*
X435425Y620597D01*
X435438Y620519D01*
X435447Y620440D01*
X435453Y620361D01*
X435455Y620282D01*
X435455Y618645D01*
D14*
X452120Y609600D02*
X462280Y609600D01*
D15*
X470281Y610563D02*
X477647Y610563D01*
X470281Y610563D02*
X470281Y612609D01*
X470283Y612698D01*
X470289Y612787D01*
X470299Y612876D01*
X470312Y612964D01*
X470329Y613052D01*
X470351Y613139D01*
X470376Y613224D01*
X470404Y613309D01*
X470437Y613392D01*
X470473Y613474D01*
X470512Y613554D01*
X470555Y613632D01*
X470601Y613708D01*
X470651Y613783D01*
X470704Y613855D01*
X470760Y613924D01*
X470819Y613991D01*
X470880Y614056D01*
X470945Y614117D01*
X471012Y614176D01*
X471081Y614232D01*
X471153Y614285D01*
X471228Y614335D01*
X471304Y614381D01*
X471382Y614424D01*
X471462Y614463D01*
X471544Y614499D01*
X471627Y614532D01*
X471712Y614560D01*
X471797Y614585D01*
X471884Y614607D01*
X471972Y614624D01*
X472060Y614637D01*
X472149Y614647D01*
X472238Y614653D01*
X472327Y614655D01*
X472416Y614653D01*
X472505Y614647D01*
X472594Y614637D01*
X472682Y614624D01*
X472770Y614607D01*
X472857Y614585D01*
X472942Y614560D01*
X473027Y614532D01*
X473110Y614499D01*
X473192Y614463D01*
X473272Y614424D01*
X473350Y614381D01*
X473426Y614335D01*
X473501Y614285D01*
X473573Y614232D01*
X473642Y614176D01*
X473709Y614117D01*
X473774Y614056D01*
X473835Y613991D01*
X473894Y613924D01*
X473950Y613855D01*
X474003Y613783D01*
X474053Y613708D01*
X474099Y613632D01*
X474142Y613554D01*
X474181Y613474D01*
X474217Y613392D01*
X474250Y613309D01*
X474278Y613224D01*
X474303Y613139D01*
X474325Y613052D01*
X474342Y612964D01*
X474355Y612876D01*
X474365Y612787D01*
X474371Y612698D01*
X474373Y612609D01*
X474373Y610563D01*
X474373Y613018D02*
X477647Y614655D01*
X476010Y617827D02*
X470281Y619464D01*
X476010Y617827D02*
X476010Y621919D01*
X474373Y620691D02*
X477647Y620691D01*
D14*
X490220Y609600D02*
X500380Y609600D01*
D15*
X508381Y610563D02*
X515747Y610563D01*
X508381Y610563D02*
X508381Y612609D01*
X508383Y612698D01*
X508389Y612787D01*
X508399Y612876D01*
X508412Y612964D01*
X508429Y613052D01*
X508451Y613139D01*
X508476Y613224D01*
X508504Y613309D01*
X508537Y613392D01*
X508573Y613474D01*
X508612Y613554D01*
X508655Y613632D01*
X508701Y613708D01*
X508751Y613783D01*
X508804Y613855D01*
X508860Y613924D01*
X508919Y613991D01*
X508980Y614056D01*
X509045Y614117D01*
X509112Y614176D01*
X509181Y614232D01*
X509253Y614285D01*
X509328Y614335D01*
X509404Y614381D01*
X509482Y614424D01*
X509562Y614463D01*
X509644Y614499D01*
X509727Y614532D01*
X509812Y614560D01*
X509897Y614585D01*
X509984Y614607D01*
X510072Y614624D01*
X510160Y614637D01*
X510249Y614647D01*
X510338Y614653D01*
X510427Y614655D01*
X510516Y614653D01*
X510605Y614647D01*
X510694Y614637D01*
X510782Y614624D01*
X510870Y614607D01*
X510957Y614585D01*
X511042Y614560D01*
X511127Y614532D01*
X511210Y614499D01*
X511292Y614463D01*
X511372Y614424D01*
X511450Y614381D01*
X511526Y614335D01*
X511601Y614285D01*
X511673Y614232D01*
X511742Y614176D01*
X511809Y614117D01*
X511874Y614056D01*
X511935Y613991D01*
X511994Y613924D01*
X512050Y613855D01*
X512103Y613783D01*
X512153Y613708D01*
X512199Y613632D01*
X512242Y613554D01*
X512281Y613474D01*
X512317Y613392D01*
X512350Y613309D01*
X512378Y613224D01*
X512403Y613139D01*
X512425Y613052D01*
X512442Y612964D01*
X512455Y612876D01*
X512465Y612787D01*
X512471Y612698D01*
X512473Y612609D01*
X512473Y610563D01*
X512473Y613018D02*
X515747Y614655D01*
X515747Y617827D02*
X515747Y620282D01*
X515745Y620360D01*
X515740Y620438D01*
X515730Y620515D01*
X515717Y620592D01*
X515701Y620668D01*
X515681Y620743D01*
X515657Y620817D01*
X515630Y620890D01*
X515599Y620962D01*
X515565Y621032D01*
X515528Y621101D01*
X515487Y621167D01*
X515443Y621232D01*
X515397Y621294D01*
X515347Y621354D01*
X515295Y621412D01*
X515240Y621467D01*
X515182Y621519D01*
X515122Y621569D01*
X515060Y621615D01*
X514995Y621659D01*
X514929Y621700D01*
X514860Y621737D01*
X514790Y621771D01*
X514718Y621802D01*
X514645Y621829D01*
X514571Y621853D01*
X514496Y621873D01*
X514420Y621889D01*
X514343Y621902D01*
X514266Y621912D01*
X514188Y621917D01*
X514110Y621919D01*
X513292Y621919D01*
X513212Y621917D01*
X513132Y621911D01*
X513052Y621901D01*
X512973Y621888D01*
X512894Y621870D01*
X512817Y621849D01*
X512741Y621823D01*
X512666Y621794D01*
X512592Y621762D01*
X512520Y621726D01*
X512450Y621686D01*
X512383Y621643D01*
X512317Y621597D01*
X512254Y621547D01*
X512193Y621495D01*
X512134Y621440D01*
X512079Y621381D01*
X512027Y621321D01*
X511977Y621257D01*
X511931Y621191D01*
X511888Y621124D01*
X511848Y621054D01*
X511812Y620982D01*
X511780Y620908D01*
X511751Y620834D01*
X511725Y620757D01*
X511704Y620680D01*
X511686Y620601D01*
X511673Y620522D01*
X511663Y620442D01*
X511657Y620362D01*
X511655Y620282D01*
X511655Y617827D01*
X508381Y617827D01*
X508381Y621919D01*
D14*
X528320Y609600D02*
X538480Y609600D01*
D15*
X546481Y610563D02*
X553847Y610563D01*
X546481Y610563D02*
X546481Y612609D01*
X546483Y612698D01*
X546489Y612787D01*
X546499Y612876D01*
X546512Y612964D01*
X546529Y613052D01*
X546551Y613139D01*
X546576Y613224D01*
X546604Y613309D01*
X546637Y613392D01*
X546673Y613474D01*
X546712Y613554D01*
X546755Y613632D01*
X546801Y613708D01*
X546851Y613783D01*
X546904Y613855D01*
X546960Y613924D01*
X547019Y613991D01*
X547080Y614056D01*
X547145Y614117D01*
X547212Y614176D01*
X547281Y614232D01*
X547353Y614285D01*
X547428Y614335D01*
X547504Y614381D01*
X547582Y614424D01*
X547662Y614463D01*
X547744Y614499D01*
X547827Y614532D01*
X547912Y614560D01*
X547997Y614585D01*
X548084Y614607D01*
X548172Y614624D01*
X548260Y614637D01*
X548349Y614647D01*
X548438Y614653D01*
X548527Y614655D01*
X548616Y614653D01*
X548705Y614647D01*
X548794Y614637D01*
X548882Y614624D01*
X548970Y614607D01*
X549057Y614585D01*
X549142Y614560D01*
X549227Y614532D01*
X549310Y614499D01*
X549392Y614463D01*
X549472Y614424D01*
X549550Y614381D01*
X549626Y614335D01*
X549701Y614285D01*
X549773Y614232D01*
X549842Y614176D01*
X549909Y614117D01*
X549974Y614056D01*
X550035Y613991D01*
X550094Y613924D01*
X550150Y613855D01*
X550203Y613783D01*
X550253Y613708D01*
X550299Y613632D01*
X550342Y613554D01*
X550381Y613474D01*
X550417Y613392D01*
X550450Y613309D01*
X550478Y613224D01*
X550503Y613139D01*
X550525Y613052D01*
X550542Y612964D01*
X550555Y612876D01*
X550565Y612787D01*
X550571Y612698D01*
X550573Y612609D01*
X550573Y610563D01*
X550573Y613018D02*
X553847Y614655D01*
X549755Y617827D02*
X549755Y620282D01*
X549757Y620360D01*
X549762Y620438D01*
X549772Y620515D01*
X549785Y620592D01*
X549801Y620668D01*
X549821Y620743D01*
X549845Y620817D01*
X549872Y620890D01*
X549903Y620962D01*
X549937Y621032D01*
X549974Y621101D01*
X550015Y621167D01*
X550059Y621232D01*
X550105Y621294D01*
X550155Y621354D01*
X550207Y621412D01*
X550262Y621467D01*
X550320Y621519D01*
X550380Y621569D01*
X550442Y621615D01*
X550507Y621659D01*
X550574Y621700D01*
X550642Y621737D01*
X550712Y621771D01*
X550784Y621802D01*
X550857Y621829D01*
X550931Y621853D01*
X551006Y621873D01*
X551082Y621889D01*
X551159Y621902D01*
X551236Y621912D01*
X551314Y621917D01*
X551392Y621919D01*
X551801Y621919D01*
X551890Y621917D01*
X551979Y621911D01*
X552068Y621901D01*
X552156Y621888D01*
X552244Y621871D01*
X552331Y621849D01*
X552416Y621824D01*
X552501Y621796D01*
X552584Y621763D01*
X552666Y621727D01*
X552746Y621688D01*
X552824Y621645D01*
X552900Y621599D01*
X552975Y621549D01*
X553047Y621496D01*
X553116Y621440D01*
X553183Y621381D01*
X553248Y621320D01*
X553309Y621255D01*
X553368Y621188D01*
X553424Y621119D01*
X553477Y621047D01*
X553527Y620972D01*
X553573Y620896D01*
X553616Y620818D01*
X553655Y620738D01*
X553691Y620656D01*
X553724Y620573D01*
X553752Y620488D01*
X553777Y620403D01*
X553799Y620316D01*
X553816Y620228D01*
X553829Y620140D01*
X553839Y620051D01*
X553845Y619962D01*
X553847Y619873D01*
X553845Y619784D01*
X553839Y619695D01*
X553829Y619606D01*
X553816Y619518D01*
X553799Y619430D01*
X553777Y619343D01*
X553752Y619258D01*
X553724Y619173D01*
X553691Y619090D01*
X553655Y619008D01*
X553616Y618928D01*
X553573Y618850D01*
X553527Y618774D01*
X553477Y618699D01*
X553424Y618627D01*
X553368Y618558D01*
X553309Y618491D01*
X553248Y618426D01*
X553183Y618365D01*
X553116Y618306D01*
X553047Y618250D01*
X552975Y618197D01*
X552900Y618147D01*
X552824Y618101D01*
X552746Y618058D01*
X552666Y618019D01*
X552584Y617983D01*
X552501Y617950D01*
X552416Y617922D01*
X552331Y617897D01*
X552244Y617875D01*
X552156Y617858D01*
X552068Y617845D01*
X551979Y617835D01*
X551890Y617829D01*
X551801Y617827D01*
X549755Y617827D01*
X549641Y617829D01*
X549527Y617835D01*
X549413Y617845D01*
X549299Y617859D01*
X549186Y617877D01*
X549074Y617899D01*
X548963Y617924D01*
X548853Y617954D01*
X548743Y617987D01*
X548635Y618024D01*
X548529Y618065D01*
X548423Y618110D01*
X548320Y618158D01*
X548218Y618210D01*
X548118Y618266D01*
X548020Y618324D01*
X547924Y618387D01*
X547831Y618452D01*
X547739Y618521D01*
X547651Y618593D01*
X547564Y618668D01*
X547481Y618746D01*
X547400Y618827D01*
X547322Y618910D01*
X547247Y618996D01*
X547175Y619085D01*
X547106Y619177D01*
X547041Y619270D01*
X546979Y619366D01*
X546920Y619464D01*
X546864Y619564D01*
X546812Y619666D01*
X546764Y619769D01*
X546719Y619874D01*
X546678Y619981D01*
X546641Y620089D01*
X546608Y620199D01*
X546578Y620309D01*
X546553Y620420D01*
X546531Y620532D01*
X546513Y620645D01*
X546499Y620759D01*
X546489Y620873D01*
X546483Y620987D01*
X546481Y621101D01*
D14*
X566420Y609600D02*
X576580Y609600D01*
D15*
X584581Y610563D02*
X591947Y610563D01*
X584581Y610563D02*
X584581Y612609D01*
X584583Y612698D01*
X584589Y612787D01*
X584599Y612876D01*
X584612Y612964D01*
X584629Y613052D01*
X584651Y613139D01*
X584676Y613224D01*
X584704Y613309D01*
X584737Y613392D01*
X584773Y613474D01*
X584812Y613554D01*
X584855Y613632D01*
X584901Y613708D01*
X584951Y613783D01*
X585004Y613855D01*
X585060Y613924D01*
X585119Y613991D01*
X585180Y614056D01*
X585245Y614117D01*
X585312Y614176D01*
X585381Y614232D01*
X585453Y614285D01*
X585528Y614335D01*
X585604Y614381D01*
X585682Y614424D01*
X585762Y614463D01*
X585844Y614499D01*
X585927Y614532D01*
X586012Y614560D01*
X586097Y614585D01*
X586184Y614607D01*
X586272Y614624D01*
X586360Y614637D01*
X586449Y614647D01*
X586538Y614653D01*
X586627Y614655D01*
X586716Y614653D01*
X586805Y614647D01*
X586894Y614637D01*
X586982Y614624D01*
X587070Y614607D01*
X587157Y614585D01*
X587242Y614560D01*
X587327Y614532D01*
X587410Y614499D01*
X587492Y614463D01*
X587572Y614424D01*
X587650Y614381D01*
X587726Y614335D01*
X587801Y614285D01*
X587873Y614232D01*
X587942Y614176D01*
X588009Y614117D01*
X588074Y614056D01*
X588135Y613991D01*
X588194Y613924D01*
X588250Y613855D01*
X588303Y613783D01*
X588353Y613708D01*
X588399Y613632D01*
X588442Y613554D01*
X588481Y613474D01*
X588517Y613392D01*
X588550Y613309D01*
X588578Y613224D01*
X588603Y613139D01*
X588625Y613052D01*
X588642Y612964D01*
X588655Y612876D01*
X588665Y612787D01*
X588671Y612698D01*
X588673Y612609D01*
X588673Y610563D01*
X588673Y613018D02*
X591947Y614655D01*
X585399Y617827D02*
X584581Y617827D01*
X584581Y621919D01*
X591947Y619873D01*
D14*
X309880Y609600D02*
X299720Y609600D01*
D15*
X317881Y610563D02*
X325247Y610563D01*
X317881Y610563D02*
X317881Y612609D01*
X317883Y612698D01*
X317889Y612787D01*
X317899Y612876D01*
X317912Y612964D01*
X317929Y613052D01*
X317951Y613139D01*
X317976Y613224D01*
X318004Y613309D01*
X318037Y613392D01*
X318073Y613474D01*
X318112Y613554D01*
X318155Y613632D01*
X318201Y613708D01*
X318251Y613783D01*
X318304Y613855D01*
X318360Y613924D01*
X318419Y613991D01*
X318480Y614056D01*
X318545Y614117D01*
X318612Y614176D01*
X318681Y614232D01*
X318753Y614285D01*
X318828Y614335D01*
X318904Y614381D01*
X318982Y614424D01*
X319062Y614463D01*
X319144Y614499D01*
X319227Y614532D01*
X319312Y614560D01*
X319397Y614585D01*
X319484Y614607D01*
X319572Y614624D01*
X319660Y614637D01*
X319749Y614647D01*
X319838Y614653D01*
X319927Y614655D01*
X320016Y614653D01*
X320105Y614647D01*
X320194Y614637D01*
X320282Y614624D01*
X320370Y614607D01*
X320457Y614585D01*
X320542Y614560D01*
X320627Y614532D01*
X320710Y614499D01*
X320792Y614463D01*
X320872Y614424D01*
X320950Y614381D01*
X321026Y614335D01*
X321101Y614285D01*
X321173Y614232D01*
X321242Y614176D01*
X321309Y614117D01*
X321374Y614056D01*
X321435Y613991D01*
X321494Y613924D01*
X321550Y613855D01*
X321603Y613783D01*
X321653Y613708D01*
X321699Y613632D01*
X321742Y613554D01*
X321781Y613474D01*
X321817Y613392D01*
X321850Y613309D01*
X321878Y613224D01*
X321903Y613139D01*
X321925Y613052D01*
X321942Y612964D01*
X321955Y612876D01*
X321965Y612787D01*
X321971Y612698D01*
X321973Y612609D01*
X321973Y610563D01*
X321973Y613018D02*
X325247Y614655D01*
X323201Y617827D02*
X323112Y617829D01*
X323023Y617835D01*
X322934Y617845D01*
X322846Y617858D01*
X322758Y617875D01*
X322671Y617897D01*
X322586Y617922D01*
X322501Y617950D01*
X322418Y617983D01*
X322336Y618019D01*
X322256Y618058D01*
X322178Y618101D01*
X322102Y618147D01*
X322027Y618197D01*
X321955Y618250D01*
X321886Y618306D01*
X321819Y618365D01*
X321754Y618426D01*
X321693Y618491D01*
X321634Y618558D01*
X321578Y618627D01*
X321525Y618699D01*
X321475Y618774D01*
X321429Y618850D01*
X321386Y618928D01*
X321347Y619008D01*
X321311Y619090D01*
X321278Y619173D01*
X321250Y619258D01*
X321225Y619343D01*
X321203Y619430D01*
X321186Y619518D01*
X321173Y619606D01*
X321163Y619695D01*
X321157Y619784D01*
X321155Y619873D01*
X321157Y619962D01*
X321163Y620051D01*
X321173Y620140D01*
X321186Y620228D01*
X321203Y620316D01*
X321225Y620403D01*
X321250Y620488D01*
X321278Y620573D01*
X321311Y620656D01*
X321347Y620738D01*
X321386Y620818D01*
X321429Y620896D01*
X321475Y620972D01*
X321525Y621047D01*
X321578Y621119D01*
X321634Y621188D01*
X321693Y621255D01*
X321754Y621320D01*
X321819Y621381D01*
X321886Y621440D01*
X321955Y621496D01*
X322027Y621549D01*
X322102Y621599D01*
X322178Y621645D01*
X322256Y621688D01*
X322336Y621727D01*
X322418Y621763D01*
X322501Y621796D01*
X322586Y621824D01*
X322671Y621849D01*
X322758Y621871D01*
X322846Y621888D01*
X322934Y621901D01*
X323023Y621911D01*
X323112Y621917D01*
X323201Y621919D01*
X323290Y621917D01*
X323379Y621911D01*
X323468Y621901D01*
X323556Y621888D01*
X323644Y621871D01*
X323731Y621849D01*
X323816Y621824D01*
X323901Y621796D01*
X323984Y621763D01*
X324066Y621727D01*
X324146Y621688D01*
X324224Y621645D01*
X324300Y621599D01*
X324375Y621549D01*
X324447Y621496D01*
X324516Y621440D01*
X324583Y621381D01*
X324648Y621320D01*
X324709Y621255D01*
X324768Y621188D01*
X324824Y621119D01*
X324877Y621047D01*
X324927Y620972D01*
X324973Y620896D01*
X325016Y620818D01*
X325055Y620738D01*
X325091Y620656D01*
X325124Y620573D01*
X325152Y620488D01*
X325177Y620403D01*
X325199Y620316D01*
X325216Y620228D01*
X325229Y620140D01*
X325239Y620051D01*
X325245Y619962D01*
X325247Y619873D01*
X325245Y619784D01*
X325239Y619695D01*
X325229Y619606D01*
X325216Y619518D01*
X325199Y619430D01*
X325177Y619343D01*
X325152Y619258D01*
X325124Y619173D01*
X325091Y619090D01*
X325055Y619008D01*
X325016Y618928D01*
X324973Y618850D01*
X324927Y618774D01*
X324877Y618699D01*
X324824Y618627D01*
X324768Y618558D01*
X324709Y618491D01*
X324648Y618426D01*
X324583Y618365D01*
X324516Y618306D01*
X324447Y618250D01*
X324375Y618197D01*
X324300Y618147D01*
X324224Y618101D01*
X324146Y618058D01*
X324066Y618019D01*
X323984Y617983D01*
X323901Y617950D01*
X323816Y617922D01*
X323731Y617897D01*
X323644Y617875D01*
X323556Y617858D01*
X323468Y617845D01*
X323379Y617835D01*
X323290Y617829D01*
X323201Y617827D01*
X319518Y618236D02*
X319439Y618238D01*
X319360Y618244D01*
X319281Y618253D01*
X319203Y618266D01*
X319126Y618284D01*
X319050Y618304D01*
X318975Y618329D01*
X318901Y618357D01*
X318828Y618388D01*
X318757Y618424D01*
X318688Y618462D01*
X318621Y618504D01*
X318556Y618549D01*
X318493Y618597D01*
X318432Y618648D01*
X318375Y618702D01*
X318319Y618758D01*
X318267Y618817D01*
X318217Y618879D01*
X318171Y618943D01*
X318127Y619009D01*
X318087Y619077D01*
X318051Y619147D01*
X318017Y619219D01*
X317987Y619293D01*
X317961Y619367D01*
X317938Y619443D01*
X317920Y619520D01*
X317904Y619597D01*
X317893Y619676D01*
X317885Y619754D01*
X317881Y619833D01*
X317881Y619913D01*
X317885Y619992D01*
X317893Y620070D01*
X317904Y620149D01*
X317920Y620226D01*
X317938Y620303D01*
X317961Y620379D01*
X317987Y620453D01*
X318017Y620527D01*
X318051Y620599D01*
X318087Y620669D01*
X318127Y620737D01*
X318171Y620803D01*
X318217Y620867D01*
X318267Y620929D01*
X318319Y620988D01*
X318375Y621044D01*
X318432Y621098D01*
X318493Y621149D01*
X318556Y621197D01*
X318621Y621242D01*
X318688Y621284D01*
X318757Y621322D01*
X318828Y621358D01*
X318901Y621389D01*
X318975Y621417D01*
X319050Y621442D01*
X319126Y621462D01*
X319203Y621480D01*
X319281Y621493D01*
X319360Y621502D01*
X319439Y621508D01*
X319518Y621510D01*
X319597Y621508D01*
X319676Y621502D01*
X319755Y621493D01*
X319833Y621480D01*
X319910Y621462D01*
X319986Y621442D01*
X320061Y621417D01*
X320135Y621389D01*
X320208Y621358D01*
X320279Y621322D01*
X320348Y621284D01*
X320415Y621242D01*
X320480Y621197D01*
X320543Y621149D01*
X320604Y621098D01*
X320661Y621044D01*
X320717Y620988D01*
X320769Y620929D01*
X320819Y620867D01*
X320865Y620803D01*
X320909Y620737D01*
X320949Y620669D01*
X320985Y620599D01*
X321019Y620527D01*
X321049Y620453D01*
X321075Y620379D01*
X321098Y620303D01*
X321116Y620226D01*
X321132Y620149D01*
X321143Y620070D01*
X321151Y619992D01*
X321155Y619913D01*
X321155Y619833D01*
X321151Y619754D01*
X321143Y619676D01*
X321132Y619597D01*
X321116Y619520D01*
X321098Y619443D01*
X321075Y619367D01*
X321049Y619293D01*
X321019Y619219D01*
X320985Y619147D01*
X320949Y619077D01*
X320909Y619009D01*
X320865Y618943D01*
X320819Y618879D01*
X320769Y618817D01*
X320717Y618758D01*
X320661Y618702D01*
X320604Y618648D01*
X320543Y618597D01*
X320480Y618549D01*
X320415Y618504D01*
X320348Y618462D01*
X320279Y618424D01*
X320208Y618388D01*
X320135Y618357D01*
X320061Y618329D01*
X319986Y618304D01*
X319910Y618284D01*
X319833Y618266D01*
X319755Y618253D01*
X319676Y618244D01*
X319597Y618238D01*
X319518Y618236D01*
D12*
X624840Y76200D02*
X624858Y77696D01*
X624913Y79191D01*
X625005Y80684D01*
X625134Y82175D01*
X625298Y83662D01*
X625500Y85145D01*
X625737Y86622D01*
X626011Y88093D01*
X626321Y89556D01*
X626667Y91012D01*
X627048Y92459D01*
X627465Y93896D01*
X627917Y95322D01*
X628403Y96737D01*
X628925Y98139D01*
X629480Y99528D01*
X630070Y100904D01*
X630693Y102264D01*
X631349Y103608D01*
X632038Y104936D01*
X632759Y106247D01*
X633513Y107540D01*
X634298Y108813D01*
X635114Y110068D01*
X635960Y111301D01*
X636836Y112514D01*
X637742Y113705D01*
X638677Y114873D01*
X639641Y116017D01*
X640632Y117138D01*
X641650Y118234D01*
X642695Y119305D01*
X643766Y120350D01*
X644862Y121368D01*
X645983Y122359D01*
X647127Y123323D01*
X648295Y124258D01*
X649486Y125164D01*
X650699Y126040D01*
X651932Y126886D01*
X653187Y127702D01*
X654460Y128487D01*
X655753Y129241D01*
X657064Y129962D01*
X658392Y130651D01*
X659736Y131307D01*
X661096Y131930D01*
X662472Y132520D01*
X663861Y133075D01*
X665263Y133597D01*
X666678Y134083D01*
X668104Y134535D01*
X669541Y134952D01*
X670988Y135333D01*
X672444Y135679D01*
X673907Y135989D01*
X675378Y136263D01*
X676855Y136500D01*
X678338Y136702D01*
X679825Y136866D01*
X681316Y136995D01*
X682809Y137087D01*
X684304Y137142D01*
X685800Y137160D01*
X687296Y137142D01*
X688791Y137087D01*
X690284Y136995D01*
X691775Y136866D01*
X693262Y136702D01*
X694745Y136500D01*
X696222Y136263D01*
X697693Y135989D01*
X699156Y135679D01*
X700612Y135333D01*
X702059Y134952D01*
X703496Y134535D01*
X704922Y134083D01*
X706337Y133597D01*
X707739Y133075D01*
X709128Y132520D01*
X710504Y131930D01*
X711864Y131307D01*
X713208Y130651D01*
X714536Y129962D01*
X715847Y129241D01*
X717140Y128487D01*
X718413Y127702D01*
X719668Y126886D01*
X720901Y126040D01*
X722114Y125164D01*
X723305Y124258D01*
X724473Y123323D01*
X725617Y122359D01*
X726738Y121368D01*
X727834Y120350D01*
X728905Y119305D01*
X729950Y118234D01*
X730968Y117138D01*
X731959Y116017D01*
X732923Y114873D01*
X733858Y113705D01*
X734764Y112514D01*
X735640Y111301D01*
X736486Y110068D01*
X737302Y108813D01*
X738087Y107540D01*
X738841Y106247D01*
X739562Y104936D01*
X740251Y103608D01*
X740907Y102264D01*
X741530Y100904D01*
X742120Y99528D01*
X742675Y98139D01*
X743197Y96737D01*
X743683Y95322D01*
X744135Y93896D01*
X744552Y92459D01*
X744933Y91012D01*
X745279Y89556D01*
X745589Y88093D01*
X745863Y86622D01*
X746100Y85145D01*
X746302Y83662D01*
X746466Y82175D01*
X746595Y80684D01*
X746687Y79191D01*
X746742Y77696D01*
X746760Y76200D01*
X746742Y74704D01*
X746687Y73209D01*
X746595Y71716D01*
X746466Y70225D01*
X746302Y68738D01*
X746100Y67255D01*
X745863Y65778D01*
X745589Y64307D01*
X745279Y62844D01*
X744933Y61388D01*
X744552Y59941D01*
X744135Y58504D01*
X743683Y57078D01*
X743197Y55663D01*
X742675Y54261D01*
X742120Y52872D01*
X741530Y51496D01*
X740907Y50136D01*
X740251Y48792D01*
X739562Y47464D01*
X738841Y46153D01*
X738087Y44860D01*
X737302Y43587D01*
X736486Y42332D01*
X735640Y41099D01*
X734764Y39886D01*
X733858Y38695D01*
X732923Y37527D01*
X731959Y36383D01*
X730968Y35262D01*
X729950Y34166D01*
X728905Y33095D01*
X727834Y32050D01*
X726738Y31032D01*
X725617Y30041D01*
X724473Y29077D01*
X723305Y28142D01*
X722114Y27236D01*
X720901Y26360D01*
X719668Y25514D01*
X718413Y24698D01*
X717140Y23913D01*
X715847Y23159D01*
X714536Y22438D01*
X713208Y21749D01*
X711864Y21093D01*
X710504Y20470D01*
X709128Y19880D01*
X707739Y19325D01*
X706337Y18803D01*
X704922Y18317D01*
X703496Y17865D01*
X702059Y17448D01*
X700612Y17067D01*
X699156Y16721D01*
X697693Y16411D01*
X696222Y16137D01*
X694745Y15900D01*
X693262Y15698D01*
X691775Y15534D01*
X690284Y15405D01*
X688791Y15313D01*
X687296Y15258D01*
X685800Y15240D01*
X684304Y15258D01*
X682809Y15313D01*
X681316Y15405D01*
X679825Y15534D01*
X678338Y15698D01*
X676855Y15900D01*
X675378Y16137D01*
X673907Y16411D01*
X672444Y16721D01*
X670988Y17067D01*
X669541Y17448D01*
X668104Y17865D01*
X666678Y18317D01*
X665263Y18803D01*
X663861Y19325D01*
X662472Y19880D01*
X661096Y20470D01*
X659736Y21093D01*
X658392Y21749D01*
X657064Y22438D01*
X655753Y23159D01*
X654460Y23913D01*
X653187Y24698D01*
X651932Y25514D01*
X650699Y26360D01*
X649486Y27236D01*
X648295Y28142D01*
X647127Y29077D01*
X645983Y30041D01*
X644862Y31032D01*
X643766Y32050D01*
X642695Y33095D01*
X641650Y34166D01*
X640632Y35262D01*
X639641Y36383D01*
X638677Y37527D01*
X637742Y38695D01*
X636836Y39886D01*
X635960Y41099D01*
X635114Y42332D01*
X634298Y43587D01*
X633513Y44860D01*
X632759Y46153D01*
X632038Y47464D01*
X631349Y48792D01*
X630693Y50136D01*
X630070Y51496D01*
X629480Y52872D01*
X628925Y54261D01*
X628403Y55663D01*
X627917Y57078D01*
X627465Y58504D01*
X627048Y59941D01*
X626667Y61388D01*
X626321Y62844D01*
X626011Y64307D01*
X625737Y65778D01*
X625500Y67255D01*
X625298Y68738D01*
X625134Y70225D01*
X625005Y71716D01*
X624913Y73209D01*
X624858Y74704D01*
X624840Y76200D01*
D14*
X664845Y140335D02*
X664945Y140337D01*
X665044Y140343D01*
X665144Y140353D01*
X665242Y140366D01*
X665341Y140384D01*
X665438Y140405D01*
X665534Y140430D01*
X665630Y140459D01*
X665724Y140492D01*
X665817Y140528D01*
X665908Y140568D01*
X665998Y140612D01*
X666086Y140659D01*
X666172Y140709D01*
X666256Y140763D01*
X666338Y140820D01*
X666417Y140880D01*
X666495Y140944D01*
X666569Y141010D01*
X666641Y141079D01*
X666710Y141151D01*
X666776Y141225D01*
X666840Y141303D01*
X666900Y141382D01*
X666957Y141464D01*
X667011Y141548D01*
X667061Y141634D01*
X667108Y141722D01*
X667152Y141812D01*
X667192Y141903D01*
X667228Y141996D01*
X667261Y142090D01*
X667290Y142186D01*
X667315Y142282D01*
X667336Y142379D01*
X667354Y142478D01*
X667367Y142576D01*
X667377Y142676D01*
X667383Y142775D01*
X667385Y142875D01*
X664845Y140335D02*
X664704Y140337D01*
X664563Y140342D01*
X664422Y140352D01*
X664281Y140365D01*
X664141Y140381D01*
X664001Y140402D01*
X663862Y140426D01*
X663723Y140454D01*
X663586Y140485D01*
X663449Y140520D01*
X663313Y140558D01*
X663178Y140600D01*
X663045Y140646D01*
X662912Y140695D01*
X662781Y140748D01*
X662652Y140804D01*
X662523Y140863D01*
X662397Y140926D01*
X662272Y140992D01*
X662149Y141061D01*
X662028Y141134D01*
X661909Y141210D01*
X661791Y141289D01*
X661676Y141370D01*
X661564Y141455D01*
X661453Y141543D01*
X661345Y141634D01*
X661239Y141727D01*
X661136Y141824D01*
X661035Y141923D01*
X661353Y149225D02*
X661355Y149325D01*
X661361Y149424D01*
X661371Y149524D01*
X661384Y149622D01*
X661402Y149721D01*
X661423Y149818D01*
X661448Y149914D01*
X661477Y150010D01*
X661510Y150104D01*
X661546Y150197D01*
X661586Y150288D01*
X661630Y150378D01*
X661677Y150466D01*
X661727Y150552D01*
X661781Y150636D01*
X661838Y150718D01*
X661898Y150797D01*
X661962Y150875D01*
X662028Y150949D01*
X662097Y151021D01*
X662169Y151090D01*
X662243Y151156D01*
X662321Y151220D01*
X662400Y151280D01*
X662482Y151337D01*
X662566Y151391D01*
X662652Y151441D01*
X662740Y151488D01*
X662830Y151532D01*
X662921Y151572D01*
X663014Y151608D01*
X663108Y151641D01*
X663204Y151670D01*
X663300Y151695D01*
X663397Y151716D01*
X663496Y151734D01*
X663594Y151747D01*
X663694Y151757D01*
X663793Y151763D01*
X663893Y151765D01*
X663893Y151766D02*
X664026Y151764D01*
X664159Y151759D01*
X664292Y151749D01*
X664425Y151736D01*
X664557Y151719D01*
X664689Y151699D01*
X664820Y151675D01*
X664950Y151647D01*
X665080Y151616D01*
X665208Y151581D01*
X665336Y151542D01*
X665462Y151500D01*
X665587Y151454D01*
X665711Y151405D01*
X665834Y151353D01*
X665955Y151297D01*
X666074Y151237D01*
X666192Y151175D01*
X666307Y151109D01*
X666421Y151040D01*
X666533Y150967D01*
X666643Y150892D01*
X666751Y150813D01*
X662622Y147002D02*
X662538Y147054D01*
X662455Y147109D01*
X662375Y147168D01*
X662297Y147229D01*
X662222Y147293D01*
X662149Y147361D01*
X662078Y147431D01*
X662011Y147503D01*
X661946Y147578D01*
X661884Y147656D01*
X661825Y147736D01*
X661769Y147818D01*
X661717Y147902D01*
X661668Y147988D01*
X661622Y148076D01*
X661579Y148166D01*
X661540Y148257D01*
X661505Y148350D01*
X661473Y148444D01*
X661445Y148539D01*
X661420Y148635D01*
X661400Y148732D01*
X661382Y148830D01*
X661369Y148928D01*
X661360Y149027D01*
X661354Y149126D01*
X661352Y149225D01*
X666115Y145098D02*
X666199Y145046D01*
X666282Y144991D01*
X666362Y144932D01*
X666440Y144871D01*
X666515Y144807D01*
X666588Y144739D01*
X666659Y144669D01*
X666726Y144597D01*
X666791Y144522D01*
X666853Y144444D01*
X666912Y144364D01*
X666968Y144282D01*
X667020Y144198D01*
X667069Y144112D01*
X667115Y144024D01*
X667158Y143934D01*
X667197Y143843D01*
X667232Y143750D01*
X667264Y143656D01*
X667292Y143561D01*
X667317Y143465D01*
X667337Y143368D01*
X667355Y143270D01*
X667368Y143172D01*
X667377Y143073D01*
X667383Y142974D01*
X667385Y142875D01*
X666115Y145098D02*
X662623Y147003D01*
X672656Y151765D02*
X672656Y140335D01*
X672656Y151765D02*
X675831Y151765D01*
X675942Y151763D01*
X676052Y151757D01*
X676163Y151748D01*
X676273Y151734D01*
X676382Y151717D01*
X676491Y151696D01*
X676599Y151671D01*
X676706Y151642D01*
X676812Y151610D01*
X676917Y151574D01*
X677020Y151534D01*
X677122Y151491D01*
X677223Y151444D01*
X677322Y151393D01*
X677419Y151340D01*
X677513Y151283D01*
X677606Y151222D01*
X677697Y151159D01*
X677786Y151092D01*
X677872Y151022D01*
X677955Y150949D01*
X678037Y150874D01*
X678115Y150796D01*
X678190Y150714D01*
X678263Y150631D01*
X678333Y150545D01*
X678400Y150456D01*
X678463Y150365D01*
X678524Y150272D01*
X678581Y150177D01*
X678634Y150081D01*
X678685Y149982D01*
X678732Y149881D01*
X678775Y149779D01*
X678815Y149676D01*
X678851Y149571D01*
X678883Y149465D01*
X678912Y149358D01*
X678937Y149250D01*
X678958Y149141D01*
X678975Y149032D01*
X678989Y148922D01*
X678998Y148811D01*
X679004Y148701D01*
X679006Y148590D01*
X679004Y148479D01*
X678998Y148369D01*
X678989Y148258D01*
X678975Y148148D01*
X678958Y148039D01*
X678937Y147930D01*
X678912Y147822D01*
X678883Y147715D01*
X678851Y147609D01*
X678815Y147504D01*
X678775Y147401D01*
X678732Y147299D01*
X678685Y147198D01*
X678634Y147099D01*
X678581Y147002D01*
X678524Y146908D01*
X678463Y146815D01*
X678400Y146724D01*
X678333Y146635D01*
X678263Y146549D01*
X678190Y146466D01*
X678115Y146384D01*
X678037Y146306D01*
X677955Y146231D01*
X677872Y146158D01*
X677786Y146088D01*
X677697Y146021D01*
X677606Y145958D01*
X677513Y145897D01*
X677419Y145840D01*
X677322Y145787D01*
X677223Y145736D01*
X677122Y145689D01*
X677020Y145646D01*
X676917Y145606D01*
X676812Y145570D01*
X676706Y145538D01*
X676599Y145509D01*
X676491Y145484D01*
X676382Y145463D01*
X676273Y145446D01*
X676163Y145432D01*
X676052Y145423D01*
X675942Y145417D01*
X675831Y145415D01*
X672656Y145415D01*
X683514Y149225D02*
X686689Y151765D01*
X686689Y140335D01*
X683514Y140335D02*
X689864Y140335D01*
X220980Y647700D02*
X210820Y647700D01*
D15*
X228981Y641348D02*
X236347Y641348D01*
X228981Y641348D02*
X228981Y643394D01*
X228983Y643483D01*
X228989Y643572D01*
X228999Y643661D01*
X229012Y643749D01*
X229029Y643837D01*
X229051Y643924D01*
X229076Y644009D01*
X229104Y644094D01*
X229137Y644177D01*
X229173Y644259D01*
X229212Y644339D01*
X229255Y644417D01*
X229301Y644493D01*
X229351Y644568D01*
X229404Y644640D01*
X229460Y644709D01*
X229519Y644776D01*
X229580Y644841D01*
X229645Y644902D01*
X229712Y644961D01*
X229781Y645017D01*
X229853Y645070D01*
X229928Y645120D01*
X230004Y645166D01*
X230082Y645209D01*
X230162Y645248D01*
X230244Y645284D01*
X230327Y645317D01*
X230412Y645345D01*
X230497Y645370D01*
X230584Y645392D01*
X230672Y645409D01*
X230760Y645422D01*
X230849Y645432D01*
X230938Y645438D01*
X231027Y645440D01*
X231116Y645438D01*
X231205Y645432D01*
X231294Y645422D01*
X231382Y645409D01*
X231470Y645392D01*
X231557Y645370D01*
X231642Y645345D01*
X231727Y645317D01*
X231810Y645284D01*
X231892Y645248D01*
X231972Y645209D01*
X232050Y645166D01*
X232126Y645120D01*
X232201Y645070D01*
X232273Y645017D01*
X232342Y644961D01*
X232409Y644902D01*
X232474Y644841D01*
X232535Y644776D01*
X232594Y644709D01*
X232650Y644640D01*
X232703Y644568D01*
X232753Y644493D01*
X232799Y644417D01*
X232842Y644339D01*
X232881Y644259D01*
X232917Y644177D01*
X232950Y644094D01*
X232978Y644009D01*
X233003Y643924D01*
X233025Y643837D01*
X233042Y643749D01*
X233055Y643661D01*
X233065Y643572D01*
X233071Y643483D01*
X233073Y643394D01*
X233073Y641348D01*
X233073Y643803D02*
X236347Y645440D01*
X230618Y648612D02*
X228981Y650658D01*
X236347Y650658D01*
X236347Y648612D02*
X236347Y652704D01*
X232664Y655927D02*
X232511Y655929D01*
X232358Y655935D01*
X232206Y655944D01*
X232053Y655958D01*
X231901Y655975D01*
X231750Y655996D01*
X231599Y656021D01*
X231449Y656050D01*
X231299Y656082D01*
X231151Y656119D01*
X231003Y656159D01*
X230856Y656202D01*
X230711Y656250D01*
X230567Y656301D01*
X230424Y656355D01*
X230282Y656414D01*
X230143Y656475D01*
X230004Y656541D01*
X229934Y656567D01*
X229864Y656597D01*
X229797Y656630D01*
X229731Y656666D01*
X229667Y656705D01*
X229605Y656748D01*
X229546Y656794D01*
X229488Y656842D01*
X229434Y656893D01*
X229381Y656947D01*
X229332Y657004D01*
X229285Y657063D01*
X229242Y657124D01*
X229201Y657187D01*
X229164Y657252D01*
X229129Y657319D01*
X229099Y657388D01*
X229071Y657458D01*
X229048Y657529D01*
X229027Y657601D01*
X229011Y657674D01*
X228998Y657748D01*
X228988Y657823D01*
X228983Y657898D01*
X228981Y657973D01*
X228983Y658048D01*
X228988Y658123D01*
X228998Y658198D01*
X229011Y658272D01*
X229027Y658345D01*
X229048Y658417D01*
X229071Y658488D01*
X229099Y658558D01*
X229129Y658627D01*
X229164Y658694D01*
X229201Y658759D01*
X229242Y658822D01*
X229285Y658883D01*
X229332Y658942D01*
X229381Y658999D01*
X229434Y659053D01*
X229488Y659104D01*
X229546Y659153D01*
X229605Y659198D01*
X229667Y659241D01*
X229731Y659280D01*
X229797Y659317D01*
X229865Y659349D01*
X229934Y659379D01*
X230004Y659405D01*
X230142Y659470D01*
X230282Y659532D01*
X230424Y659590D01*
X230567Y659645D01*
X230711Y659696D01*
X230856Y659744D01*
X231003Y659787D01*
X231150Y659827D01*
X231299Y659864D01*
X231449Y659896D01*
X231599Y659925D01*
X231750Y659950D01*
X231901Y659971D01*
X232053Y659988D01*
X232206Y660002D01*
X232358Y660011D01*
X232511Y660017D01*
X232664Y660019D01*
X232664Y655927D02*
X232817Y655929D01*
X232970Y655935D01*
X233122Y655944D01*
X233275Y655958D01*
X233427Y655975D01*
X233578Y655996D01*
X233729Y656021D01*
X233879Y656050D01*
X234029Y656082D01*
X234177Y656119D01*
X234325Y656159D01*
X234472Y656202D01*
X234617Y656250D01*
X234761Y656301D01*
X234904Y656355D01*
X235046Y656414D01*
X235185Y656475D01*
X235324Y656541D01*
X235395Y656567D01*
X235464Y656597D01*
X235531Y656630D01*
X235597Y656666D01*
X235661Y656705D01*
X235723Y656748D01*
X235782Y656794D01*
X235840Y656842D01*
X235894Y656893D01*
X235947Y656947D01*
X235996Y657004D01*
X236043Y657063D01*
X236086Y657124D01*
X236127Y657187D01*
X236164Y657252D01*
X236199Y657319D01*
X236229Y657388D01*
X236257Y657458D01*
X236280Y657529D01*
X236301Y657601D01*
X236317Y657674D01*
X236330Y657748D01*
X236340Y657823D01*
X236345Y657898D01*
X236347Y657973D01*
X235324Y659405D02*
X235186Y659470D01*
X235046Y659532D01*
X234904Y659590D01*
X234761Y659645D01*
X234617Y659696D01*
X234472Y659744D01*
X234325Y659787D01*
X234178Y659827D01*
X234029Y659864D01*
X233879Y659896D01*
X233729Y659925D01*
X233578Y659950D01*
X233427Y659971D01*
X233275Y659988D01*
X233122Y660002D01*
X232970Y660011D01*
X232817Y660017D01*
X232664Y660019D01*
X235324Y659405D02*
X235394Y659379D01*
X235464Y659349D01*
X235531Y659316D01*
X235597Y659280D01*
X235661Y659241D01*
X235723Y659198D01*
X235782Y659152D01*
X235840Y659104D01*
X235894Y659053D01*
X235947Y658999D01*
X235996Y658942D01*
X236043Y658883D01*
X236086Y658822D01*
X236127Y658759D01*
X236164Y658694D01*
X236199Y658627D01*
X236229Y658558D01*
X236257Y658488D01*
X236280Y658417D01*
X236301Y658345D01*
X236317Y658272D01*
X236330Y658198D01*
X236340Y658123D01*
X236345Y658048D01*
X236347Y657973D01*
X234710Y656336D02*
X230618Y659610D01*
D14*
X220980Y685800D02*
X210820Y685800D01*
D15*
X228981Y679448D02*
X236347Y679448D01*
X228981Y679448D02*
X228981Y681494D01*
X228983Y681583D01*
X228989Y681672D01*
X228999Y681761D01*
X229012Y681849D01*
X229029Y681937D01*
X229051Y682024D01*
X229076Y682109D01*
X229104Y682194D01*
X229137Y682277D01*
X229173Y682359D01*
X229212Y682439D01*
X229255Y682517D01*
X229301Y682593D01*
X229351Y682668D01*
X229404Y682740D01*
X229460Y682809D01*
X229519Y682876D01*
X229580Y682941D01*
X229645Y683002D01*
X229712Y683061D01*
X229781Y683117D01*
X229853Y683170D01*
X229928Y683220D01*
X230004Y683266D01*
X230082Y683309D01*
X230162Y683348D01*
X230244Y683384D01*
X230327Y683417D01*
X230412Y683445D01*
X230497Y683470D01*
X230584Y683492D01*
X230672Y683509D01*
X230760Y683522D01*
X230849Y683532D01*
X230938Y683538D01*
X231027Y683540D01*
X231116Y683538D01*
X231205Y683532D01*
X231294Y683522D01*
X231382Y683509D01*
X231470Y683492D01*
X231557Y683470D01*
X231642Y683445D01*
X231727Y683417D01*
X231810Y683384D01*
X231892Y683348D01*
X231972Y683309D01*
X232050Y683266D01*
X232126Y683220D01*
X232201Y683170D01*
X232273Y683117D01*
X232342Y683061D01*
X232409Y683002D01*
X232474Y682941D01*
X232535Y682876D01*
X232594Y682809D01*
X232650Y682740D01*
X232703Y682668D01*
X232753Y682593D01*
X232799Y682517D01*
X232842Y682439D01*
X232881Y682359D01*
X232917Y682277D01*
X232950Y682194D01*
X232978Y682109D01*
X233003Y682024D01*
X233025Y681937D01*
X233042Y681849D01*
X233055Y681761D01*
X233065Y681672D01*
X233071Y681583D01*
X233073Y681494D01*
X233073Y679448D01*
X233073Y681903D02*
X236347Y683540D01*
X230618Y686712D02*
X228981Y688758D01*
X236347Y688758D01*
X236347Y686712D02*
X236347Y690804D01*
X230618Y694027D02*
X228981Y696073D01*
X236347Y696073D01*
X236347Y694027D02*
X236347Y698119D01*
M02*
