G04 EAGLE Gerber RS-274X export*
G75*
%MOMM*%
%FSLAX34Y34*%
%LPD*%
%INSoldermask Bottom*%
%IPPOS*%
%AMOC8*
5,1,8,0,0,1.08239X$1,22.5*%
G01*
%ADD10R,1.676400X1.676400*%
%ADD11P,1.814519X8X202.500000*%
%ADD12R,1.007200X1.007200*%
%ADD13C,2.692400*%
%ADD14C,4.597400*%


D10*
X766400Y510800D03*
D11*
X766400Y485400D03*
X741000Y510800D03*
X741000Y485400D03*
X715600Y510800D03*
X715600Y485400D03*
X690200Y510800D03*
X690200Y485400D03*
X664800Y510800D03*
X664800Y485400D03*
X639400Y510800D03*
X639400Y485400D03*
X614000Y510800D03*
X614000Y485400D03*
X588600Y510800D03*
X588600Y485400D03*
X563200Y510800D03*
X563200Y485400D03*
X537800Y510800D03*
X537800Y485400D03*
X512400Y510800D03*
X512400Y485400D03*
X487000Y510800D03*
X487000Y485400D03*
X461600Y510800D03*
X461600Y485400D03*
X436200Y510800D03*
X436200Y485400D03*
X410800Y510800D03*
X410800Y485400D03*
X385400Y510800D03*
X385400Y485400D03*
X360000Y510800D03*
X360000Y485400D03*
X334600Y510800D03*
X334600Y485400D03*
D10*
X766400Y256800D03*
D11*
X766400Y231400D03*
X741000Y256800D03*
X741000Y231400D03*
X715600Y256800D03*
X715600Y231400D03*
X690200Y256800D03*
X690200Y231400D03*
X664800Y256800D03*
X664800Y231400D03*
X639400Y256800D03*
X639400Y231400D03*
X614000Y256800D03*
X614000Y231400D03*
X588600Y256800D03*
X588600Y231400D03*
X563200Y256800D03*
X563200Y231400D03*
X537800Y256800D03*
X537800Y231400D03*
X512400Y256800D03*
X512400Y231400D03*
X487000Y256800D03*
X487000Y231400D03*
X461600Y256800D03*
X461600Y231400D03*
X436200Y256800D03*
X436200Y231400D03*
X410800Y256800D03*
X410800Y231400D03*
X385400Y256800D03*
X385400Y231400D03*
X360000Y256800D03*
X360000Y231400D03*
X334600Y256800D03*
X334600Y231400D03*
D12*
X288600Y77800D03*
X308600Y77800D03*
X328600Y77800D03*
X348600Y77800D03*
X368600Y77800D03*
X388600Y77800D03*
X408600Y77800D03*
X428600Y77800D03*
X448600Y77800D03*
X468600Y77800D03*
X488600Y77800D03*
X508600Y77800D03*
X528600Y77800D03*
X548600Y77800D03*
X568600Y77800D03*
X588600Y77800D03*
X288600Y662000D03*
X308600Y662000D03*
X328600Y662000D03*
X348600Y662000D03*
X368600Y662000D03*
X388600Y662000D03*
X408600Y662000D03*
X428600Y662000D03*
X448600Y662000D03*
X468600Y662000D03*
X488600Y662000D03*
X508600Y662000D03*
X528600Y662000D03*
X548600Y662000D03*
X568600Y662000D03*
X588600Y662000D03*
D13*
X660800Y76200D03*
X710800Y76200D03*
D14*
X812800Y50800D03*
X812800Y711200D03*
X50800Y50800D03*
X50800Y711200D03*
M02*
