G04 EAGLE Gerber RS-274X export*
G75*
%MOMM*%
%FSLAX34Y34*%
%LPD*%
%INSoldermask Top*%
%IPPOS*%
%AMOC8*
5,1,8,0,0,1.08239X$1,22.5*%
G01*
%ADD10R,1.676400X1.676400*%
%ADD11P,1.814519X8X202.500000*%
%ADD12R,1.007200X1.007200*%
%ADD13R,1.183641X1.102359*%
%ADD14C,2.692400*%
%ADD15C,4.597400*%
%ADD16C,0.609600*%
%ADD17C,1.168400*%


D10*
X766400Y510800D03*
D11*
X766400Y485400D03*
X741000Y510800D03*
X741000Y485400D03*
X715600Y510800D03*
X715600Y485400D03*
X690200Y510800D03*
X690200Y485400D03*
X664800Y510800D03*
X664800Y485400D03*
X639400Y510800D03*
X639400Y485400D03*
X614000Y510800D03*
X614000Y485400D03*
X588600Y510800D03*
X588600Y485400D03*
X563200Y510800D03*
X563200Y485400D03*
X537800Y510800D03*
X537800Y485400D03*
X512400Y510800D03*
X512400Y485400D03*
X487000Y510800D03*
X487000Y485400D03*
X461600Y510800D03*
X461600Y485400D03*
X436200Y510800D03*
X436200Y485400D03*
X410800Y510800D03*
X410800Y485400D03*
X385400Y510800D03*
X385400Y485400D03*
X360000Y510800D03*
X360000Y485400D03*
X334600Y510800D03*
X334600Y485400D03*
D10*
X766400Y256800D03*
D11*
X766400Y231400D03*
X741000Y256800D03*
X741000Y231400D03*
X715600Y256800D03*
X715600Y231400D03*
X690200Y256800D03*
X690200Y231400D03*
X664800Y256800D03*
X664800Y231400D03*
X639400Y256800D03*
X639400Y231400D03*
X614000Y256800D03*
X614000Y231400D03*
X588600Y256800D03*
X588600Y231400D03*
X563200Y256800D03*
X563200Y231400D03*
X537800Y256800D03*
X537800Y231400D03*
X512400Y256800D03*
X512400Y231400D03*
X487000Y256800D03*
X487000Y231400D03*
X461600Y256800D03*
X461600Y231400D03*
X436200Y256800D03*
X436200Y231400D03*
X410800Y256800D03*
X410800Y231400D03*
X385400Y256800D03*
X385400Y231400D03*
X360000Y256800D03*
X360000Y231400D03*
X334600Y256800D03*
X334600Y231400D03*
D12*
X288600Y77800D03*
X308600Y77800D03*
X328600Y77800D03*
X348600Y77800D03*
X368600Y77800D03*
X388600Y77800D03*
X408600Y77800D03*
X428600Y77800D03*
X448600Y77800D03*
X468600Y77800D03*
X488600Y77800D03*
X508600Y77800D03*
X528600Y77800D03*
X548600Y77800D03*
X568600Y77800D03*
X588600Y77800D03*
X288600Y662000D03*
X308600Y662000D03*
X328600Y662000D03*
X348600Y662000D03*
X368600Y662000D03*
X388600Y662000D03*
X408600Y662000D03*
X428600Y662000D03*
X448600Y662000D03*
X468600Y662000D03*
X488600Y662000D03*
X508600Y662000D03*
X528600Y662000D03*
X548600Y662000D03*
X568600Y662000D03*
X588600Y662000D03*
D13*
X342900Y617601D03*
X342900Y601599D03*
X381000Y617601D03*
X381000Y601599D03*
X419100Y617601D03*
X419100Y601599D03*
X457200Y617601D03*
X457200Y601599D03*
X495300Y617601D03*
X495300Y601599D03*
X533400Y617601D03*
X533400Y601599D03*
X571500Y617601D03*
X571500Y601599D03*
X304800Y617601D03*
X304800Y601599D03*
D14*
X660800Y76200D03*
X710800Y76200D03*
D13*
X215900Y655701D03*
X215900Y639699D03*
X215900Y693801D03*
X215900Y677799D03*
D15*
X812800Y50800D03*
X812800Y711200D03*
X50800Y50800D03*
X50800Y711200D03*
D16*
X43180Y660400D02*
X43182Y660587D01*
X43189Y660774D01*
X43201Y660961D01*
X43217Y661147D01*
X43237Y661333D01*
X43262Y661518D01*
X43292Y661703D01*
X43326Y661887D01*
X43365Y662070D01*
X43408Y662252D01*
X43456Y662432D01*
X43508Y662612D01*
X43565Y662790D01*
X43625Y662967D01*
X43691Y663142D01*
X43760Y663316D01*
X43834Y663488D01*
X43912Y663658D01*
X43994Y663826D01*
X44080Y663992D01*
X44170Y664156D01*
X44264Y664317D01*
X44362Y664477D01*
X44464Y664633D01*
X44570Y664788D01*
X44680Y664939D01*
X44793Y665088D01*
X44910Y665234D01*
X45030Y665377D01*
X45154Y665517D01*
X45281Y665654D01*
X45412Y665788D01*
X45546Y665919D01*
X45683Y666046D01*
X45823Y666170D01*
X45966Y666290D01*
X46112Y666407D01*
X46261Y666520D01*
X46412Y666630D01*
X46567Y666736D01*
X46723Y666838D01*
X46883Y666936D01*
X47044Y667030D01*
X47208Y667120D01*
X47374Y667206D01*
X47542Y667288D01*
X47712Y667366D01*
X47884Y667440D01*
X48058Y667509D01*
X48233Y667575D01*
X48410Y667635D01*
X48588Y667692D01*
X48768Y667744D01*
X48948Y667792D01*
X49130Y667835D01*
X49313Y667874D01*
X49497Y667908D01*
X49682Y667938D01*
X49867Y667963D01*
X50053Y667983D01*
X50239Y667999D01*
X50426Y668011D01*
X50613Y668018D01*
X50800Y668020D01*
X50987Y668018D01*
X51174Y668011D01*
X51361Y667999D01*
X51547Y667983D01*
X51733Y667963D01*
X51918Y667938D01*
X52103Y667908D01*
X52287Y667874D01*
X52470Y667835D01*
X52652Y667792D01*
X52832Y667744D01*
X53012Y667692D01*
X53190Y667635D01*
X53367Y667575D01*
X53542Y667509D01*
X53716Y667440D01*
X53888Y667366D01*
X54058Y667288D01*
X54226Y667206D01*
X54392Y667120D01*
X54556Y667030D01*
X54717Y666936D01*
X54877Y666838D01*
X55033Y666736D01*
X55188Y666630D01*
X55339Y666520D01*
X55488Y666407D01*
X55634Y666290D01*
X55777Y666170D01*
X55917Y666046D01*
X56054Y665919D01*
X56188Y665788D01*
X56319Y665654D01*
X56446Y665517D01*
X56570Y665377D01*
X56690Y665234D01*
X56807Y665088D01*
X56920Y664939D01*
X57030Y664788D01*
X57136Y664633D01*
X57238Y664477D01*
X57336Y664317D01*
X57430Y664156D01*
X57520Y663992D01*
X57606Y663826D01*
X57688Y663658D01*
X57766Y663488D01*
X57840Y663316D01*
X57909Y663142D01*
X57975Y662967D01*
X58035Y662790D01*
X58092Y662612D01*
X58144Y662432D01*
X58192Y662252D01*
X58235Y662070D01*
X58274Y661887D01*
X58308Y661703D01*
X58338Y661518D01*
X58363Y661333D01*
X58383Y661147D01*
X58399Y660961D01*
X58411Y660774D01*
X58418Y660587D01*
X58420Y660400D01*
X58418Y660213D01*
X58411Y660026D01*
X58399Y659839D01*
X58383Y659653D01*
X58363Y659467D01*
X58338Y659282D01*
X58308Y659097D01*
X58274Y658913D01*
X58235Y658730D01*
X58192Y658548D01*
X58144Y658368D01*
X58092Y658188D01*
X58035Y658010D01*
X57975Y657833D01*
X57909Y657658D01*
X57840Y657484D01*
X57766Y657312D01*
X57688Y657142D01*
X57606Y656974D01*
X57520Y656808D01*
X57430Y656644D01*
X57336Y656483D01*
X57238Y656323D01*
X57136Y656167D01*
X57030Y656012D01*
X56920Y655861D01*
X56807Y655712D01*
X56690Y655566D01*
X56570Y655423D01*
X56446Y655283D01*
X56319Y655146D01*
X56188Y655012D01*
X56054Y654881D01*
X55917Y654754D01*
X55777Y654630D01*
X55634Y654510D01*
X55488Y654393D01*
X55339Y654280D01*
X55188Y654170D01*
X55033Y654064D01*
X54877Y653962D01*
X54717Y653864D01*
X54556Y653770D01*
X54392Y653680D01*
X54226Y653594D01*
X54058Y653512D01*
X53888Y653434D01*
X53716Y653360D01*
X53542Y653291D01*
X53367Y653225D01*
X53190Y653165D01*
X53012Y653108D01*
X52832Y653056D01*
X52652Y653008D01*
X52470Y652965D01*
X52287Y652926D01*
X52103Y652892D01*
X51918Y652862D01*
X51733Y652837D01*
X51547Y652817D01*
X51361Y652801D01*
X51174Y652789D01*
X50987Y652782D01*
X50800Y652780D01*
X50613Y652782D01*
X50426Y652789D01*
X50239Y652801D01*
X50053Y652817D01*
X49867Y652837D01*
X49682Y652862D01*
X49497Y652892D01*
X49313Y652926D01*
X49130Y652965D01*
X48948Y653008D01*
X48768Y653056D01*
X48588Y653108D01*
X48410Y653165D01*
X48233Y653225D01*
X48058Y653291D01*
X47884Y653360D01*
X47712Y653434D01*
X47542Y653512D01*
X47374Y653594D01*
X47208Y653680D01*
X47044Y653770D01*
X46883Y653864D01*
X46723Y653962D01*
X46567Y654064D01*
X46412Y654170D01*
X46261Y654280D01*
X46112Y654393D01*
X45966Y654510D01*
X45823Y654630D01*
X45683Y654754D01*
X45546Y654881D01*
X45412Y655012D01*
X45281Y655146D01*
X45154Y655283D01*
X45030Y655423D01*
X44910Y655566D01*
X44793Y655712D01*
X44680Y655861D01*
X44570Y656012D01*
X44464Y656167D01*
X44362Y656323D01*
X44264Y656483D01*
X44170Y656644D01*
X44080Y656808D01*
X43994Y656974D01*
X43912Y657142D01*
X43834Y657312D01*
X43760Y657484D01*
X43691Y657658D01*
X43625Y657833D01*
X43565Y658010D01*
X43508Y658188D01*
X43456Y658368D01*
X43408Y658548D01*
X43365Y658730D01*
X43326Y658913D01*
X43292Y659097D01*
X43262Y659282D01*
X43237Y659467D01*
X43217Y659653D01*
X43201Y659839D01*
X43189Y660026D01*
X43182Y660213D01*
X43180Y660400D01*
D17*
X50800Y660400D03*
D16*
X43180Y101600D02*
X43182Y101787D01*
X43189Y101974D01*
X43201Y102161D01*
X43217Y102347D01*
X43237Y102533D01*
X43262Y102718D01*
X43292Y102903D01*
X43326Y103087D01*
X43365Y103270D01*
X43408Y103452D01*
X43456Y103632D01*
X43508Y103812D01*
X43565Y103990D01*
X43625Y104167D01*
X43691Y104342D01*
X43760Y104516D01*
X43834Y104688D01*
X43912Y104858D01*
X43994Y105026D01*
X44080Y105192D01*
X44170Y105356D01*
X44264Y105517D01*
X44362Y105677D01*
X44464Y105833D01*
X44570Y105988D01*
X44680Y106139D01*
X44793Y106288D01*
X44910Y106434D01*
X45030Y106577D01*
X45154Y106717D01*
X45281Y106854D01*
X45412Y106988D01*
X45546Y107119D01*
X45683Y107246D01*
X45823Y107370D01*
X45966Y107490D01*
X46112Y107607D01*
X46261Y107720D01*
X46412Y107830D01*
X46567Y107936D01*
X46723Y108038D01*
X46883Y108136D01*
X47044Y108230D01*
X47208Y108320D01*
X47374Y108406D01*
X47542Y108488D01*
X47712Y108566D01*
X47884Y108640D01*
X48058Y108709D01*
X48233Y108775D01*
X48410Y108835D01*
X48588Y108892D01*
X48768Y108944D01*
X48948Y108992D01*
X49130Y109035D01*
X49313Y109074D01*
X49497Y109108D01*
X49682Y109138D01*
X49867Y109163D01*
X50053Y109183D01*
X50239Y109199D01*
X50426Y109211D01*
X50613Y109218D01*
X50800Y109220D01*
X50987Y109218D01*
X51174Y109211D01*
X51361Y109199D01*
X51547Y109183D01*
X51733Y109163D01*
X51918Y109138D01*
X52103Y109108D01*
X52287Y109074D01*
X52470Y109035D01*
X52652Y108992D01*
X52832Y108944D01*
X53012Y108892D01*
X53190Y108835D01*
X53367Y108775D01*
X53542Y108709D01*
X53716Y108640D01*
X53888Y108566D01*
X54058Y108488D01*
X54226Y108406D01*
X54392Y108320D01*
X54556Y108230D01*
X54717Y108136D01*
X54877Y108038D01*
X55033Y107936D01*
X55188Y107830D01*
X55339Y107720D01*
X55488Y107607D01*
X55634Y107490D01*
X55777Y107370D01*
X55917Y107246D01*
X56054Y107119D01*
X56188Y106988D01*
X56319Y106854D01*
X56446Y106717D01*
X56570Y106577D01*
X56690Y106434D01*
X56807Y106288D01*
X56920Y106139D01*
X57030Y105988D01*
X57136Y105833D01*
X57238Y105677D01*
X57336Y105517D01*
X57430Y105356D01*
X57520Y105192D01*
X57606Y105026D01*
X57688Y104858D01*
X57766Y104688D01*
X57840Y104516D01*
X57909Y104342D01*
X57975Y104167D01*
X58035Y103990D01*
X58092Y103812D01*
X58144Y103632D01*
X58192Y103452D01*
X58235Y103270D01*
X58274Y103087D01*
X58308Y102903D01*
X58338Y102718D01*
X58363Y102533D01*
X58383Y102347D01*
X58399Y102161D01*
X58411Y101974D01*
X58418Y101787D01*
X58420Y101600D01*
X58418Y101413D01*
X58411Y101226D01*
X58399Y101039D01*
X58383Y100853D01*
X58363Y100667D01*
X58338Y100482D01*
X58308Y100297D01*
X58274Y100113D01*
X58235Y99930D01*
X58192Y99748D01*
X58144Y99568D01*
X58092Y99388D01*
X58035Y99210D01*
X57975Y99033D01*
X57909Y98858D01*
X57840Y98684D01*
X57766Y98512D01*
X57688Y98342D01*
X57606Y98174D01*
X57520Y98008D01*
X57430Y97844D01*
X57336Y97683D01*
X57238Y97523D01*
X57136Y97367D01*
X57030Y97212D01*
X56920Y97061D01*
X56807Y96912D01*
X56690Y96766D01*
X56570Y96623D01*
X56446Y96483D01*
X56319Y96346D01*
X56188Y96212D01*
X56054Y96081D01*
X55917Y95954D01*
X55777Y95830D01*
X55634Y95710D01*
X55488Y95593D01*
X55339Y95480D01*
X55188Y95370D01*
X55033Y95264D01*
X54877Y95162D01*
X54717Y95064D01*
X54556Y94970D01*
X54392Y94880D01*
X54226Y94794D01*
X54058Y94712D01*
X53888Y94634D01*
X53716Y94560D01*
X53542Y94491D01*
X53367Y94425D01*
X53190Y94365D01*
X53012Y94308D01*
X52832Y94256D01*
X52652Y94208D01*
X52470Y94165D01*
X52287Y94126D01*
X52103Y94092D01*
X51918Y94062D01*
X51733Y94037D01*
X51547Y94017D01*
X51361Y94001D01*
X51174Y93989D01*
X50987Y93982D01*
X50800Y93980D01*
X50613Y93982D01*
X50426Y93989D01*
X50239Y94001D01*
X50053Y94017D01*
X49867Y94037D01*
X49682Y94062D01*
X49497Y94092D01*
X49313Y94126D01*
X49130Y94165D01*
X48948Y94208D01*
X48768Y94256D01*
X48588Y94308D01*
X48410Y94365D01*
X48233Y94425D01*
X48058Y94491D01*
X47884Y94560D01*
X47712Y94634D01*
X47542Y94712D01*
X47374Y94794D01*
X47208Y94880D01*
X47044Y94970D01*
X46883Y95064D01*
X46723Y95162D01*
X46567Y95264D01*
X46412Y95370D01*
X46261Y95480D01*
X46112Y95593D01*
X45966Y95710D01*
X45823Y95830D01*
X45683Y95954D01*
X45546Y96081D01*
X45412Y96212D01*
X45281Y96346D01*
X45154Y96483D01*
X45030Y96623D01*
X44910Y96766D01*
X44793Y96912D01*
X44680Y97061D01*
X44570Y97212D01*
X44464Y97367D01*
X44362Y97523D01*
X44264Y97683D01*
X44170Y97844D01*
X44080Y98008D01*
X43994Y98174D01*
X43912Y98342D01*
X43834Y98512D01*
X43760Y98684D01*
X43691Y98858D01*
X43625Y99033D01*
X43565Y99210D01*
X43508Y99388D01*
X43456Y99568D01*
X43408Y99748D01*
X43365Y99930D01*
X43326Y100113D01*
X43292Y100297D01*
X43262Y100482D01*
X43237Y100667D01*
X43217Y100853D01*
X43201Y101039D01*
X43189Y101226D01*
X43182Y101413D01*
X43180Y101600D01*
D17*
X50800Y101600D03*
D16*
X805180Y101600D02*
X805182Y101787D01*
X805189Y101974D01*
X805201Y102161D01*
X805217Y102347D01*
X805237Y102533D01*
X805262Y102718D01*
X805292Y102903D01*
X805326Y103087D01*
X805365Y103270D01*
X805408Y103452D01*
X805456Y103632D01*
X805508Y103812D01*
X805565Y103990D01*
X805625Y104167D01*
X805691Y104342D01*
X805760Y104516D01*
X805834Y104688D01*
X805912Y104858D01*
X805994Y105026D01*
X806080Y105192D01*
X806170Y105356D01*
X806264Y105517D01*
X806362Y105677D01*
X806464Y105833D01*
X806570Y105988D01*
X806680Y106139D01*
X806793Y106288D01*
X806910Y106434D01*
X807030Y106577D01*
X807154Y106717D01*
X807281Y106854D01*
X807412Y106988D01*
X807546Y107119D01*
X807683Y107246D01*
X807823Y107370D01*
X807966Y107490D01*
X808112Y107607D01*
X808261Y107720D01*
X808412Y107830D01*
X808567Y107936D01*
X808723Y108038D01*
X808883Y108136D01*
X809044Y108230D01*
X809208Y108320D01*
X809374Y108406D01*
X809542Y108488D01*
X809712Y108566D01*
X809884Y108640D01*
X810058Y108709D01*
X810233Y108775D01*
X810410Y108835D01*
X810588Y108892D01*
X810768Y108944D01*
X810948Y108992D01*
X811130Y109035D01*
X811313Y109074D01*
X811497Y109108D01*
X811682Y109138D01*
X811867Y109163D01*
X812053Y109183D01*
X812239Y109199D01*
X812426Y109211D01*
X812613Y109218D01*
X812800Y109220D01*
X812987Y109218D01*
X813174Y109211D01*
X813361Y109199D01*
X813547Y109183D01*
X813733Y109163D01*
X813918Y109138D01*
X814103Y109108D01*
X814287Y109074D01*
X814470Y109035D01*
X814652Y108992D01*
X814832Y108944D01*
X815012Y108892D01*
X815190Y108835D01*
X815367Y108775D01*
X815542Y108709D01*
X815716Y108640D01*
X815888Y108566D01*
X816058Y108488D01*
X816226Y108406D01*
X816392Y108320D01*
X816556Y108230D01*
X816717Y108136D01*
X816877Y108038D01*
X817033Y107936D01*
X817188Y107830D01*
X817339Y107720D01*
X817488Y107607D01*
X817634Y107490D01*
X817777Y107370D01*
X817917Y107246D01*
X818054Y107119D01*
X818188Y106988D01*
X818319Y106854D01*
X818446Y106717D01*
X818570Y106577D01*
X818690Y106434D01*
X818807Y106288D01*
X818920Y106139D01*
X819030Y105988D01*
X819136Y105833D01*
X819238Y105677D01*
X819336Y105517D01*
X819430Y105356D01*
X819520Y105192D01*
X819606Y105026D01*
X819688Y104858D01*
X819766Y104688D01*
X819840Y104516D01*
X819909Y104342D01*
X819975Y104167D01*
X820035Y103990D01*
X820092Y103812D01*
X820144Y103632D01*
X820192Y103452D01*
X820235Y103270D01*
X820274Y103087D01*
X820308Y102903D01*
X820338Y102718D01*
X820363Y102533D01*
X820383Y102347D01*
X820399Y102161D01*
X820411Y101974D01*
X820418Y101787D01*
X820420Y101600D01*
X820418Y101413D01*
X820411Y101226D01*
X820399Y101039D01*
X820383Y100853D01*
X820363Y100667D01*
X820338Y100482D01*
X820308Y100297D01*
X820274Y100113D01*
X820235Y99930D01*
X820192Y99748D01*
X820144Y99568D01*
X820092Y99388D01*
X820035Y99210D01*
X819975Y99033D01*
X819909Y98858D01*
X819840Y98684D01*
X819766Y98512D01*
X819688Y98342D01*
X819606Y98174D01*
X819520Y98008D01*
X819430Y97844D01*
X819336Y97683D01*
X819238Y97523D01*
X819136Y97367D01*
X819030Y97212D01*
X818920Y97061D01*
X818807Y96912D01*
X818690Y96766D01*
X818570Y96623D01*
X818446Y96483D01*
X818319Y96346D01*
X818188Y96212D01*
X818054Y96081D01*
X817917Y95954D01*
X817777Y95830D01*
X817634Y95710D01*
X817488Y95593D01*
X817339Y95480D01*
X817188Y95370D01*
X817033Y95264D01*
X816877Y95162D01*
X816717Y95064D01*
X816556Y94970D01*
X816392Y94880D01*
X816226Y94794D01*
X816058Y94712D01*
X815888Y94634D01*
X815716Y94560D01*
X815542Y94491D01*
X815367Y94425D01*
X815190Y94365D01*
X815012Y94308D01*
X814832Y94256D01*
X814652Y94208D01*
X814470Y94165D01*
X814287Y94126D01*
X814103Y94092D01*
X813918Y94062D01*
X813733Y94037D01*
X813547Y94017D01*
X813361Y94001D01*
X813174Y93989D01*
X812987Y93982D01*
X812800Y93980D01*
X812613Y93982D01*
X812426Y93989D01*
X812239Y94001D01*
X812053Y94017D01*
X811867Y94037D01*
X811682Y94062D01*
X811497Y94092D01*
X811313Y94126D01*
X811130Y94165D01*
X810948Y94208D01*
X810768Y94256D01*
X810588Y94308D01*
X810410Y94365D01*
X810233Y94425D01*
X810058Y94491D01*
X809884Y94560D01*
X809712Y94634D01*
X809542Y94712D01*
X809374Y94794D01*
X809208Y94880D01*
X809044Y94970D01*
X808883Y95064D01*
X808723Y95162D01*
X808567Y95264D01*
X808412Y95370D01*
X808261Y95480D01*
X808112Y95593D01*
X807966Y95710D01*
X807823Y95830D01*
X807683Y95954D01*
X807546Y96081D01*
X807412Y96212D01*
X807281Y96346D01*
X807154Y96483D01*
X807030Y96623D01*
X806910Y96766D01*
X806793Y96912D01*
X806680Y97061D01*
X806570Y97212D01*
X806464Y97367D01*
X806362Y97523D01*
X806264Y97683D01*
X806170Y97844D01*
X806080Y98008D01*
X805994Y98174D01*
X805912Y98342D01*
X805834Y98512D01*
X805760Y98684D01*
X805691Y98858D01*
X805625Y99033D01*
X805565Y99210D01*
X805508Y99388D01*
X805456Y99568D01*
X805408Y99748D01*
X805365Y99930D01*
X805326Y100113D01*
X805292Y100297D01*
X805262Y100482D01*
X805237Y100667D01*
X805217Y100853D01*
X805201Y101039D01*
X805189Y101226D01*
X805182Y101413D01*
X805180Y101600D01*
D17*
X812800Y101600D03*
M02*
