M48
;GenerationSoftware,Autodesk,EAGLE,9.5.1*%
;CreationDate,2019-12-18T07:32:45Z*%
FMAT,2
ICI,OFF
METRIC,TZ,000.000
T5C0.305
T4C0.550
T3C0.889
T2C1.000
T1C3.175
%
G90
M71
T1
X5080Y5080
X81280Y71120
X81280Y5080
X5080Y71120
T2
X71080Y7620
X66080Y7620
T3
X71560Y51080
X38540Y23140
X36000Y25680
X36000Y23140
X33460Y25680
X33460Y23140
X76640Y51080
X76640Y48540
X74100Y51080
X74100Y48540
X53780Y48540
X71560Y48540
X69020Y51080
X69020Y48540
X66480Y51080
X66480Y48540
X63940Y51080
X63940Y48540
X61400Y51080
X61400Y48540
X58860Y51080
X58860Y48540
X56320Y51080
X56320Y48540
X53780Y51080
X51240Y51080
X51240Y48540
X48700Y51080
X48700Y48540
X46160Y51080
X46160Y48540
X43620Y51080
X43620Y48540
X41080Y51080
X41080Y48540
X38540Y51080
X38540Y48540
X36000Y51080
X36000Y48540
X33460Y51080
X33460Y48540
X76640Y25680
X76640Y23140
X74100Y25680
X74100Y23140
X71560Y25680
X71560Y23140
X69020Y25680
X69020Y23140
X66480Y25680
X66480Y23140
X63940Y25680
X63940Y23140
X61400Y25680
X61400Y23140
X58860Y25680
X58860Y23140
X56320Y25680
X56320Y23140
X53780Y25680
X53780Y23140
X51240Y25680
X51240Y23140
X48700Y25680
X48700Y23140
X46160Y25680
X46160Y23140
X43620Y25680
X43620Y23140
X41080Y25680
X41080Y23140
X38540Y25680
T4
X28860Y7780
X50860Y66200
X52860Y66200
X54860Y66200
X56860Y66200
X38860Y7780
X30860Y7780
X32860Y7780
X34860Y7780
X36860Y7780
X58860Y66200
X40860Y7780
X40860Y66200
X44860Y7780
X46860Y7780
X48860Y7780
X50860Y7780
X52860Y7780
X54860Y7780
X56860Y7780
X58860Y7780
X28860Y66200
X30860Y66200
X32860Y66200
X34860Y66200
X36860Y66200
X38860Y66200
X42860Y7780
X42860Y66200
X44860Y66200
X46860Y66200
X48860Y66200
T5
X34290Y58420
X38100Y58420
X41910Y58420
X45720Y58420
X30480Y58420
X21590Y62230
X76200Y5080
X57150Y58420
X53340Y58420
X49530Y58420
X21590Y71120
M30